<?xml version="1.0" encoding="utf-8"?>
<!-- Generator: Adobe Illustrator 19.1.0, SVG Export Plug-In . SVG Version: 6.00 Build 0)  -->
<svg version="1.1" id="building4" xmlns="http://www.w3.org/2000/svg" xmlns:xlink="http://www.w3.org/1999/xlink" x="0px" y="0px"
	 viewBox="0 0 2250.7 950.8" style="enable-background:new 0 0 2250.7 950.8;" xml:space="preserve">

<g>
	<g>
		<g id="sidewalk04">
			<polygon class="st16" points="2250.2,942.3 38.6,942.3 38.6,862.7 2170.2,862.7 			"/>
			<rect x="0" y="943.3" class="st17" width="2250.2" height="7"/>
		</g>
		<rect x="1820.2" y="60.8" class="st18" data-0="fill:rgba(193,204,202,1)"  data-3500="fill:rgba(236,221,181,1)" data-4000="fill:rgba(245,219,144,1)" width="335.7" height="667.1"/>
		<rect id="lights101top2" data-0="fill:rgba(193,204,202,1)"  data-3000="fill:rgba(193,204,202,1)" data-3500="fill:rgba(236,221,181,1)" data-6000="fill:rgba(245,219,144,1)" data-8000="fill:rgba(252,244,221,1)" x="1804.7"  x="1804.7" y="58.5" class="st89" width="370.7" height="141.8"/>
		<g id="buildingPlaceholder_1_" class="st90">
			<polygon points="1482.6,440.3 1482.6,379.7 1294.6,310.7 1216.9,338.1 1216.9,254.9 893.7,254.9 893.7,907.1 1718.3,907.1 
				1718.3,440.3 			"/>
			<polygon points="589.8,391.9 550.2,391.9 550.2,281.4 269.4,281.4 269.4,907.1 797.1,907.1 797.1,135.5 589.8,135.5 			"/>
			<polygon points="0,277.1 0,907.1 226.5,907.1 226.5,204.7 174,204.7 			"/>
		</g>
		<g id="buildingBlock04_1_">
			<rect x="1800.4" y="741.1" class="st91" width="377.1" height="162.7"/>
			<polygon class="st92" points="1959.5,877.9 1955.2,878.8 1955.2,874 1959.5,873.2 			"/>
			<rect x="1860.2" y="874.2" class="st92" width="91.1" height="4.8"/>
			<line class="st93" x1="1951.5" y1="780.5" x2="2026" y2="780.5"/>
			<g>
				<line class="st93" x1="1837.5" y1="692.5" x2="2139.9" y2="692.5"/>
				<line class="st93" x1="1837.5" y1="617.5" x2="2139.9" y2="617.5"/>
				<line class="st93" x1="1837.5" y1="543.5" x2="2139.9" y2="543.5"/>
				<line class="st93" x1="1837.5" y1="469.5" x2="2139.9" y2="469.5"/>
				<line class="st93" x1="1837.5" y1="395.5" x2="2139.9" y2="395.5"/>
				<line class="st93" x1="1837.5" y1="323.5" x2="2139.9" y2="323.5"/>
				<line class="st93" x1="1837.5" y1="249.5" x2="2139.9" y2="249.5"/>
				<line class="st93" x1="1837.5" y1="174.5" x2="2139.9" y2="174.5"/>
				<line class="st93" x1="1837.5" y1="100.5" x2="2139.9" y2="100.5"/>
			</g>
			<path class="st55" d="M2025.2,890.6l-5.2-40.5h5.2V890.6z"/>
			<path class="st55" d="M1960.1,883.6l-5.2-40.5h5.2V883.6z"/>
			<path class="st55" d="M2016.2,902.6l-5.2-49.2h5.2V902.6z"/>
			<path class="st55" d="M1968.2,902.6l-5.2-49.2h5.2V902.6z"/>
			<path class="st55" d="M2008.2,900.6l-14.5-42.9h14.5V900.6z"/>
			<path class="st55" d="M1986.2,900.6l-14.5-42.9h14.5V900.6z"/>
			<g>
				<path class="st94" d="M2016.5,855.4v46.4h-52.6v-46.4H2016.5 M2018.5,853.4h-56.6v50.4h56.6V853.4L2018.5,853.4z"/>
			</g>
			<g>
				<path class="st94" d="M2016.2,855.4v46.4h-52.6v-46.4H2016.2 M2018.2,853.4h-56.6v50.4h56.6V853.4L2018.2,853.4z"/>
			</g>
			<polygon class="st95" points="2018,903.5 2027.4,906.6 2027.4,897.8 2018,895.3 			"/>
			<path class="st96" d="M2018,833.4v63.2l9.1,2.7v-63.9L2018,833.4z M2020.3,849.6l4.3,1v40.1l-4.3-1.1V849.6z"/>
			<g>
				<path class="st55" d="M2172.2,892.4l-19.5-44.6h19.5V892.4z"/>
				<rect x="2149.7" y="894.5" class="st97" width="25.9" height="8.8"/>
				<path class="st96" d="M2148.9,845.4V896h27.1v-50.6H2148.9z M2172.2,892.4h-19.5v-41.1h19.5V892.4z"/>
			</g>
			<polygon class="st95" points="1961.9,903.3 1952.5,906.6 1952.5,897.8 1961.9,895.3 			"/>
			<path class="st55" d="M1885,884.7l-22-40.1h22V884.7z M1917.2,884.7l-23-40.1h23V884.7z M1949.4,884.7l-23-40.1h23V884.7z"/>
			<path class="st55" d="M2058.4,895.7l-27.7-44.6h27.7V895.7z M2091.1,895.7l-27.7-44.6h27.7V895.7z M2124,895.7l-27.7-44.6h27.7
				V895.7z"/>
			<path class="st55" d="M1852.1,804l-37.6-47.8h37.6V804z M1900.3,804l-38.2-47.8h38.2V804z M1948.4,804l-38.2-47.8h38.2V804z
				 M1984.7,804l-25.8-47.8h25.8V804z M2020.1,804l-25.8-47.8h25.8V804z M2068.7,804l-38.2-47.8h38.2V804z M2116.9,804l-38.2-47.8
				h38.2V804z M2126.8,756.3h38.4L2165,804L2126.8,756.3z"/>
			<rect x="1843.8" y="897.8" class="st98" width="108.7" height="8.8"/>
			<rect x="1808.4" y="897.8" class="st99" width="14.3" height="8"/>
			<path class="st100" d="M1809.3,835.2v64.1h14.2v-43.9h19.8v43.9h109.9v-64.1H1809.3z M1885,884.7h-22v-40.1h22V884.7z
				 M1917.2,884.7h-23v-40.1h23V884.7z M1949.4,884.7h-23v-40.1h23V884.7z"/>
			<rect x="1887.3" y="840.3" class="st101" width="4.5" height="58.2"/>
			<rect x="1919.5" y="840.3" class="st101" width="4.5" height="58.2"/>
			<rect x="1845.9" y="888.6" class="st102" width="8.3" height="6.3"/>
			<rect x="1812.6" y="888.6" class="st102" width="8.3" height="6.3"/>
			<g>
				<path class="st94" d="M1985,858.4v40.4h-12v-40.4H1985 M1990,853.4h-22v50.4h22V853.4L1990,853.4z"/>
			</g>
			<g>
				<path class="st94" d="M2007,858.4v40.4h-12v-40.4H2007 M2012,853.4h-22v50.4h22V853.4L2012,853.4z"/>
			</g>
			<g>
				<line class="st103" x1="1987.7" y1="858.8" x2="1987.7" y2="897.8"/>
				<line class="st103" x1="1992.3" y1="897.8" x2="1992.3" y2="858.8"/>
			</g>
			<rect x="2027.6" y="897.8" class="st98" width="99.7" height="8.8"/>
			<path class="st104" d="M2026.9,845.2v54.1h100.9v-54.1H2026.9z M2058.4,895.7h-27.7v-44.6h27.7V895.7z M2091.1,895.7h-27.7v-44.6
				h27.7V895.7z M2124,895.7h-27.7v-44.6h27.7V895.7z"/>
			<path class="st105" d="M1801.5,738.9v92.5h376v-92.5H1801.5z M1852.1,804h-38.2v-34.9h1.6v-2.2c4.3-1,7.7-4.5,8.6-8.9h2.4v-1.7
				h25.6V804z M1900.3,804h-38.2v-47.8h38.2V804z M1948.4,804h-38.2v-47.8h38.2V804z M1984.7,804h-25.8v-47.8h25.8V804z M2020.1,804
				h-25.8v-47.8h25.8V804z M2068.7,804h-38.2v-47.8h38.2V804z M2116.9,804h-38.2v-47.8h38.2V804z M2126.8,804v-47.8h25.4v1.7h2.4
				c0.9,4.4,4.2,7.9,8.6,8.9v2.2h1.8V804H2126.8z"/>
			<rect x="1798.9" y="804.8" class="st106" width="381.1" height="2.4"/>
			<rect x="1798.9" y="807.3" class="st107" width="381.1" height="1.9"/>
			<g>
				<polygon class="st55" points="2134.8,847.3 2149.1,845.9 2149.1,854.5 2138.8,855.4 				"/>
				<g class="st55">
					<polygon points="2148.6,856.4 2130.4,857.4 2148.6,903.8 					"/>
				</g>
				<g>
					<path class="st94" d="M2146.1,857.6v43.5l-15.3,1.5v-43.6L2146.1,857.6 M2149.1,854.3l-21.3,1.9v49.7l21.3-2.1V854.3
						L2149.1,854.3z"/>
				</g>
				<g>
					<path class="st94" d="M2147.1,845v8.5l-17.3,1.7v-9L2147.1,845 M2149.1,842.9l-21.3,1.4v13.1l21.3-2.1V842.9L2149.1,842.9z"/>
				</g>
				<line class="st92" x1="2145.2" y1="873.1" x2="2145.2" y2="882.4"/>
			</g>
			<g>
				<polygon class="st108" points="2018.1,846.4 2018.1,827.5 2025.9,828.7 2025.9,847.8 				"/>
				<g>
					<path class="st109" d="M2018.6,828l6.8,1.1v18l-6.8-1.2V828 M2017.6,826.9v19.9l8.8,1.6v-20.1L2017.6,826.9L2017.6,826.9z"/>
				</g>
			</g>
			<path class="st110" d="M1792,735.6v171h19.7V767.4h2.4v-2.2c4.3-1,7.7-4.5,8.6-8.9h2.4v-2.6h328.7v2.6h2.4
				c0.9,4.4,4.2,7.9,8.6,8.9v2.2h2.5v139.2h19.7v-171H1792z"/>
			<g>
				<g>
					<polyline class="st111" points="1798.2,739.4 1797.2,739.4 1797.2,740.4 					"/>
					<line class="st112" x1="1797.2" y1="742.4" x2="1797.2" y2="890.9"/>
					<polyline class="st111" points="1797.2,891.9 1797.2,892.9 1798.2,892.9 					"/>
					<line class="st113" x1="1800.7" y1="892.9" x2="1804.4" y2="892.9"/>
					<polyline class="st111" points="1805.7,892.9 1806.7,892.9 1806.7,891.9 					"/>
					<line class="st114" x1="1806.7" y1="889.9" x2="1806.7" y2="763.3"/>
					<polyline class="st111" points="1806.7,762.3 1806.7,761.3 1807.7,761.3 					"/>
					<polyline class="st111" points="1808.1,761.3 1809.1,761.3 1809.1,760.3 					"/>
					<path class="st111" d="M1809.1,760.1v-1c0.3-0.1,0.6-0.2,1-0.3"/>
					<path class="st115" d="M1812.1,757.9c2.3-1.3,4-3.3,5-5.7"/>
					<path class="st111" d="M1817.5,751.2c0.1-0.3,0.2-0.6,0.2-1h1"/>
					<polyline class="st111" points="1819.1,750.2 1820.1,750.2 1820.1,749.2 					"/>
					<polyline class="st111" points="1820.1,748.6 1820.1,747.6 1821.1,747.6 					"/>
					<line class="st116" x1="1823.1" y1="747.6" x2="2156.7" y2="747.6"/>
					<polyline class="st111" points="2157.7,747.6 2158.7,747.6 2158.7,748.6 					"/>
					<polyline class="st111" points="2158.7,749.2 2158.7,750.2 2159.7,750.2 					"/>
					<path class="st111" d="M2160.1,750.2h1c0.1,0.3,0.1,0.7,0.2,1"/>
					<path class="st115" d="M2162.1,753.2c1.2,2.3,3.1,4.1,5.5,5.2"/>
					<path class="st111" d="M2168.7,758.8c0.3,0.1,0.6,0.2,1,0.3v1"/>
					<polyline class="st111" points="2169.7,760.3 2169.7,761.3 2170.7,761.3 					"/>
					<polyline class="st111" points="2171.3,761.3 2172.3,761.3 2172.3,762.3 					"/>
					<line class="st114" x1="2172.3" y1="764.3" x2="2172.3" y2="890.9"/>
					<polyline class="st111" points="2172.3,891.9 2172.3,892.9 2173.3,892.9 					"/>
					<line class="st117" x1="2175.8" y1="892.9" x2="2179.5" y2="892.9"/>
					<polyline class="st111" points="2180.8,892.9 2181.8,892.9 2181.8,891.9 					"/>
					<line class="st112" x1="2181.8" y1="889.9" x2="2181.8" y2="741.4"/>
					<polyline class="st111" points="2181.8,740.4 2181.8,739.4 2180.8,739.4 					"/>
					<line class="st118" x1="2178.8" y1="739.4" x2="1799.2" y2="739.4"/>
				</g>
			</g>
			<g>
				<polygon class="st53" data-0="opacity:.7" data-6000="opacity:.3" points="2063.4,716.5 2031.6,669.6 2063.4,669.6 				"/>
				<polygon class="st53" data-0="opacity:.7" data-6000="opacity:.3" points="1947.3,716.5 1915.6,669.6 1947.3,669.6 				"/>
				<polygon class="st53" data-0="opacity:.7" data-6000="opacity:.3" points="2008.7,716.5 1970.2,669.6 2008.7,669.6 				"/>
				<path class="st53" data-0="opacity:.7" data-6000="opacity:.3" d="M2120.8,666.5c-5.9,0-12.5,1.5-15.9,2.4l31.7,47.6v-47.6C2133.4,668,2126.7,666.5,2120.8,666.5z"/>
				<polygon class="st53" data-0="opacity:.7" data-6000="opacity:.3" points="2063.4,642.5 2031.6,595.6 2063.4,595.6 				"/>
				<polygon class="st53" data-0="opacity:.7" data-6000="opacity:.3" points="1947.3,642.5 1915.6,595.6 1947.3,595.6 				"/>
				<polygon class="st53" data-0="opacity:.7" data-6000="opacity:.3" points="2008.7,642.5 1970.2,595.6 2008.7,595.6 				"/>
				<path class="st53" data-0="opacity:.7" data-6000="opacity:.3" d="M2121.2,592.5c-5.9,0-12.5,1.5-15.9,2.4l31.7,47.6v-47.6C2133.8,594,2127.1,592.5,2121.2,592.5z"/>
				<polygon class="st53" data-0="opacity:.7" data-6000="opacity:.3" points="2063.4,568.5 2031.6,521.6 2063.4,521.6 				"/>
				<polygon class="st53" data-0="opacity:.7" data-6000="opacity:.3" points="1947.3,568.5 1915.6,521.6 1947.3,521.6 				"/>
				<polygon class="st53" data-0="opacity:.7" data-6000="opacity:.3" points="2008.7,568.5 1970.2,521.6 2008.7,521.6 				"/>
				<path class="st53" data-0="opacity:.7" data-6000="opacity:.3" d="M2121.2,518.5c-5.9,0-12.5,1.5-15.9,2.4l31.7,47.6v-47.6C2133.8,520,2127.1,518.5,2121.2,518.5z"/>
				<polygon class="st53" data-0="opacity:.7" data-6000="opacity:.3" points="2063.4,494.5 2031.6,447.6 2063.4,447.6 				"/>
				<polygon class="st53" data-0="opacity:.7" data-6000="opacity:.3" points="1947.3,494.5 1915.6,447.6 1947.3,447.6 				"/>
				<polygon class="st53" data-0="opacity:.7" data-6000="opacity:.3" points="2008.7,494.5 1970.2,447.6 2008.7,447.6 				"/>
				<path class="st53" data-0="opacity:.7" data-6000="opacity:.3" d="M2120.8,444.5c-5.9,0-12.5,1.5-15.9,2.4l31.7,47.6v-47.6C2133.4,446,2126.7,444.5,2120.8,444.5z"/>
				<polygon class="st53" data-0="opacity:.7" data-6000="opacity:.3" points="2063.4,420.5 2031.6,373.6 2063.4,373.6 				"/>
				<polygon class="st53" data-0="opacity:.7" data-6000="opacity:.3" points="1947.3,420.5 1915.6,373.6 1947.3,373.6 				"/>
				<polygon class="st53" data-0="opacity:.7" data-6000="opacity:.3" points="2008.7,420.5 1970.2,373.6 2008.7,373.6 				"/>
				<path class="st53" data-0="opacity:.7" data-6000="opacity:.3" d="M2121.2,370.5c-5.9,0-12.5,1.5-15.9,2.4l31.7,47.6v-47.6C2133.8,372,2127.1,370.5,2121.2,370.5z"/>
				<polygon class="st53" data-0="opacity:.7" data-6000="opacity:.3" points="2063.4,347.3 2031.6,300.5 2063.4,300.5 				"/>
				<polygon class="st53" data-0="opacity:.7" data-6000="opacity:.3" points="1947.3,347.3 1915.6,300.5 1947.3,300.5 				"/>
				<polygon class="st53" data-0="opacity:.7" data-6000="opacity:.3" points="2008.7,347.3 1970.2,300.5 2008.7,300.5 				"/>
				<path class="st53" data-0="opacity:.7" data-6000="opacity:.3" d="M2121.2,297.3c-5.9,0-12.5,1.5-15.9,2.4l31.7,47.6v-47.6C2133.8,298.9,2127.1,297.3,2121.2,297.3z"/>
				<polygon class="st53" data-0="opacity:.7" data-6000="opacity:.3" points="2063.4,273.3 2031.6,226.5 2063.4,226.5 				"/>
				<polygon class="st53" data-0="opacity:.7" data-6000="opacity:.3" points="1947.3,273.3 1915.6,226.5 1947.3,226.5 				"/>
				<polygon class="st53" data-0="opacity:.7" data-6000="opacity:.3" points="2008.7,273.3 1970.2,226.5 2008.7,226.5 				"/>
				<path class="st53" data-0="opacity:.7" data-6000="opacity:.3" d="M2121.2,223.3c-5.9,0-12.5,1.5-15.9,2.4l31.7,47.6v-47.6C2133.8,224.9,2127.1,223.3,2121.2,223.3z"/>
				<polygon class="st53" data-0="opacity:.7" data-6000="opacity:.3" points="2063.4,124.3 2031.6,77.5 2063.4,77.5 				"/>
				<polygon class="st53" data-0="opacity:.7" data-6000="opacity:.3" points="1947.3,124.3 1915.6,77.5 1947.3,77.5 				"/>
				<polygon class="st53" data-0="opacity:.7" data-6000="opacity:.3" points="2008.7,124.3 1970.2,77.5 2008.7,77.5 				"/>
				<polygon class="st53" data-0="opacity:.7" data-6000="opacity:.3" points="2136.4,124.3 2104.6,77.5 2136.4,77.5 				"/>
				<polygon class="st53" data-0="opacity:.7" data-6000="opacity:.3" points="1873.9,124.3 1842.2,77.5 1873.9,77.5 				"/>
				<path class="st53" data-0="opacity:.7" data-6000="opacity:.3" d="M1858.1,666.5c-5.9,0-12.5,1.5-15.9,2.4l31.7,47.6v-47.6C1870.6,668,1863.9,666.5,1858.1,666.5z"/>
				<path class="st53" data-0="opacity:.7" data-6000="opacity:.3" d="M1858.5,592.5c-5.9,0-12.5,1.5-15.9,2.4l31.7,47.6v-47.6C1871,594,1864.3,592.5,1858.5,592.5z"/>
				<path class="st53" data-0="opacity:.7" data-6000="opacity:.3" d="M1858.5,518.5c-5.9,0-12.5,1.5-15.9,2.4l31.7,47.6v-47.6C1871,520,1864.3,518.5,1858.5,518.5z"/>
				<path class="st53" data-0="opacity:.7" data-6000="opacity:.3" d="M1858.1,444.5c-5.9,0-12.5,1.5-15.9,2.4l31.7,47.6v-47.6C1870.6,446,1863.9,444.5,1858.1,444.5z"/>
				<path class="st53" data-0="opacity:.7" data-6000="opacity:.3" d="M1858.5,370.5c-5.9,0-12.5,1.5-15.9,2.4l31.7,47.6v-47.6C1871,372,1864.3,370.5,1858.5,370.5z"/>
				<path class="st53" data-0="opacity:.7" data-6000="opacity:.3" d="M1858.5,297.3c-5.9,0-12.5,1.5-15.9,2.4l31.7,47.6v-47.6C1871,298.9,1864.3,297.3,1858.5,297.3z"/>
				<path class="st53" data-0="opacity:.7" data-6000="opacity:.3" d="M1858.4,223.3c-5.9,0-12.5,1.5-15.9,2.4l31.7,47.6v-47.6C1871,224.9,1864.3,223.3,1858.4,223.3z"/>
				<polygon class="st53" data-0="opacity:.7" data-6000="opacity:.3" points="2063.4,199.3 2031.6,152.5 2063.4,152.5 				"/>
				<polygon class="st53" data-0="opacity:.7" data-6000="opacity:.3" points="1947.3,199.3 1915.6,152.5 1947.3,152.5 				"/>
				<polygon class="st53" data-0="opacity:.7" data-6000="opacity:.3" points="2008.7,199.3 1970.2,152.5 2008.7,152.5 				"/>
				<polygon class="st53" data-0="opacity:.7" data-6000="opacity:.3" points="2136.4,199.3 2104.6,152.5 2136.4,152.5 				"/>
				<polygon class="st53" data-0="opacity:.7" data-6000="opacity:.3" points="1873.9,199.3 1842.2,152.5 1873.9,152.5 				"/>
			</g>
			<path class="st119" d="M1785.6,21.2V49l7.9,13v661.8h392V62l9-13V21.2H1785.6z M2104.6,76.5h31.7v46.8h-31.7V76.5z M1842.2,76.5
				h31.7v46.8h-31.7V76.5z M1842.2,151.5h31.7v46.8h-31.7V151.5z M1873.9,716.5h-31.7v-47.6c3.3-0.9,10-2.4,15.9-2.4
				c5.9,0,12.5,1.5,15.9,2.4V716.5z M1873.9,641.5h-31.7v-47.6c3.3-0.9,10-2.4,15.9-2.4c5.9,0,12.5,1.5,15.9,2.4V641.5z
				 M1873.9,567.5h-31.7v-47.6c3.3-0.9,10-2.4,15.9-2.4c5.9,0,12.5,1.5,15.9,2.4V567.5z M1873.9,493.5h-31.7v-47.6
				c3.3-0.9,10-2.4,15.9-2.4c5.9,0,12.5,1.5,15.9,2.4V493.5z M1873.9,419.5h-31.7v-47.6c3.3-0.9,10-2.4,15.9-2.4
				c5.9,0,12.5,1.5,15.9,2.4V419.5z M1873.9,346.3h-31.7v-47.6c3.3-0.9,10-2.4,15.9-2.4c5.9,0,12.5,1.5,15.9,2.4V346.3z
				 M1874.3,272.3h-31.7v-47.6c3.3-0.9,10-2.4,15.9-2.4c5.9,0,12.5,1.5,15.9,2.4V272.3z M1947.3,716.5h-31.7v-46.8h31.7V716.5z
				 M1947.3,641.5h-31.7v-46.8h31.7V641.5z M1947.3,567.5h-31.7v-46.8h31.7V567.5z M1947.3,493.5h-31.7v-46.8h31.7V493.5z
				 M1947.3,419.5h-31.7v-46.8h31.7V419.5z M1947.3,346.3h-31.7v-46.8h31.7V346.3z M1947.3,272.3h-31.7v-46.8h31.7V272.3z
				 M1947.3,198.3h-31.7v-46.8h31.7V198.3z M1947.3,123.3h-31.7V76.5h31.7V123.3z M2008.7,716.5h-38.5v-46.8h38.5V716.5z
				 M2008.7,641.5h-38.5v-46.8h38.5V641.5z M2008.7,567.5h-38.5v-46.8h38.5V567.5z M2008.7,493.5h-38.5v-46.8h38.5V493.5z
				 M2008.7,419.5h-38.5v-46.8h38.5V419.5z M2008.7,346.3h-38.5v-46.8h38.5V346.3z M2008.7,272.3h-38.5v-46.8h38.5V272.3z
				 M2008.7,198.3h-38.5v-46.8h38.5V198.3z M2008.7,123.3h-38.5V76.5h38.5V123.3z M2063.4,716.5h-31.7v-46.8h31.7V716.5z
				 M2063.4,641.5h-31.7v-46.8h31.7V641.5z M2063.4,567.5h-31.7v-46.8h31.7V567.5z M2063.4,493.5h-31.7v-46.8h31.7V493.5z
				 M2063.4,419.5h-31.7v-46.8h31.7V419.5z M2063.4,346.3h-31.7v-46.8h31.7V346.3z M2063.4,272.3h-31.7v-46.8h31.7V272.3z
				 M2063.4,198.3h-31.7v-46.8h31.7V198.3z M2063.4,123.3h-31.7V76.5h31.7V123.3z M2104.6,151.5h31.7v46.8h-31.7V151.5z
				 M2136.7,716.5H2105v-47.6c3.3-0.9,10-2.4,15.9-2.4c5.9,0,12.5,1.5,15.9,2.4V716.5z M2136.7,641.5H2105v-47.6
				c3.3-0.9,10-2.4,15.9-2.4c5.9,0,12.5,1.5,15.9,2.4V641.5z M2136.7,567.5H2105v-47.6c3.3-0.9,10-2.4,15.9-2.4
				c5.9,0,12.5,1.5,15.9,2.4V567.5z M2136.7,493.5H2105v-47.6c3.3-0.9,10-2.4,15.9-2.4c5.9,0,12.5,1.5,15.9,2.4V493.5z
				 M2136.7,419.5H2105v-47.6c3.3-0.9,10-2.4,15.9-2.4c5.9,0,12.5,1.5,15.9,2.4V419.5z M2136.7,346.3H2105v-47.6
				c3.3-0.9,10-2.4,15.9-2.4c5.9,0,12.5,1.5,15.9,2.4V346.3z M2137.1,272.3h-31.7v-47.6c3.3-0.9,10-2.4,15.9-2.4s12.5,1.5,15.9,2.4
				V272.3z"/>
			<g>
				<rect x="1913.5" y="665.4" class="st120" width="151.9" height="6.4"/>
				<rect x="1913.5" y="590.4" class="st120" width="151.9" height="6.4"/>
				<rect x="1913.5" y="516.4" class="st120" width="151.9" height="6.4"/>
				<rect x="1913.5" y="442.4" class="st120" width="151.9" height="6.4"/>
				<rect x="1913.5" y="368.4" class="st120" width="151.9" height="6.4"/>
				<rect x="1913.5" y="295.3" class="st120" width="151.9" height="6.4"/>
				<rect x="1913.5" y="221.3" class="st120" width="151.9" height="6.4"/>
			</g>
			<g>
				<path class="st121" d="M2175.5,62.2l9-14.2h-389l8,13.6v75.1l-3,2.7l3,8.7v575.1h109.2v-653h37.6v653h16.9v-653h44.5v653h16.9
					v-653h37.6v653h109.2V148l3-8.7l-3-2.7V62.2z M1842.2,76.5h31.7v46.8h-31.7V76.5z M1842.2,151.5h31.7v46.8h-31.7V151.5z
					 M1873.9,716.5h-31.7v-47.6c3.3-0.9,10-2.4,15.9-2.4c5.9,0,12.5,1.5,15.9,2.4V716.5z M1873.9,641.5h-31.7v-47.6
					c3.3-0.9,10-2.4,15.9-2.4c5.9,0,12.5,1.5,15.9,2.4V641.5z M1873.9,567.5h-31.7v-47.6c3.3-0.9,10-2.4,15.9-2.4
					c5.9,0,12.5,1.5,15.9,2.4V567.5z M1873.9,493.5h-31.7v-47.6c3.3-0.9,10-2.4,15.9-2.4c5.9,0,12.5,1.5,15.9,2.4V493.5z
					 M1873.9,419.5h-31.7v-47.6c3.3-0.9,10-2.4,15.9-2.4c5.9,0,12.5,1.5,15.9,2.4V419.5z M1873.9,346.3h-31.7v-47.6
					c3.3-0.9,10-2.4,15.9-2.4c5.9,0,12.5,1.5,15.9,2.4V346.3z M1874.3,272.3h-31.7v-47.6c3.3-0.9,10-2.4,15.9-2.4
					c5.9,0,12.5,1.5,15.9,2.4V272.3z M2104.6,76.5h31.7v46.8h-31.7V76.5z M2104.6,151.5h31.7v46.8h-31.7V151.5z M2136.7,716.5H2105
					v-47.6c3.3-0.9,10-2.4,15.9-2.4c5.9,0,12.5,1.5,15.9,2.4V716.5z M2136.7,641.5H2105v-47.6c3.3-0.9,10-2.4,15.9-2.4
					c5.9,0,12.5,1.5,15.9,2.4V641.5z M2136.7,567.5H2105v-47.6c3.3-0.9,10-2.4,15.9-2.4c5.9,0,12.5,1.5,15.9,2.4V567.5z
					 M2136.7,493.5H2105v-47.6c3.3-0.9,10-2.4,15.9-2.4c5.9,0,12.5,1.5,15.9,2.4V493.5z M2136.7,419.5H2105v-47.6
					c3.3-0.9,10-2.4,15.9-2.4c5.9,0,12.5,1.5,15.9,2.4V419.5z M2136.7,346.3H2105v-47.6c3.3-0.9,10-2.4,15.9-2.4
					c5.9,0,12.5,1.5,15.9,2.4V346.3z M2137.1,272.3h-31.7v-47.6c3.3-0.9,10-2.4,15.9-2.4s12.5,1.5,15.9,2.4V272.3z"/>
			</g>
			<g>
				<path class="st122" d="M1776,14.7v3.8h427v-3.8c-2.4,0-4.3-1.9-4.3-4.3c0-2.4,1.9-4.3,4.3-4.3V1.2c-0.9-0.2-1.8-0.2-2.7-0.2
					c-6.1,0-11.3,3.6-13.7,8.7c-0.3,0-5.7,0-5.7,0c-0.4-3.3-3.2-5.9-6.6-5.9s-6.2,2.6-6.6,5.9h-6.2c-0.4-3.3-3.2-5.9-6.6-5.9
					c-3.4,0-6.2,2.6-6.6,5.9h-6.2c-0.4-3.3-3.2-5.9-6.6-5.9c-3.4,0-6.2,2.6-6.6,5.9h-6.2c-0.4-3.3-3.2-5.9-6.6-5.9
					c-3.4,0-6.2,2.6-6.6,5.9h-6.2c-0.4-3.3-3.2-5.9-6.6-5.9c-3.4,0-6.2,2.6-6.6,5.9h-6.2c-0.4-3.3-3.2-5.9-6.6-5.9
					c-3.4,0-6.2,2.6-6.6,5.9h-6.2c-0.4-3.3-3.2-5.9-6.6-5.9c-3.4,0-6.2,2.6-6.6,5.9h-6.2c-0.4-3.3-3.2-5.9-6.6-5.9s-6.2,2.6-6.6,5.9
					h-6.2c-0.4-3.3-3.2-5.9-6.6-5.9c-3.4,0-6.2,2.6-6.6,5.9h-6.2c-0.4-3.3-3.2-5.9-6.6-5.9c-3.4,0-6.2,2.6-6.6,5.9h-6.2
					c-0.4-3.3-3.2-5.9-6.6-5.9c-3.4,0-6.2,2.6-6.6,5.9h-6.2c-0.4-3.3-3.2-5.9-6.6-5.9c-3.4,0-6.2,2.6-6.6,5.9h-6.2
					c-0.4-3.3-3.2-5.9-6.6-5.9c-3.4,0-6.2,2.6-6.6,5.9h-6.2c-0.4-3.3-3.2-5.9-6.6-5.9c-3.4,0-6.2,2.6-6.6,5.9h-6.2
					c-0.4-3.3-3.2-5.9-6.6-5.9c-3.4,0-6.2,2.6-6.6,5.9h-6.2c-0.4-3.3-3.2-5.9-6.6-5.9c-3.4,0-6.2,2.6-6.6,5.9h-6.2
					c-0.4-3.3-3.2-5.9-6.6-5.9s-6.2,2.6-6.6,5.9h-6.2c-0.4-3.3-3.2-5.9-6.6-5.9c-3.4,0-6.2,2.6-6.6,5.9h-6.2
					c-0.4-3.3-3.2-5.9-6.6-5.9c-3.4,0-6.2,2.6-6.6,5.9h-6.2c-0.4-3.3-3.2-5.9-6.6-5.9c-3.4,0-6.2,2.6-6.6,5.9c0,0-5.7,0-6.7,0.1
					c-2.4-5.2-7.7-8.8-13.8-8.8c-0.8,0-1.6,0.1-2.3,0.2V6c2.4,0,4.3,1.9,4.3,4.3C1780.4,12.8,1778.4,14.7,1776,14.7z"/>
			</g>
			<path class="st123" d="M2121.2,659.9c-0.1,0-0.6,0-0.8,0c-8.1,0-14.3,1.2-19.7,2.6l2.6,8.1c2.6-0.7,10.4-2.7,17-2.7
				c0.1,0,0.6,0,0.8,0c6.7,0,14.4,2,17,2.7l2.6-8.1C2135.5,661.1,2129.4,659.9,2121.2,659.9z"/>
			<path class="st124" d="M2124.4,668.6h-7.2l-1.6-11.5c0,0,1.9-0.8,5.1-0.8c3.7,0,5.4,0.8,5.4,0.8L2124.4,668.6z"/>
			<rect x="1791.3" y="642.6" class="st120" width="396.4" height="3.2"/>
			<g>
				<rect x="2011.7" y="641.5" class="st125" width="16.9" height="5.4"/>
				<rect x="1950.3" y="641.5" class="st125" width="16.9" height="5.4"/>
			</g>
			<rect x="2066.2" y="641.5" class="st125" width="109.2" height="5.4"/>
			<path class="st123" d="M2121.2,584.9c-0.1,0-0.6,0-0.8,0c-8.1,0-14.3,1.2-19.7,2.6l2.6,8.1c2.6-0.7,10.4-2.7,17-2.7
				c0.1,0,0.6,0,0.8,0c6.7,0,14.4,2,17,2.7l2.6-8.1C2135.5,586.1,2129.4,584.9,2121.2,584.9z"/>
			<path class="st124" d="M2124.4,593.6h-7.2l-1.6-11.5c0,0,1.9-0.8,5.1-0.8c3.7,0,5.4,0.8,5.4,0.8L2124.4,593.6z"/>
			<rect x="1791.3" y="568.6" class="st120" width="396.4" height="3.2"/>
			<rect x="2011.7" y="567.5" class="st125" width="16.9" height="5.4"/>
			<rect x="1950.3" y="567.5" class="st125" width="16.9" height="5.4"/>
			<rect x="2066.2" y="567.5" class="st125" width="109.2" height="5.4"/>
			<path class="st123" d="M2121.2,510.9c-0.1,0-0.6,0-0.8,0c-8.1,0-14.3,1.2-19.7,2.6l2.6,8.1c2.6-0.7,10.4-2.7,17-2.7
				c0.1,0,0.6,0,0.8,0c6.7,0,14.4,2,17,2.7l2.6-8.1C2135.5,512.1,2129.4,510.9,2121.2,510.9z"/>
			<path class="st124" d="M2124.4,519.6h-7.2l-1.6-11.5c0,0,1.9-0.8,5.1-0.8c3.7,0,5.4,0.8,5.4,0.8L2124.4,519.6z"/>
			<rect x="1791.3" y="494.6" class="st120" width="396.4" height="3.2"/>
			<g>
				<rect x="2011.7" y="493.5" class="st125" width="16.9" height="5.4"/>
				<rect x="1950.3" y="493.5" class="st125" width="16.9" height="5.4"/>
			</g>
			<rect x="2066.2" y="493.5" class="st125" width="109.2" height="5.4"/>
			<path class="st123" d="M2121.2,436.9c-0.1,0-0.6,0-0.8,0c-8.1,0-14.3,1.2-19.7,2.6l2.6,8.1c2.6-0.7,10.4-2.7,17-2.7
				c0.1,0,0.6,0,0.8,0c6.7,0,14.4,2,17,2.7l2.6-8.1C2135.5,438.1,2129.4,436.9,2121.2,436.9z"/>
			<path class="st124" d="M2124.4,445.6h-7.2l-1.6-11.5c0,0,1.9-0.8,5.1-0.8c3.7,0,5.4,0.8,5.4,0.8L2124.4,445.6z"/>
			<rect x="1791.3" y="420.6" class="st120" width="396.4" height="3.2"/>
			<g>
				<rect x="2011.7" y="419.5" class="st125" width="16.9" height="5.4"/>
				<rect x="1950.3" y="419.5" class="st125" width="16.9" height="5.4"/>
			</g>
			<rect x="2066.2" y="419.5" class="st125" width="109.2" height="5.4"/>
			<path class="st123" d="M2121.2,362.9c-0.1,0-0.6,0-0.8,0c-8.1,0-14.3,1.2-19.7,2.6l2.6,8.1c2.6-0.7,10.4-2.7,17-2.7
				c0.1,0,0.6,0,0.8,0c6.7,0,14.4,2,17,2.7l2.6-8.1C2135.5,364.1,2129.4,362.9,2121.2,362.9z"/>
			<path class="st124" d="M2124.4,371.6h-7.2l-1.6-11.5c0,0,1.9-0.8,5.1-0.8c3.7,0,5.4,0.8,5.4,0.8L2124.4,371.6z"/>
			<rect x="1791.3" y="347.4" class="st120" width="396.4" height="3.2"/>
			<g>
				<rect x="2011.7" y="346.3" class="st125" width="16.9" height="5.4"/>
				<rect x="1950.3" y="346.3" class="st125" width="16.9" height="5.4"/>
			</g>
			<rect x="2066.2" y="346.3" class="st125" width="109.2" height="5.4"/>
			<path class="st123" d="M2121.2,289.7c-0.1,0-0.6,0-0.8,0c-8.1,0-14.3,1.2-19.7,2.6l2.6,8.1c2.6-0.7,10.4-2.7,17-2.7
				c0.1,0,0.6,0,0.8,0c6.7,0,14.4,2,17,2.7l2.6-8.1C2135.5,291,2129.4,289.7,2121.2,289.7z"/>
			<path class="st124" d="M2124.4,298.5h-7.2l-1.6-11.5c0,0,1.9-0.8,5.1-0.8c3.7,0,5.4,0.8,5.4,0.8L2124.4,298.5z"/>
			<rect x="1791.3" y="273.4" class="st120" width="396.4" height="3.2"/>
			<g>
				<rect x="2011.7" y="272.3" class="st125" width="16.9" height="5.4"/>
				<rect x="1950.3" y="272.3" class="st125" width="16.9" height="5.4"/>
			</g>
			<rect x="2066.2" y="272.3" class="st125" width="109.2" height="5.4"/>
			<path class="st123" d="M2121.2,215.7c-0.1,0-0.6,0-0.8,0c-8.1,0-14.3,1.2-19.7,2.6l2.6,8.1c2.6-0.7,10.4-2.7,17-2.7
				c0.1,0,0.6,0,0.8,0c6.7,0,14.4,2,17,2.7l2.6-8.1C2135.5,217,2129.4,215.7,2121.2,215.7z"/>
			<path class="st124" d="M2124.4,224.5h-7.2l-1.6-11.5c0,0,1.9-0.8,5.1-0.8c3.7,0,5.4,0.8,5.4,0.8L2124.4,224.5z"/>
			<rect x="1791.3" y="199.4" class="st120" width="396.4" height="3.2"/>
			<g>
				<rect x="2011.7" y="198.3" class="st125" width="16.9" height="5.4"/>
				<rect x="1950.3" y="198.3" class="st125" width="16.9" height="5.4"/>
			</g>
			<rect x="2066.2" y="198.3" class="st125" width="109.2" height="5.4"/>
			<rect x="2066.2" y="123.3" class="st125" width="109.2" height="5.4"/>
			<rect x="1791.3" y="124.4" class="st126" width="396.4" height="3.2"/>
			<rect x="2066.2" y="123.3" class="st125" width="109.2" height="5.4"/>
			<polygon class="st127" points="1769.1,22 1776.2,25.1 2202.9,25.1 2210,22 			"/>
			<rect x="1776.2" y="25.1" class="st128" width="426.7" height="5.2"/>
			<rect x="1769.1" y="16.9" class="st122" width="440.9" height="5.1"/>
			<polygon class="st129" points="1777.5,45.5 1784.5,49.8 2194.5,49.8 2201.5,45.5 			"/>
			<polygon class="st129" points="1789.8,45.5 1796.4,50.8 2182.7,50.8 2189.3,45.5 			"/>
			<rect x="1776.1" y="35.7" class="st125" width="426.9" height="5.4"/>
			<rect x="1777.4" y="41.6" class="st130" width="424.1" height="3.5"/>
			<rect x="1789.6" y="41.4" class="st67" width="399.6" height="4.8"/>
			<polygon class="st129" points="1786.1,70.1 1792.7,73.2 2186.4,73.2 2193,70.1 			"/>
			<polygon class="st129" points="1797.6,70.1 1803.8,74.2 2175.3,74.2 2181.5,70.1 			"/>
			<rect x="1784.7" y="60.8" class="st125" width="409.6" height="5.1"/>
			<rect x="1786" y="66.4" class="st130" width="407" height="3.3"/>
			<rect x="1797.4" y="66.3" class="st67" width="384" height="4.5"/>
			<path class="st123" d="M1858.4,659.9c-0.1,0-0.6,0-0.8,0c-8.1,0-14.3,1.2-19.7,2.6l2.6,8.1c2.6-0.7,10.4-2.7,17-2.7
				c0.1,0,0.6,0,0.8,0c6.7,0,14.4,2,17,2.7l2.6-8.1C1872.7,661.1,1866.6,659.9,1858.4,659.9z"/>
			<path class="st124" d="M1861.6,668.6h-7.2l-1.6-11.5c0,0,1.9-0.8,5.1-0.8c3.7,0,5.4,0.8,5.4,0.8L1861.6,668.6z"/>
			<rect x="1803.4" y="641.5" class="st125" width="109.2" height="5.4"/>
			<rect x="1791.3" y="717.8" class="st131" width="396.4" height="3.2"/>
			<rect x="1803.4" y="716.7" class="st132" width="372" height="5.4"/>
			<path class="st123" d="M1858.4,584.9c-0.1,0-0.6,0-0.8,0c-8.1,0-14.3,1.2-19.7,2.6l2.6,8.1c2.6-0.7,10.4-2.7,17-2.7
				c0.1,0,0.6,0,0.8,0c6.7,0,14.4,2,17,2.7l2.6-8.1C1872.7,586.1,1866.6,584.9,1858.4,584.9z"/>
			<path class="st124" d="M1861.6,593.6h-7.2l-1.6-11.5c0,0,1.9-0.8,5.1-0.8c3.7,0,5.4,0.8,5.4,0.8L1861.6,593.6z"/>
			<rect x="1803.4" y="567.5" class="st125" width="109.2" height="5.4"/>
			<path class="st123" d="M1858.4,510.9c-0.1,0-0.6,0-0.8,0c-8.1,0-14.3,1.2-19.7,2.6l2.6,8.1c2.6-0.7,10.4-2.7,17-2.7
				c0.1,0,0.6,0,0.8,0c6.7,0,14.4,2,17,2.7l2.6-8.1C1872.7,512.1,1866.6,510.9,1858.4,510.9z"/>
			<path class="st124" d="M1861.6,519.6h-7.2l-1.6-11.5c0,0,1.9-0.8,5.1-0.8c3.7,0,5.4,0.8,5.4,0.8L1861.6,519.6z"/>
			<rect x="1803.4" y="493.5" class="st125" width="109.2" height="5.4"/>
			<path class="st123" d="M1858.4,436.9c-0.1,0-0.6,0-0.8,0c-8.1,0-14.3,1.2-19.7,2.6l2.6,8.1c2.6-0.7,10.4-2.7,17-2.7
				c0.1,0,0.6,0,0.8,0c6.7,0,14.4,2,17,2.7l2.6-8.1C1872.7,438.1,1866.6,436.9,1858.4,436.9z"/>
			<path class="st124" d="M1861.6,445.6h-7.2l-1.6-11.5c0,0,1.9-0.8,5.1-0.8c3.7,0,5.4,0.8,5.4,0.8L1861.6,445.6z"/>
			<rect x="1803.4" y="419.5" class="st125" width="109.2" height="5.4"/>
			<path class="st123" d="M1858.4,362.9c-0.1,0-0.6,0-0.8,0c-8.1,0-14.3,1.2-19.7,2.6l2.6,8.1c2.6-0.7,10.4-2.7,17-2.7
				c0.1,0,0.6,0,0.8,0c6.7,0,14.4,2,17,2.7l2.6-8.1C1872.7,364.1,1866.6,362.9,1858.4,362.9z"/>
			<path class="st124" d="M1861.6,371.6h-7.2l-1.6-11.5c0,0,1.9-0.8,5.1-0.8c3.7,0,5.4,0.8,5.4,0.8L1861.6,371.6z"/>
			<rect x="1803.4" y="346.3" class="st125" width="109.2" height="5.4"/>
			<path class="st123" d="M1858.4,289.7c-0.1,0-0.6,0-0.8,0c-8.1,0-14.3,1.2-19.7,2.6l2.6,8.1c2.6-0.7,10.4-2.7,17-2.7
				c0.1,0,0.6,0,0.8,0c6.7,0,14.4,2,17,2.7l2.6-8.1C1872.7,291,1866.6,289.7,1858.4,289.7z"/>
			<path class="st124" d="M1861.6,298.5h-7.2l-1.6-11.5c0,0,1.9-0.8,5.1-0.8c3.7,0,5.4,0.8,5.4,0.8L1861.6,298.5z"/>
			<rect x="1803.4" y="272.3" class="st125" width="109.2" height="5.4"/>
			<path class="st123" d="M1858.4,215.7c-0.1,0-0.6,0-0.8,0c-8.1,0-14.3,1.2-19.7,2.6l2.6,8.1c2.6-0.7,10.4-2.7,17-2.7
				c0.1,0,0.6,0,0.8,0c6.7,0,14.4,2,17,2.7l2.6-8.1C1872.7,217,1866.6,215.7,1858.4,215.7z"/>
			<path class="st124" d="M1861.6,224.5h-7.2l-1.6-11.5c0,0,1.9-0.8,5.1-0.8c3.7,0,5.4,0.8,5.4,0.8L1861.6,224.5z"/>
			<rect x="1803.4" y="198.3" class="st125" width="109.2" height="5.4"/>
			<rect x="1803.4" y="123.3" class="st125" width="109.2" height="5.4"/>
			<rect x="1803.4" y="123.3" class="st125" width="109.2" height="5.4"/>
			<g>
				<rect x="2011.7" y="123.3" class="st125" width="16.9" height="5.4"/>
				<rect x="1950.3" y="123.3" class="st125" width="16.9" height="5.4"/>
			</g>
			<rect x="1791.3" y="147.4" class="st120" width="396.4" height="3.2"/>
			<polygon class="st129" points="1786.1,136.5 1792.8,138.8 2186.3,138.8 2192.9,136.5 			"/>
			<polygon class="st129" points="1794.9,136.5 1801.2,139.8 2177.9,139.8 2184.1,136.5 			"/>
			<rect x="1784.7" y="126.7" class="st125" width="409.6" height="5.4"/>
			<rect x="1786" y="132.6" class="st130" width="406.9" height="3.5"/>
			<rect x="1794.8" y="132.4" class="st67" width="389.4" height="4.8"/>
			<g>
				<rect x="2011.7" y="146.3" class="st125" width="16.9" height="5.4"/>
				<rect x="1950.3" y="146.3" class="st125" width="16.9" height="5.4"/>
			</g>
			<rect x="2066.2" y="146.3" class="st125" width="109.2" height="5.4"/>
			<rect x="1803.4" y="146.3" class="st125" width="109.2" height="5.4"/>
			<rect x="1784.4" y="721.9" class="st133" width="410.1" height="9.5"/>
			<polygon class="st134" points="2194.5,731 1784.4,731.9 1787.5,735.2 2191.5,735.2 			"/>
			<g>
				<circle class="st135" cx="2172.4" cy="748.6" r="7.5"/>
				<circle class="st107" cx="2172.4" cy="748.6" r="6"/>
				<circle class="st136" cx="2172.4" cy="748.6" r="4.5"/>
			</g>
			<g>
				<circle class="st135" cx="1806.4" cy="748.6" r="7.5"/>
				<circle class="st107" cx="1806.4" cy="748.6" r="6"/>
				<circle class="st136" cx="1806.4" cy="748.6" r="4.5"/>
			</g>
			<line class="st137" x1="1783.4" y1="721" x2="2195.5" y2="721"/>
			<line class="st137" x1="1785.4" y1="730" x2="2193.5" y2="730"/>
			<g>
				<polygon class="st135" points="1959.2,756.8 1955.8,756.8 1956.3,751.6 1958.7,751.6 				"/>
				<polygon class="st135" points="1964.2,756.8 1960.8,756.8 1961.3,751.6 1963.7,751.6 				"/>
				<polygon class="st135" points="1954.2,756.8 1950.8,756.8 1951.3,751.6 1953.7,751.6 				"/>
			</g>
			<g>
				<polygon class="st135" points="2023.2,756.8 2019.8,756.8 2020.3,751.6 2022.7,751.6 				"/>
				<polygon class="st135" points="2028.2,756.8 2024.8,756.8 2025.3,751.6 2027.7,751.6 				"/>
				<polygon class="st135" points="2018.2,756.8 2014.8,756.8 2015.3,751.6 2017.7,751.6 				"/>
			</g>
			<g>
				<rect x="1948.5" y="731.4" class="st138" width="82" height="3.2"/>
				<polygon class="st138" points="1950.2,736.1 1950.2,753.2 1964.8,753.2 1964.8,751 2014.2,751 2014.2,753.2 2028.7,753.2 
					2028.7,736.1 				"/>
				<polygon class="st139" points="1952.8,739.3 1952.8,750.1 1962.9,750.1 1962.9,747.9 2016.1,747.9 2016.1,750.1 2026.2,750.1 
					2026.2,739.3 				"/>
				<polygon class="st134" points="2030.5,734.6 1948.5,734.6 1950.1,736.6 2028.8,736.6 				"/>
			</g>
			<g>
				<g>
					<polyline class="st140" points="2163.7,812 2163.7,811.5 2163.2,811.5 					"/>
					<line class="st141" x1="2161.2" y1="811.5" x2="1817" y2="811.5"/>
					<polyline class="st140" points="1816,811.5 1815.5,811.5 1815.5,812 					"/>
					<line class="st142" x1="1815.5" y1="813.9" x2="1815.5" y2="815.9"/>
					<polyline class="st140" points="1815.5,816.8 1815.5,817.3 1816,817.3 					"/>
					<line class="st141" x1="1818" y1="817.3" x2="2162.2" y2="817.3"/>
					<polyline class="st140" points="2163.2,817.3 2163.7,817.3 2163.7,816.8 					"/>
					<line class="st142" x1="2163.7" y1="814.9" x2="2163.7" y2="813"/>
				</g>
			</g>
			<g>
				<g>
					<polyline class="st143" points="1859.2,801.8 1859.2,802.3 1858.7,802.3 					"/>
					<line class="st144" x1="1857.5" y1="802.3" x2="1856.4" y2="802.3"/>
					<polyline class="st143" points="1855.8,802.3 1855.3,802.3 1855.3,801.8 					"/>
					<line class="st145" x1="1855.3" y1="799.8" x2="1855.3" y2="758.8"/>
					<polyline class="st143" points="1855.3,757.8 1855.3,757.3 1855.8,757.3 					"/>
					<line class="st144" x1="1856.9" y1="757.3" x2="1858.1" y2="757.3"/>
					<polyline class="st143" points="1858.7,757.3 1859.2,757.3 1859.2,757.8 					"/>
					<line class="st145" x1="1859.2" y1="759.8" x2="1859.2" y2="800.8"/>
				</g>
			</g>
			<g>
				<g>
					<polyline class="st143" points="1907.2,801.8 1907.2,802.3 1906.7,802.3 					"/>
					<line class="st144" x1="1905.5" y1="802.3" x2="1904.4" y2="802.3"/>
					<polyline class="st143" points="1903.8,802.3 1903.3,802.3 1903.3,801.8 					"/>
					<line class="st145" x1="1903.3" y1="799.8" x2="1903.3" y2="758.8"/>
					<polyline class="st143" points="1903.3,757.8 1903.3,757.3 1903.8,757.3 					"/>
					<line class="st144" x1="1904.9" y1="757.3" x2="1906.1" y2="757.3"/>
					<polyline class="st143" points="1906.7,757.3 1907.2,757.3 1907.2,757.8 					"/>
					<line class="st145" x1="1907.2" y1="759.8" x2="1907.2" y2="800.8"/>
				</g>
			</g>
			<g>
				<g>
					<polyline class="st143" points="1955.7,801.8 1955.7,802.3 1955.2,802.3 					"/>
					<line class="st144" x1="1954" y1="802.3" x2="1952.9" y2="802.3"/>
					<polyline class="st143" points="1952.3,802.3 1951.8,802.3 1951.8,801.8 					"/>
					<line class="st145" x1="1951.8" y1="799.8" x2="1951.8" y2="758.8"/>
					<polyline class="st143" points="1951.8,757.8 1951.8,757.3 1952.3,757.3 					"/>
					<line class="st144" x1="1953.4" y1="757.3" x2="1954.6" y2="757.3"/>
					<polyline class="st143" points="1955.2,757.3 1955.7,757.3 1955.7,757.8 					"/>
					<line class="st145" x1="1955.7" y1="759.8" x2="1955.7" y2="800.8"/>
				</g>
			</g>
			<g>
				<g>
					<polyline class="st143" points="1991.4,801.8 1991.4,802.3 1990.9,802.3 					"/>
					<line class="st144" x1="1989.7" y1="802.3" x2="1988.6" y2="802.3"/>
					<polyline class="st143" points="1988,802.3 1987.5,802.3 1987.5,801.8 					"/>
					<line class="st145" x1="1987.5" y1="799.8" x2="1987.5" y2="758.8"/>
					<polyline class="st143" points="1987.5,757.8 1987.5,757.3 1988,757.3 					"/>
					<line class="st144" x1="1989.1" y1="757.3" x2="1990.3" y2="757.3"/>
					<polyline class="st143" points="1990.9,757.3 1991.4,757.3 1991.4,757.8 					"/>
					<line class="st145" x1="1991.4" y1="759.8" x2="1991.4" y2="800.8"/>
				</g>
			</g>
			<g>
				<g>
					<polyline class="st143" points="2027.2,801.8 2027.2,802.3 2026.7,802.3 					"/>
					<line class="st144" x1="2025.5" y1="802.3" x2="2024.4" y2="802.3"/>
					<polyline class="st143" points="2023.8,802.3 2023.3,802.3 2023.3,801.8 					"/>
					<line class="st145" x1="2023.3" y1="799.8" x2="2023.3" y2="758.8"/>
					<polyline class="st143" points="2023.3,757.8 2023.3,757.3 2023.8,757.3 					"/>
					<line class="st144" x1="2024.9" y1="757.3" x2="2026.1" y2="757.3"/>
					<polyline class="st143" points="2026.7,757.3 2027.2,757.3 2027.2,757.8 					"/>
					<line class="st145" x1="2027.2" y1="759.8" x2="2027.2" y2="800.8"/>
				</g>
			</g>
			<g>
				<g>
					<polyline class="st143" points="2075.7,801.8 2075.7,802.3 2075.2,802.3 					"/>
					<line class="st144" x1="2074" y1="802.3" x2="2072.9" y2="802.3"/>
					<polyline class="st143" points="2072.3,802.3 2071.8,802.3 2071.8,801.8 					"/>
					<line class="st145" x1="2071.8" y1="799.8" x2="2071.8" y2="758.8"/>
					<polyline class="st143" points="2071.8,757.8 2071.8,757.3 2072.3,757.3 					"/>
					<line class="st144" x1="2073.4" y1="757.3" x2="2074.6" y2="757.3"/>
					<polyline class="st143" points="2075.2,757.3 2075.7,757.3 2075.7,757.8 					"/>
					<line class="st145" x1="2075.7" y1="759.8" x2="2075.7" y2="800.8"/>
				</g>
			</g>
			<g>
				<g>
					<polyline class="st143" points="2123.9,801.8 2123.9,802.3 2123.4,802.3 					"/>
					<line class="st144" x1="2122.2" y1="802.3" x2="2121.1" y2="802.3"/>
					<polyline class="st143" points="2120.5,802.3 2120,802.3 2120,801.8 					"/>
					<line class="st145" x1="2120" y1="799.8" x2="2120" y2="758.8"/>
					<polyline class="st143" points="2120,757.8 2120,757.3 2120.5,757.3 					"/>
					<line class="st144" x1="2121.6" y1="757.3" x2="2122.8" y2="757.3"/>
					<polyline class="st143" points="2123.4,757.3 2123.9,757.3 2123.9,757.8 					"/>
					<line class="st145" x1="2123.9" y1="759.8" x2="2123.9" y2="800.8"/>
				</g>
			</g>
			<rect x="1895.9" y="888.6" class="st102" width="19.7" height="6.3"/>
			<rect x="1856.3" y="841.4" class="st101" width="4.5" height="57"/>
			<rect x="1928" y="888.6" class="st102" width="19.7" height="6.3"/>
			<rect x="1864.1" y="888.6" class="st102" width="19.7" height="6.3"/>
			<g>
				<g>
					<g>
						<rect x="1830.5" y="880" class="st146" width="0" height="0"/>
						<rect x="1830.5" y="880" class="st146" width="0" height="0"/>
						<rect x="1830.5" y="880" class="st146" width="0" height="0"/>
					</g>
					<g>
						<rect x="1830.5" y="880" class="st147" width="0" height="0"/>
						<rect x="1830.5" y="880" class="st147" width="0" height="0"/>
						<rect x="1830.5" y="880" class="st147" width="0" height="0"/>
					</g>
					<g>
						<rect x="1830.5" y="880" class="st148" width="0" height="0"/>
						<rect x="1830.5" y="880" class="st148" width="0" height="0"/>
						<rect x="1830.5" y="880" class="st148" width="0" height="0"/>
					</g>
				</g>
			</g>
			<path class="st149" d="M1952.8,835.4v63.9l9.1-2.7v-63.2L1952.8,835.4z M1959.6,883.3l-4.3,1.1v-40.1l4.3-0.8V883.3z"/>
			<g>
				<g class="st55">
					<polygon points="1856.3,861.8 1846.8,858.8 1856.3,898.7 					"/>
				</g>
				<path class="st101" d="M1847.3,859.8l8.8,2.5v36.2l-8.8-2.7V859.8z M1843.3,854.4v51.5l16.8,4.9v-51.5l-16.8-5.1V854.4z"/>
				<polygon class="st150" points="1844.4,905 1858.8,909.3 1858.8,903.6 1844.4,899.1 				"/>
				<line class="st151" x1="1860.9" y1="910.7" x2="1861" y2="858.6"/>
				<polygon class="st150" points="1857,880.6 1859.1,881.3 1859.1,891.5 1857,890.9 				"/>
			</g>
			<rect x="1806.7" y="829.7" class="st152" width="146.1" height="10.8"/>
			<g>
				<g>
					<rect x="1820.5" y="836.6" width="51.8" height="13.9"/>
					<g>
						<line class="st153" x1="1872.3" y1="850.5" x2="1872.3" y2="850.5"/>
						<line class="st154" x1="1868.3" y1="850.5" x2="1822.5" y2="850.5"/>
						<line class="st153" x1="1820.5" y1="850.5" x2="1820.5" y2="850.5"/>
						<line class="st155" x1="1820.5" y1="847.1" x2="1820.5" y2="838.4"/>
						<line class="st153" x1="1820.5" y1="836.6" x2="1820.5" y2="836.6"/>
						<line class="st154" x1="1824.5" y1="836.6" x2="1870.3" y2="836.6"/>
						<line class="st153" x1="1872.3" y1="836.6" x2="1872.3" y2="836.6"/>
						<line class="st155" x1="1872.3" y1="840.1" x2="1872.3" y2="848.8"/>
					</g>
				</g>
				<g>
					<rect x="1830.2" y="841.1" transform="matrix(0.7071 -0.7071 0.7071 0.7071 -59.6808 1542.8987)" width="4.8" height="4.8"/>
					<g>
						<line class="st156" x1="1836" y1="843.5" x2="1836" y2="843.5"/>
						<line class="st157" x1="1834.3" y1="845.2" x2="1833.5" y2="846"/>
						<line class="st156" x1="1832.6" y1="846.9" x2="1832.6" y2="846.9"/>
						<line class="st157" x1="1830.9" y1="845.2" x2="1830" y2="844.3"/>
						<line class="st156" x1="1829.2" y1="843.5" x2="1829.2" y2="843.5"/>
						<line class="st157" x1="1830.9" y1="841.8" x2="1831.8" y2="840.9"/>
						<line class="st156" x1="1832.6" y1="840.1" x2="1832.6" y2="840.1"/>
						<line class="st157" x1="1834.3" y1="841.8" x2="1835.2" y2="842.6"/>
					</g>
				</g>
				<g>
					<rect x="1856.2" y="841.1" transform="matrix(0.7071 -0.7071 0.7071 0.7071 -52.0656 1561.2834)" width="4.8" height="4.8"/>
					<g>
						<line class="st156" x1="1862" y1="843.5" x2="1862" y2="843.5"/>
						<line class="st157" x1="1860.3" y1="845.2" x2="1859.5" y2="846"/>
						<line class="st156" x1="1858.6" y1="846.9" x2="1858.6" y2="846.9"/>
						<line class="st157" x1="1856.9" y1="845.2" x2="1856" y2="844.3"/>
						<line class="st156" x1="1855.2" y1="843.5" x2="1855.2" y2="843.5"/>
						<line class="st157" x1="1856.9" y1="841.8" x2="1857.8" y2="840.9"/>
						<line class="st156" x1="1858.6" y1="840.1" x2="1858.6" y2="840.1"/>
						<line class="st157" x1="1860.3" y1="841.8" x2="1861.2" y2="842.6"/>
					</g>
				</g>
			</g>
			<polygon class="st158" points="1961.6,839 1952.9,840.6 1952.9,831.8 1961.6,830.3 			"/>
			<polygon class="st159" points="2180,828.9 1798.9,828.9 1818.6,832.9 2173.3,832.9 			"/>
			<rect x="1798.9" y="821.3" class="st138" width="381.1" height="7.4"/>
			<line class="st137" x1="1797.9" y1="820.3" x2="2181" y2="820.3"/>
			<line class="st160" x1="1797.9" y1="828.3" x2="2181" y2="828.3"/>
			<line class="st151" x1="1861" y1="858.7" x2="1843.6" y2="853.5"/>
			<polygon class="st161" points="1959.6,893.4 1955.3,894.7 1955.3,888.1 1959.6,887 			"/>
			<rect x="2026.1" y="832.7" class="st162" width="140.3" height="15.1"/>
			<g>
				<rect x="1962.5" y="834.2" class="st163" width="54.8" height="18.2"/>
				<path class="st164" d="M2016.3,835.2v16.2h-52.8v-16.2H2016.3 M2018.3,833.2h-56.8v20.2h56.8V833.2L2018.3,833.2z"/>
			</g>
			<g>
				<path class="st165" d="M1982.1,838.6L1982.1,838.6l-2.2,1.2l-0.3-1.2l2.7-1.6h1.3v13h-1.5V838.6z"/>
				<path class="st165" d="M1993.6,843.6c0,4.7-1.5,6.7-3.4,6.7c-2,0-3.2-2.4-3.2-6.6c0-4.4,1.3-6.7,3.4-6.7
					C1992.5,836.9,1993.6,839.4,1993.6,843.6z M1988.5,843.6c0,3.1,0.5,5.3,1.8,5.3c1.2,0,1.7-2.2,1.7-5.3c0-3-0.5-5.3-1.7-5.3
					S1988.5,840.5,1988.5,843.6z"/>
				<path class="st165" d="M1998.3,838.6L1998.3,838.6l-2.2,1.2l-0.3-1.2l2.7-1.6h1.3v13h-1.5V838.6z"/>
			</g>
		</g>
		<g id="mailBox02">
			<path class="st166" d="M2018.6,895.6v39.1h1.8v-9.1c0-0.8,11.9-0.8,11.9,0v9.1h1.8v-39.1C2034.1,895,2018.6,895,2018.6,895.6z"/>
			<path class="st166" d="M2038.6,895.6v39.1h1.8v-9.1c0-0.8,11.9-0.8,11.9,0v9.1h1.8v-39.1C2054.1,895,2038.6,895,2038.6,895.6z"/>
			<path class="st167" d="M2096,900.6c-0.7-4.9-5-8.6-10.1-8.6c-5.2,0-9.5,3.8-10.1,8.6c-0.1,0-0.1,34.2-0.1,34.2h1.8v-7.1
				c0-0.8,16.9-0.8,16.9,0v7.1h1.8C2096.1,934.8,2096.1,900.6,2096,900.6z"/>
		</g>
		<g id="post17">
			<path class="st53" data-0="opacity:.7" data-6000="opacity:.3" d="M622.3,782.1l9.6,9.6c0.7-1.7,1.2-3.6,1.2-5.3c0-2.9-0.8-4-2.5-5.1c0.3-0.6,0.5-1.4,0.1-1.5
				c-1-0.4-2.9-2.3-3.6-2.3l0,0l0,0c-0.7,0-2.6,1.9-3.6,2.3c-0.4,0.2-0.2,0.9,0.1,1.5C623,781.5,622.7,781.8,622.3,782.1z"/>
			<path class="st53" data-0="opacity:.7" data-6000="opacity:.3" d="M642.6,782.1l9.6,9.6c0.7-1.7,1.2-3.6,1.2-5.3c0-2.9-0.8-4-2.5-5.1c0.3-0.6,0.5-1.4,0.1-1.5
				c-1-0.4-2.9-2.3-3.6-2.3l0,0l0,0c-0.7,0-2.6,1.9-3.6,2.3c-0.4,0.2-0.2,0.9,0.1,1.5C643.3,781.5,642.9,781.8,642.6,782.1z"/>
			<path class="st82" d="M641.9,926.7c0-1.8,2.4-2.4,1.9-3c-0.8-0.8-3,0.2-4.1-5.3l-1-104.9h-3l-1,104.9c-1.1,5.5-3.2,4.5-4.1,5.3
				c-0.6,0.6,1.9,1.2,1.9,3c0,1.5-3.8,1.7-4,5.6c-0.1,2.5,3.1,2.8,8.7,2.8c5.6,0,8.8-0.3,8.7-2.8
				C645.7,928.3,641.9,928.2,641.9,926.7z"/>
			<rect x="627.3" y="809.7" class="st83" width="19.6" height="7.5"/>
			<path class="st84" d="M650.8,781.2c0.3-0.6,0.5-1.4,0.1-1.5c-1-0.4-2.9-2.3-3.6-2.3l0,0l0,0c-0.7,0-2.6,1.9-3.6,2.3
				c-0.4,0.2-0.2,0.9,0.1,1.5c-1.8,1.1-2.5,2.2-2.5,5.1c0,4.3,2.7,9.9,6.1,9.9s6.1-5.5,6.1-9.9C653.3,783.5,652.6,782.3,650.8,781.2
				z"/>
			<path class="st84" d="M630.5,781.2c0.3-0.6,0.5-1.4,0.1-1.5c-1-0.4-2.9-2.3-3.6-2.3l0,0l0,0c-0.7,0-2.6,1.9-3.6,2.3
				c-0.4,0.2-0.2,0.9,0.1,1.5c-1.8,1.1-2.5,2.2-2.5,5.1c0,4.3,2.7,9.9,6.1,9.9s6.1-5.5,6.1-9.9C633.1,783.5,632.3,782.3,630.5,781.2
				z"/>
			<g>
				<path class="st82" d="M647.3,778.3c1.2,0,2.7-0.1,1.8-0.7c-0.5-0.3-0.7-1.3-1.3-1.2c0,0,0,0,0,0c0.1-0.2,0.3-1.8-0.4-2
					c-0.7,0.2-0.5,1.8-0.4,2c0,0,0,0,0,0c-0.6-0.1-0.8,0.8-1.3,1.2C644.6,778.2,646.1,778.3,647.3,778.3z"/>
				<path class="st82" d="M627,778.3c1.2,0,2.7-0.1,1.8-0.7c-0.5-0.3-0.7-1.3-1.3-1.2c0,0,0,0,0,0c0.1-0.2,0.3-1.8-0.4-2
					c-0.7,0.2-0.5,1.8-0.4,2c0,0,0,0,0,0c-0.6-0.1-0.8,0.8-1.3,1.2C624.3,778.2,625.8,778.3,627,778.3z"/>
				<path class="st85" d="M650.1,811.2c-0.1-1.5,2.4-3.1,1.2-3.2h-2.4c0.2-3.8,0.8-7.1,1.8-7.5c0.2-0.1-1.5-0.7-1.5-0.7
					c0-0.5,0.5-3.2,2.2-3.8c1-0.4-1.8-1.9-4.1-1.9s-5,1.5-4.1,1.9c1.7,0.6,2.2,3.3,2.2,3.8c0,0-1.7,0.6-1.5,0.7
					c1,0.4,1.6,3.7,1.8,7.5H639c0,0,0.7-1.3,0.7-1.5c0-0.5-1.4-0.4-2.1-1.3c1.8-1.5,0.1-3.9-0.5-3.9s-2.3,2.4-0.5,3.9
					c-0.7,0.9-2.1,0.8-2.1,1.3c0,0.2,0.7,1.5,0.7,1.5h-6.7c0.2-3.8,0.8-7.1,1.8-7.5c0.2-0.1-1.5-0.7-1.5-0.7c0-0.5,0.5-3.2,2.2-3.8
					c1-0.4-1.8-1.9-4.1-1.9s-5,1.5-4.1,1.9c1.7,0.6,2.2,3.3,2.2,3.8c0,0-1.7,0.6-1.5,0.7c1,0.4,1.6,3.7,1.8,7.5H623
					c-1.3,0.1,1.2,1.7,1.2,3.2h1.3c0.1,4.9-0.4,9.7-1.1,9.5c-0.5-0.1,1,0.4,1.8,1c-1,0.4-0.6,3.5,0.9,3.5c1.4,0,1.9-3.1,0.9-3.5
					c0.8-0.5,2.2-1.1,1.8-1c-0.8,0.2-1.2-4.6-1.1-9.5h8.7h8.7c0.1,4.9-0.4,9.7-1.1,9.5c-0.5-0.1,1,0.4,1.8,1c-1,0.4-0.6,3.5,0.9,3.5
					c1.4,0,1.9-3.1,0.9-3.5c0.8-0.5,2.2-1.1,1.8-1c-0.8,0.2-1.2-4.6-1.1-9.5H650.1z"/>
			</g>
		</g>
		<g id="post18">
			<path class="st53" data-0="opacity:.7" data-6000="opacity:.3" d="M151.4,782.1l9.6,9.6c0.7-1.7,1.2-3.6,1.2-5.3c0-2.9-0.8-4-2.5-5.1c0.3-0.6,0.5-1.4,0.1-1.5
				c-1-0.4-2.9-2.3-3.6-2.3l0,0l0,0c-0.7,0-2.6,1.9-3.6,2.3c-0.4,0.2-0.2,0.9,0.1,1.5C152.1,781.5,151.7,781.8,151.4,782.1z"/>
			<path class="st53" data-0="opacity:.7" data-6000="opacity:.3" d="M171.7,782.1l9.6,9.6c0.7-1.7,1.2-3.6,1.2-5.3c0-2.9-0.8-4-2.5-5.1c0.3-0.6,0.5-1.4,0.1-1.5
				c-1-0.4-2.9-2.3-3.6-2.3l0,0l0,0c-0.7,0-2.6,1.9-3.6,2.3c-0.4,0.2-0.2,0.9,0.1,1.5C172.4,781.5,172,781.8,171.7,782.1z"/>
			<path class="st82" d="M170.9,926.7c0-1.8,2.4-2.4,1.9-3c-0.8-0.8-3,0.2-4.1-5.3l-1-104.9h-3l-1,104.9c-1.1,5.5-3.2,4.5-4.1,5.3
				c-0.6,0.6,1.9,1.2,1.9,3c0,1.5-3.8,1.7-4,5.6c-0.1,2.5,3.1,2.8,8.7,2.8c5.6,0,8.8-0.3,8.7-2.8
				C174.7,928.3,170.9,928.2,170.9,926.7z"/>
			<rect x="156.4" y="809.7" class="st83" width="19.6" height="7.5"/>
			<path class="st84" d="M179.8,781.2c0.3-0.6,0.5-1.4,0.1-1.5c-1-0.4-2.9-2.3-3.6-2.3l0,0l0,0c-0.7,0-2.6,1.9-3.6,2.3
				c-0.4,0.2-0.2,0.9,0.1,1.5c-1.8,1.1-2.5,2.2-2.5,5.1c0,4.3,2.7,9.9,6.1,9.9s6.1-5.5,6.1-9.9C182.4,783.5,181.6,782.3,179.8,781.2
				z"/>
			<path class="st84" d="M159.6,781.2c0.3-0.6,0.5-1.4,0.1-1.5c-1-0.4-2.9-2.3-3.6-2.3l0,0l0,0c-0.7,0-2.6,1.9-3.6,2.3
				c-0.4,0.2-0.2,0.9,0.1,1.5c-1.8,1.1-2.5,2.2-2.5,5.1c0,4.3,2.7,9.9,6.1,9.9s6.1-5.5,6.1-9.9C162.1,783.5,161.3,782.3,159.6,781.2
				z"/>
			<g>
				<path class="st82" d="M176.3,778.3c1.2,0,2.7-0.1,1.8-0.7c-0.5-0.3-0.7-1.3-1.3-1.2c0,0,0,0,0,0c0.1-0.2,0.3-1.8-0.4-2
					c-0.7,0.2-0.5,1.8-0.4,2c0,0,0,0,0,0c-0.6-0.1-0.8,0.8-1.3,1.2C173.6,778.2,175.1,778.3,176.3,778.3z"/>
				<path class="st82" d="M156.1,778.3c1.2,0,2.7-0.1,1.8-0.7c-0.5-0.3-0.7-1.3-1.3-1.2c0,0,0,0,0,0c0.1-0.2,0.3-1.8-0.4-2
					c-0.7,0.2-0.5,1.8-0.4,2c0,0,0,0,0,0c-0.6-0.1-0.8,0.8-1.3,1.2C153.4,778.2,154.8,778.3,156.1,778.3z"/>
				<path class="st85" d="M179.1,811.2c-0.1-1.5,2.4-3.1,1.2-3.2h-2.4c0.2-3.8,0.8-7.1,1.8-7.5c0.2-0.1-1.5-0.7-1.5-0.7
					c0-0.5,0.5-3.2,2.2-3.8c1-0.4-1.8-1.9-4.1-1.9s-5,1.5-4.1,1.9c1.7,0.6,2.2,3.3,2.2,3.8c0,0-1.7,0.6-1.5,0.7
					c1,0.4,1.6,3.7,1.8,7.5h-6.7c0,0,0.7-1.3,0.7-1.5c0-0.5-1.4-0.4-2.1-1.3c1.8-1.5,0.1-3.9-0.5-3.9s-2.3,2.4-0.5,3.9
					c-0.7,0.9-2.1,0.8-2.1,1.3c0,0.2,0.7,1.5,0.7,1.5h-6.7c0.2-3.8,0.8-7.1,1.8-7.5c0.2-0.1-1.5-0.7-1.5-0.7c0-0.5,0.5-3.2,2.2-3.8
					c1-0.4-1.8-1.9-4.1-1.9s-5,1.5-4.1,1.9c1.7,0.6,2.2,3.3,2.2,3.8c0,0-1.7,0.6-1.5,0.7c1,0.4,1.6,3.7,1.8,7.5h-2.4
					c-1.3,0.1,1.2,1.7,1.2,3.2h1.3c0.1,4.9-0.4,9.7-1.1,9.5c-0.5-0.1,1,0.4,1.8,1c-1,0.4-0.6,3.5,0.9,3.5c1.4,0,1.9-3.1,0.9-3.5
					c0.8-0.5,2.2-1.1,1.8-1c-0.8,0.2-1.2-4.6-1.1-9.5h8.7h8.7c0.1,4.9-0.4,9.7-1.1,9.5c-0.5-0.1,1,0.4,1.8,1c-1,0.4-0.6,3.5,0.9,3.5
					c1.4,0,1.9-3.1,0.9-3.5c0.8-0.5,2.2-1.1,1.8-1c-0.8,0.2-1.2-4.6-1.1-9.5H179.1z"/>
			</g>
		</g>
		<g id="post15">
			<g>
				<path class="st53" data-0="opacity:.7" data-6000="opacity:.3" d="M1649.8,782.1l9.6,9.6c0.7-1.7,1.2-3.6,1.2-5.3c0-2.9-0.8-4-2.5-5.1c0.3-0.6,0.5-1.4,0.1-1.5
					c-1-0.4-2.9-2.3-3.6-2.3l0,0l0,0c-0.7,0-2.6,1.9-3.6,2.3c-0.4,0.2-0.2,0.9,0.1,1.5C1650.5,781.5,1650.2,781.8,1649.8,782.1z"/>
				<path class="st53" data-0="opacity:.7" data-6000="opacity:.3" d="M1670.1,782.1l9.6,9.6c0.7-1.7,1.2-3.6,1.2-5.3c0-2.9-0.8-4-2.5-5.1c0.3-0.6,0.5-1.4,0.1-1.5
					c-1-0.4-2.9-2.3-3.6-2.3l0,0l0,0c-0.7,0-2.6,1.9-3.6,2.3c-0.4,0.2-0.2,0.9,0.1,1.5C1670.8,781.5,1670.4,781.8,1670.1,782.1z"/>
				<path class="st82" d="M1669.4,926.7c0-1.8,2.4-2.4,1.9-3c-0.8-0.8-3,0.2-4.1-5.3l-1-104.9h-3l-1,104.9c-1.1,5.5-3.2,4.5-4.1,5.3
					c-0.6,0.6,1.9,1.2,1.9,3c0,1.5-3.8,1.7-4,5.6c-0.1,2.5,3.1,2.8,8.7,2.8c5.6,0,8.8-0.3,8.7-2.8
					C1673.2,928.3,1669.4,928.2,1669.4,926.7z"/>
				<rect x="1654.8" y="809.7" class="st83" width="19.6" height="7.5"/>
				<path class="st84" d="M1678.3,781.2c0.3-0.6,0.5-1.4,0.1-1.5c-1-0.4-2.9-2.3-3.6-2.3l0,0l0,0c-0.7,0-2.6,1.9-3.6,2.3
					c-0.4,0.2-0.2,0.9,0.1,1.5c-1.8,1.1-2.5,2.2-2.5,5.1c0,4.3,2.7,9.9,6.1,9.9c3.3,0,6.1-5.5,6.1-9.9
					C1680.8,783.5,1680.1,782.3,1678.3,781.2z"/>
				<path class="st84" d="M1658,781.2c0.3-0.6,0.5-1.4,0.1-1.5c-1-0.4-2.9-2.3-3.6-2.3l0,0l0,0c-0.7,0-2.6,1.9-3.6,2.3
					c-0.4,0.2-0.2,0.9,0.1,1.5c-1.8,1.1-2.5,2.2-2.5,5.1c0,4.3,2.7,9.9,6.1,9.9c3.3,0,6.1-5.5,6.1-9.9
					C1660.6,783.5,1659.8,782.3,1658,781.2z"/>
				<g>
					<path class="st82" d="M1674.8,778.3c1.2,0,2.7-0.1,1.8-0.7c-0.5-0.3-0.7-1.3-1.3-1.2c0,0,0,0,0,0c0.1-0.2,0.3-1.8-0.4-2
						c-0.7,0.2-0.5,1.8-0.4,2c0,0,0,0,0,0c-0.6-0.1-0.8,0.8-1.3,1.2C1672.1,778.2,1673.6,778.3,1674.8,778.3z"/>
					<path class="st82" d="M1654.5,778.3c1.2,0,2.7-0.1,1.8-0.7c-0.5-0.3-0.7-1.3-1.3-1.2c0,0,0,0,0,0c0.1-0.2,0.3-1.8-0.4-2
						c-0.7,0.2-0.5,1.8-0.4,2c0,0,0,0,0,0c-0.6-0.1-0.8,0.8-1.3,1.2C1651.8,778.2,1653.3,778.3,1654.5,778.3z"/>
					<path class="st85" d="M1677.6,811.2c-0.1-1.5,2.4-3.1,1.2-3.2h-2.4c0.2-3.8,0.8-7.1,1.8-7.5c0.2-0.1-1.5-0.7-1.5-0.7
						c0-0.5,0.5-3.2,2.2-3.8c1-0.4-1.8-1.9-4.1-1.9s-5,1.5-4.1,1.9c1.7,0.6,2.2,3.3,2.2,3.8c0,0-1.7,0.6-1.5,0.7
						c1,0.4,1.6,3.7,1.8,7.5h-6.7c0,0,0.7-1.3,0.7-1.5c0-0.5-1.4-0.4-2.1-1.3c1.8-1.5,0.1-3.9-0.5-3.9c-0.7,0-2.3,2.4-0.5,3.9
						c-0.7,0.9-2.1,0.8-2.1,1.3c0,0.2,0.7,1.5,0.7,1.5h-6.7c0.2-3.8,0.8-7.1,1.8-7.5c0.2-0.1-1.5-0.7-1.5-0.7c0-0.5,0.5-3.2,2.2-3.8
						c1-0.4-1.8-1.9-4.1-1.9s-5,1.5-4.1,1.9c1.7,0.6,2.2,3.3,2.2,3.8c0,0-1.7,0.6-1.5,0.7c1,0.4,1.6,3.7,1.8,7.5h-2.4
						c-1.3,0.1,1.2,1.7,1.2,3.2h1.3c0.1,4.9-0.4,9.7-1.1,9.5c-0.5-0.1,1,0.4,1.8,1c-1,0.4-0.6,3.5,0.9,3.5c1.4,0,1.9-3.1,0.9-3.5
						c0.8-0.5,2.2-1.1,1.8-1c-0.8,0.2-1.2-4.6-1.1-9.5h8.7h8.7c0.1,4.9-0.4,9.7-1.1,9.5c-0.5-0.1,1,0.4,1.8,1
						c-1,0.4-0.6,3.5,0.9,3.5c1.4,0,1.9-3.1,0.9-3.5c0.8-0.5,2.2-1.1,1.8-1c-0.8,0.2-1.2-4.6-1.1-9.5H1677.6z"/>
				</g>
			</g>
			<g>
				<path class="st168" d="M1654.4,847.9h20.6c0.9,0,1.7-0.8,1.7-1.7v-6.6c0-0.9-0.8-1.7-1.7-1.7h-20.6c-0.9,0-1.7,0.8-1.7,1.7v6.6
					C1652.6,847.2,1653.4,847.9,1654.4,847.9z"/>
				<polygon class="st169" points="1674.5,842.9 1669.9,839.4 1669.9,841.2 1655.5,841.2 1655.5,844.7 1669.9,844.7 1669.9,846.5 
									"/>
			</g>
		</g>
		<g id="post16">
			<g>
				<path class="st53" data-0="opacity:.7" data-6000="opacity:.3" d="M937.8,782.1l9.6,9.6c0.7-1.7,1.2-3.6,1.2-5.3c0-2.9-0.8-4-2.5-5.1c0.3-0.6,0.5-1.4,0.1-1.5
					c-1-0.4-2.9-2.3-3.6-2.3l0,0l0,0c-0.7,0-2.6,1.9-3.6,2.3c-0.4,0.2-0.2,0.9,0.1,1.5C938.5,781.5,938.2,781.8,937.8,782.1z"/>
				<path class="st53" data-0="opacity:.7" data-6000="opacity:.3" d="M958.1,782.1l9.6,9.6c0.7-1.7,1.2-3.6,1.2-5.3c0-2.9-0.8-4-2.5-5.1c0.3-0.6,0.5-1.4,0.1-1.5
					c-1-0.4-2.9-2.3-3.6-2.3l0,0l0,0c-0.7,0-2.6,1.9-3.6,2.3c-0.4,0.2-0.2,0.9,0.1,1.5C958.8,781.5,958.4,781.8,958.1,782.1z"/>
				<path class="st82" d="M957.4,926.7c0-1.8,2.4-2.4,1.9-3c-0.8-0.8-3,0.2-4.1-5.3l-1-104.9h-3l-1,104.9c-1.1,5.5-3.2,4.5-4.1,5.3
					c-0.6,0.6,1.9,1.2,1.9,3c0,1.5-3.8,1.7-4,5.6c-0.1,2.5,3.1,2.8,8.7,2.8c5.6,0,8.8-0.3,8.7-2.8
					C961.2,928.3,957.4,928.2,957.4,926.7z"/>
				<rect x="942.8" y="809.7" class="st83" width="19.6" height="7.5"/>
				<path class="st84" d="M966.3,781.2c0.3-0.6,0.5-1.4,0.1-1.5c-1-0.4-2.9-2.3-3.6-2.3l0,0l0,0c-0.7,0-2.6,1.9-3.6,2.3
					c-0.4,0.2-0.2,0.9,0.1,1.5c-1.8,1.1-2.5,2.2-2.5,5.1c0,4.3,2.7,9.9,6.1,9.9s6.1-5.5,6.1-9.9
					C968.8,783.5,968.1,782.3,966.3,781.2z"/>
				<path class="st84" d="M946,781.2c0.3-0.6,0.5-1.4,0.1-1.5c-1-0.4-2.9-2.3-3.6-2.3l0,0l0,0c-0.7,0-2.6,1.9-3.6,2.3
					c-0.4,0.2-0.2,0.9,0.1,1.5c-1.8,1.1-2.5,2.2-2.5,5.1c0,4.3,2.7,9.9,6.1,9.9s6.1-5.5,6.1-9.9C948.6,783.5,947.8,782.3,946,781.2z
					"/>
				<g>
					<path class="st82" d="M962.8,778.3c1.2,0,2.7-0.1,1.8-0.7c-0.5-0.3-0.7-1.3-1.3-1.2c0,0,0,0,0,0c0.1-0.2,0.3-1.8-0.4-2
						c-0.7,0.2-0.5,1.8-0.4,2c0,0,0,0,0,0c-0.6-0.1-0.8,0.8-1.3,1.2C960.1,778.2,961.6,778.3,962.8,778.3z"/>
					<path class="st82" d="M942.5,778.3c1.2,0,2.7-0.1,1.8-0.7c-0.5-0.3-0.7-1.3-1.3-1.2c0,0,0,0,0,0c0.1-0.2,0.3-1.8-0.4-2
						c-0.7,0.2-0.5,1.8-0.4,2c0,0,0,0,0,0c-0.6-0.1-0.8,0.8-1.3,1.2C939.8,778.2,941.3,778.3,942.5,778.3z"/>
					<path class="st85" d="M965.6,811.2c-0.1-1.5,2.4-3.1,1.2-3.2h-2.4c0.2-3.8,0.8-7.1,1.8-7.5c0.2-0.1-1.5-0.7-1.5-0.7
						c0-0.5,0.5-3.2,2.2-3.8c1-0.4-1.8-1.9-4.1-1.9s-5,1.5-4.1,1.9c1.7,0.6,2.2,3.3,2.2,3.8c0,0-1.7,0.6-1.5,0.7
						c1,0.4,1.6,3.7,1.8,7.5h-6.7c0,0,0.7-1.3,0.7-1.5c0-0.5-1.4-0.4-2.1-1.3c1.8-1.5,0.1-3.9-0.5-3.9s-2.3,2.4-0.5,3.9
						c-0.7,0.9-2.1,0.8-2.1,1.3c0,0.2,0.7,1.5,0.7,1.5h-6.7c0.2-3.8,0.8-7.1,1.8-7.5c0.2-0.1-1.5-0.7-1.5-0.7c0-0.5,0.5-3.2,2.2-3.8
						c1-0.4-1.8-1.9-4.1-1.9s-5,1.5-4.1,1.9c1.7,0.6,2.2,3.3,2.2,3.8c0,0-1.7,0.6-1.5,0.7c1,0.4,1.6,3.7,1.8,7.5h-2.4
						c-1.3,0.1,1.2,1.7,1.2,3.2h1.3c0.1,4.9-0.4,9.7-1.1,9.5c-0.5-0.1,1,0.4,1.8,1c-1,0.4-0.6,3.5,0.9,3.5c1.4,0,1.9-3.1,0.9-3.5
						c0.8-0.5,2.2-1.1,1.8-1c-0.8,0.2-1.2-4.6-1.1-9.5h8.7h8.7c0.1,4.9-0.4,9.7-1.1,9.5c-0.5-0.1,1,0.4,1.8,1
						c-1,0.4-0.6,3.5,0.9,3.5c1.4,0,1.9-3.1,0.9-3.5c0.8-0.5,2.2-1.1,1.8-1c-0.8,0.2-1.2-4.6-1.1-9.5H965.6z"/>
				</g>
			</g>
			<g>
				<rect x="942.6" y="822.6" class="st5" width="20" height="20"/>
				<polygon points="955,830.2 953.4,830.2 951.3,830.2 951.3,828.3 947.5,831.3 951.3,834.3 951.3,832.5 953.4,832.5 953.4,836.9 
					955.7,836.9 955.7,830.2 				"/>
				<path class="st86" d="M952.6,823.9c-4.8,0-8.7,3.9-8.7,8.7s3.9,8.7,8.7,8.7s8.7-3.9,8.7-8.7S957.4,823.9,952.6,823.9z
					 M958.6,832.6c0,1.4-0.5,2.7-1.3,3.7l-8.4-8.4c1-0.8,2.3-1.3,3.7-1.3C955.9,826.6,958.6,829.3,958.6,832.6z M946.6,832.6
					c0-1.5,0.5-2.8,1.4-3.8l8.5,8.5c-1,0.9-2.4,1.4-3.8,1.4C949.3,838.6,946.6,835.9,946.6,832.6z"/>
			</g>
		</g>
		<g id="post13">
			<g>
				<path d="M2192.5,868.1h-16c-0.5,0-1-0.5-1-1v-16c0-0.5,0.5-1,1-1h16c0.6,0,1,0.5,1,1v16C2193.5,867.7,2193,868.1,2192.5,868.1z"
					/>
				<g>
					<path class="st13" d="M2183.9,858c-0.2-0.1-0.9,0.5-1.5,0.8c0,0,0-4.7-2.4-4c-1.6,0.5-2.7,1.8-2.7,4c0,0,0.4,3.4,1,3.4
						c0,0,0.3,1.8,0.6,1.8h2c0.3,0,0.5-2.1,0.5-2.1C2182.1,861.9,2184.5,858.3,2183.9,858z"/>
				</g>
			</g>
			<polygon class="st170" points="2200.8,915.8 2198,914.6 2198,845.3 2194.5,845.3 2194.5,914.5 2191.6,915.8 2188.6,934.8 
				2203.8,934.8 			"/>
		</g>
		<g id="post13_1_">
			<g>
				<path class="st53" data-0="opacity:.7" data-6000="opacity:.3" d="M1928.8,782.1l9.6,9.6c0.7-1.7,1.2-3.6,1.2-5.3c0-2.9-0.8-4-2.5-5.1c0.3-0.6,0.5-1.4,0.1-1.5
					c-1-0.4-2.9-2.3-3.6-2.3l0,0l0,0c-0.7,0-2.6,1.9-3.6,2.3c-0.4,0.2-0.2,0.9,0.1,1.5C1929.5,781.5,1929.2,781.8,1928.8,782.1z"/>
				<path class="st53" data-0="opacity:.7" data-6000="opacity:.3" d="M1949.1,782.1l9.6,9.6c0.7-1.7,1.2-3.6,1.2-5.3c0-2.9-0.8-4-2.5-5.1c0.3-0.6,0.5-1.4,0.1-1.5
					c-1-0.4-2.9-2.3-3.6-2.3l0,0l0,0c-0.7,0-2.6,1.9-3.6,2.3c-0.4,0.2-0.2,0.9,0.1,1.5C1949.8,781.5,1949.4,781.8,1949.1,782.1z"/>
				<path class="st82" d="M1948.4,926.7c0-1.8,2.4-2.4,1.9-3c-0.8-0.8-3,0.2-4.1-5.3l-1-104.9h-3l-1,104.9c-1.1,5.5-3.2,4.5-4.1,5.3
					c-0.6,0.6,1.9,1.2,1.9,3c0,1.5-3.8,1.7-4,5.6c-0.1,2.5,3.1,2.8,8.7,2.8c5.6,0,8.8-0.3,8.7-2.8
					C1952.2,928.3,1948.4,928.2,1948.4,926.7z"/>
				<rect x="1933.8" y="809.7" class="st83" width="19.6" height="7.5"/>
				<path class="st84" d="M1957.3,781.2c0.3-0.6,0.5-1.4,0.1-1.5c-1-0.4-2.9-2.3-3.6-2.3l0,0l0,0c-0.7,0-2.6,1.9-3.6,2.3
					c-0.4,0.2-0.2,0.9,0.1,1.5c-1.8,1.1-2.5,2.2-2.5,5.1c0,4.3,2.7,9.9,6.1,9.9c3.3,0,6.1-5.5,6.1-9.9
					C1959.8,783.5,1959.1,782.3,1957.3,781.2z"/>
				<path class="st84" d="M1937,781.2c0.3-0.6,0.5-1.4,0.1-1.5c-1-0.4-2.9-2.3-3.6-2.3l0,0l0,0c-0.7,0-2.6,1.9-3.6,2.3
					c-0.4,0.2-0.2,0.9,0.1,1.5c-1.8,1.1-2.5,2.2-2.5,5.1c0,4.3,2.7,9.9,6.1,9.9c3.3,0,6.1-5.5,6.1-9.9
					C1939.6,783.5,1938.8,782.3,1937,781.2z"/>
				<g>
					<path class="st82" d="M1953.8,778.3c1.2,0,2.7-0.1,1.8-0.7c-0.5-0.3-0.7-1.3-1.3-1.2c0,0,0,0,0,0c0.1-0.2,0.3-1.8-0.4-2
						c-0.7,0.2-0.5,1.8-0.4,2c0,0,0,0,0,0c-0.6-0.1-0.8,0.8-1.3,1.2C1951.1,778.2,1952.6,778.3,1953.8,778.3z"/>
					<path class="st82" d="M1933.5,778.3c1.2,0,2.7-0.1,1.8-0.7c-0.5-0.3-0.7-1.3-1.3-1.2c0,0,0,0,0,0c0.1-0.2,0.3-1.8-0.4-2
						c-0.7,0.2-0.5,1.8-0.4,2c0,0,0,0,0,0c-0.6-0.1-0.8,0.8-1.3,1.2C1930.8,778.2,1932.3,778.3,1933.5,778.3z"/>
					<path class="st85" d="M1956.6,811.2c-0.1-1.5,2.4-3.1,1.2-3.2h-2.4c0.2-3.8,0.8-7.1,1.8-7.5c0.2-0.1-1.5-0.7-1.5-0.7
						c0-0.5,0.5-3.2,2.2-3.8c1-0.4-1.8-1.9-4.1-1.9s-5,1.5-4.1,1.9c1.7,0.6,2.2,3.3,2.2,3.8c0,0-1.7,0.6-1.5,0.7
						c1,0.4,1.6,3.7,1.8,7.5h-6.7c0,0,0.7-1.3,0.7-1.5c0-0.5-1.4-0.4-2.1-1.3c1.8-1.5,0.1-3.9-0.5-3.9c-0.7,0-2.3,2.4-0.5,3.9
						c-0.7,0.9-2.1,0.8-2.1,1.3c0,0.2,0.7,1.5,0.7,1.5h-6.7c0.2-3.8,0.8-7.1,1.8-7.5c0.2-0.1-1.5-0.7-1.5-0.7c0-0.5,0.5-3.2,2.2-3.8
						c1-0.4-1.8-1.9-4.1-1.9s-5,1.5-4.1,1.9c1.7,0.6,2.2,3.3,2.2,3.8c0,0-1.7,0.6-1.5,0.7c1,0.4,1.6,3.7,1.8,7.5h-2.4
						c-1.3,0.1,1.2,1.7,1.2,3.2h1.3c0.1,4.9-0.4,9.7-1.1,9.5c-0.5-0.1,1,0.4,1.8,1c-1,0.4-0.6,3.5,0.9,3.5c1.4,0,1.9-3.1,0.9-3.5
						c0.8-0.5,2.2-1.1,1.8-1c-0.8,0.2-1.2-4.6-1.1-9.5h8.7h8.7c0.1,4.9-0.4,9.7-1.1,9.5c-0.5-0.1,1,0.4,1.8,1
						c-1,0.4-0.6,3.5,0.9,3.5c1.4,0,1.9-3.1,0.9-3.5c0.8-0.5,2.2-1.1,1.8-1c-0.8,0.2-1.2-4.6-1.1-9.5H1956.6z"/>
				</g>
			</g>
			<g>
				<path class="st5" d="M1948.1,858.2h-9c-0.6,0-1-0.5-1-1v-14.3c0-0.5,0.4-1,1-1h9c0.6,0,1,0.5,1,1v14.3
					C1949.1,857.7,1948.7,858.2,1948.1,858.2z"/>
				<g>
					<path class="st88" d="M1947.2,857.3h-7.1c-0.5,0-1-0.4-1-1v-12.5c0-0.5,0.5-1,1-1h7.1c0.5,0,1,0.5,1,1v12.5
						C1948.2,856.9,1947.7,857.3,1947.2,857.3z"/>
					<path class="st86" d="M1939.1,846.3v-2.5c0-0.5,0.5-1,1-1h7.1c0.5,0,1,0.5,1,1v2.5H1939.1z"/>
				</g>
			</g>
		</g>
		<g id="post14">
			<g>
				<g>
					<path class="st53" data-0="opacity:.7" data-6000="opacity:.3" d="M1756.4,786.9l9.6,9.6c0.7-1.7,1.2-3.6,1.2-5.3c0-2.9-0.8-4-2.5-5.1c0.3-0.6,0.5-1.4,0.1-1.5
						c-1-0.4-2.9-2.3-3.6-2.3l0,0l0,0c-0.7,0-2.6,1.9-3.6,2.3c-0.4,0.2-0.2,0.9,0.1,1.5C1757.1,786.3,1756.7,786.6,1756.4,786.9z"/>
					<path class="st84" d="M1764.6,786c0.3-0.6,0.5-1.4,0.1-1.5c-1-0.4-2.9-2.3-3.6-2.3l0,0l0,0c-0.7,0-2.6,1.9-3.6,2.3
						c-0.4,0.2-0.2,0.9,0.1,1.5c-1.8,1.1-2.5,2.2-2.5,5.1c0,4.3,2.7,9.9,6.1,9.9c3.3,0,6.1-5.5,6.1-9.9
						C1767.1,788.3,1766.3,787.1,1764.6,786z"/>
				</g>
				<g>
					<path class="st82" d="M1765.8,920.7c0-1.8,2.4-2.4,1.9-3c-0.8-0.8-3,0.2-4.1-5.3l-1-93.6c0.2-0.1,1.3-3.1,1.1-3.1
						c0,0-1.1,0-1.1,0l1-3.2l-1-1c-0.1-5.6,0.4-5.4,1.9-5.9c0.2-0.1-1.5-0.7-1.5-0.7c0-0.5,0.5-3.2,2.2-3.8c1-0.4-1.8-1.9-4.1-1.9
						c-2.3,0-5,1.5-4.1,1.9c1.7,0.6,2.2,3.3,2.2,3.8c0,0-1.7,0.6-1.5,0.7c1.5,0.6,2,0.4,1.9,5.9l-1,1l1,3.2c0,0-1.1,0-1.1,0
						c-0.2,0,0.9,3,1.1,3.1l-1,93.6c-1.1,5.5-3.2,4.5-4.1,5.3c-0.6,0.6,1.9,1.2,1.9,3c0,1.5-3.8,1.7-4,5.6c-0.1,2.5,3.1,2.8,8.7,2.8
						c5.6,0,8.8-0.3,8.7-2.8C1769.6,922.3,1765.8,922.2,1765.8,920.7z"/>
					<path class="st82" d="M1761.1,783.3c1.2,0,2.7-0.1,1.8-0.7c-0.5-0.3-0.7-1.3-1.3-1.2c0,0,0,0,0,0c0.1-0.2,0.3-1.8-0.4-2
						c-0.7,0.2-0.5,1.8-0.4,2c0,0,0,0,0,0c-0.6-0.1-0.8,0.8-1.3,1.2C1758.4,783.2,1759.8,783.3,1761.1,783.3z"/>
				</g>
			</g>
			<g>
				<path class="st171" d="M1772.1,856.1l-10.5,10.5c-0.4,0.4-1,0.4-1.4,0l-10.5-10.5c-0.4-0.4-0.4-1,0-1.4l10.5-10.5
					c0.4-0.4,1-0.4,1.4,0l10.5,10.5C1772.4,855.1,1772.4,855.8,1772.1,856.1z"/>
				<path class="st172" d="M1769.6,856.1l-8,8c-0.4,0.4-1,0.4-1.4,0l-8-8c-0.4-0.4-0.4-1,0-1.4l8-8c0.4-0.4,1-0.4,1.4,0l8,8
					C1770,855.1,1770,855.8,1769.6,856.1z"/>
			</g>
			<g>
				<path class="st5" d="M1764.4,838.5h-7c-0.6,0-1-0.5-1-1v-11.3c0-0.5,0.4-1,1-1h7c0.5,0,1,0.5,1,1v11.3
					C1765.4,838,1764.9,838.5,1764.4,838.5z"/>
				<g>
					<path class="st88" d="M1763.6,837.8h-5.4c-0.6,0-1-0.4-1-1v-9.9c0-0.6,0.4-1,1-1h5.4c0.6,0,1,0.4,1,1v9.9
						C1764.6,837.3,1764.2,837.8,1763.6,837.8z"/>
					<path class="st86" d="M1757.2,828.8v-2.1c0-0.5,0.4-0.8,0.8-0.8h5.8c0.5,0,0.8,0.4,0.8,0.8v2.1H1757.2z"/>
				</g>
			</g>
		</g>
		<g id="post12">
			<g>
				<g>
					<path class="st53" data-0="opacity:.7" data-6000="opacity:.3" d="M2211.4,786.9l9.6,9.6c0.7-1.7,1.2-3.6,1.2-5.3c0-2.9-0.8-4-2.5-5.1c0.3-0.6,0.5-1.4,0.1-1.5
						c-1-0.4-2.9-2.3-3.6-2.3l0,0l0,0c-0.7,0-2.6,1.9-3.6,2.3c-0.4,0.2-0.2,0.9,0.1,1.5C2212.1,786.3,2211.7,786.6,2211.4,786.9z"/>
					<path class="st84" d="M2219.6,786c0.3-0.6,0.5-1.4,0.1-1.5c-1-0.4-2.9-2.3-3.6-2.3l0,0l0,0c-0.7,0-2.6,1.9-3.6,2.3
						c-0.4,0.2-0.2,0.9,0.1,1.5c-1.8,1.1-2.5,2.2-2.5,5.1c0,4.3,2.7,9.9,6.1,9.9c3.3,0,6.1-5.5,6.1-9.9
						C2222.1,788.3,2221.3,787.1,2219.6,786z"/>
				</g>
				<g>
					<path class="st82" d="M2220.8,920.7c0-1.8,2.4-2.4,1.9-3c-0.8-0.8-3,0.2-4.1-5.3l-1-93.6c0.2-0.1,1.3-3.1,1.1-3.1
						c0,0-1.1,0-1.1,0l1-3.2l-1-1c-0.1-5.6,0.4-5.4,1.9-5.9c0.2-0.1-1.5-0.7-1.5-0.7c0-0.5,0.5-3.2,2.2-3.8c1-0.4-1.8-1.9-4.1-1.9
						c-2.3,0-5,1.5-4.1,1.9c1.7,0.6,2.2,3.3,2.2,3.8c0,0-1.7,0.6-1.5,0.7c1.5,0.6,2,0.4,1.9,5.9l-1,1l1,3.2c0,0-1.1,0-1.1,0
						c-0.2,0,0.9,3,1.1,3.1l-1,93.6c-1.1,5.5-3.2,4.5-4.1,5.3c-0.6,0.6,1.9,1.2,1.9,3c0,1.5-3.8,1.7-4,5.6c-0.1,2.5,3.1,2.8,8.7,2.8
						c5.6,0,8.8-0.3,8.7-2.8C2224.6,922.3,2220.8,922.2,2220.8,920.7z"/>
					<path class="st82" d="M2216.1,783.3c1.2,0,2.7-0.1,1.8-0.7c-0.5-0.3-0.7-1.3-1.3-1.2c0,0,0,0,0,0c0.1-0.2,0.3-1.8-0.4-2
						c-0.7,0.2-0.5,1.8-0.4,2c0,0,0,0,0,0c-0.6-0.1-0.8,0.8-1.3,1.2C2213.4,783.2,2214.8,783.3,2216.1,783.3z"/>
				</g>
			</g>
			<g>
				<rect x="2206.1" y="847.6" class="st5" width="20" height="20"/>
				<circle class="st86" cx="2216.1" cy="857.6" r="7.4"/>
				<path class="st5" d="M2220.6,859.4h-9.2c-0.7,0-1.3-0.6-1.3-1.3v-0.9c0-0.7,0.6-1.3,1.3-1.3h9.2c0.7,0,1.3,0.6,1.3,1.3v0.9
					C2222,858.8,2221.4,859.4,2220.6,859.4z"/>
			</g>
			<g>
				<path class="st168" d="M2206.1,843.9h20.6c0.9,0,1.7-0.8,1.7-1.7v-6.6c0-0.9-0.8-1.7-1.7-1.7h-20.6c-0.9,0-1.7,0.8-1.7,1.7v6.6
					C2204.4,843.2,2205.2,843.9,2206.1,843.9z"/>
				<polygon class="st169" points="2226.3,838.9 2221.7,835.4 2221.7,837.2 2207.3,837.2 2207.3,840.7 2221.7,840.7 2221.7,842.5 
									"/>
			</g>
		</g>
	</g>
</g>
</svg>
