<?xml version="1.0" encoding="utf-8"?>
<!-- Generator: Adobe Illustrator 19.1.0, SVG Export Plug-In . SVG Version: 6.00 Build 0)  -->
<svg version="1.1" class="car1" xmlns="http://www.w3.org/2000/svg" xmlns:xlink="http://www.w3.org/1999/xlink" x="0px" y="0px"
	 viewBox="0 0 175.7 90.9" style="enable-background:new 0 0 175.7 90.9;" xml:space="preserve">

<g id="carsRightLane">
	<g id="carGreen_2_">
		<path class="st398" d="M28.5,33.7c14.4,0,23.2,0.2,23.2,0.2l11,0.3l0.8-24.6c0,0-4.6-1.1-11.7,0.9C30.2,16.7,28.5,33.7,28.5,33.7z
			"/>
		<path class="st398" d="M117.1,33.9c0,0-13.3-19.3-21.3-23.8C93,8.5,70.4,8.9,70.4,9.8c-0.4,15.8,0,23.8,0,23.8L117.1,33.9z"/>
		<path class="st391" d="M43.8,13.2c1.6,10.5,7.8,20.5,7.8,20.5l11,0.3l0.8-24.6c0,0-4.5-0.7-11.7,0.9
			C47.6,11.3,43.8,13.2,43.8,13.2z"/>
		<path class="st391" d="M116.5,33.4c0,0-13.3-19.3-21.3-23.8c-2.8-1.6-18-1.3-17.8-0.5c4.5,14.4,12.8,24.3,12.8,24.3H116.5z"/>
		<path class="st429" d="M95.9,10.1c-3.8-1.8-24.8-0.8-24.8-0.8l-0.4,12.3l-0.4,11.8h15.9h30.3C116.5,33.4,101,12.5,95.9,10.1z"/>
		<path class="st429" d="M38.8,16.6c-10.1,8.8-9.6,16.8-9.6,16.8L62.6,34l0.8-24.6C63.4,9.4,48.9,7.8,38.8,16.6z"/>
		<path class="st418" d="M161.8,42.4C161.8,42.4,161.8,42.4,161.8,42.4C161.8,42.4,161.8,42.4,161.8,42.4L161.8,42.4z"/>
		<path class="st436" d="M167.5,49.6C167.5,49.6,167.5,49.6,167.5,49.6C167.5,49.6,167.5,49.6,167.5,49.6c-1.9,0.8-4.2-0.2-5.4-2.2
			c-1-1.6-1.1-3.6-0.3-5c-8.2-7.3-18.8-5.7-30.1-6.3c0,0-24-29.5-28.6-32.3c-4.2-2.6-51.5-6.9-65.7,2.4S18,34.5,18,34.5
			s-3.3,0.6-6.2,2.2c2.2,0.7,4.4,1.8,3.7,3.4c-1.2,2.5-6.9,3.5-8.6,3.8c-1,5.4-1.2,13.3-1.2,13.3S3,57.7,2.2,59.3
			c-0.5,1-0.4,8.9-0.2,14.4c0.3-0.1,0.7-0.2,1.1-0.2h15.2c0.6,0,1.1,0.2,1.6,0.4c2.1-6.2,7.4-16,19.5-16c12.8,0,17.2,9,18.7,15.3
			c0.3-0.2,0.7-0.3,1-0.3h62.3c0.5,0,1,0.2,1.4,0.5c1.9-6.1,6.6-15.2,18-15.5c12.4-0.4,17,8.8,18.7,15c0.3-0.2,0.7-0.3,1.1-0.3h12.2
			c0.4,0,0.9,0.1,1.2,0.3C174.1,67.6,172.6,58,167.5,49.6z M62.6,34l-33.4-0.5c0,0-0.5-8,9.6-16.8c10.1-8.8,24.6-7.2,24.6-7.2
			L62.6,34z M86.3,33.4H70.3l0.4-11.8l0.4-12.3c0,0,21-1.1,24.8,0.8c5.1,2.5,20.6,23.4,20.6,23.4H86.3z"/>
		<path class="st431" d="M162.1,47.4c1.2,2,3.5,2.9,5.4,2.2c-1.1-1.8-2.3-3.6-3.7-5.2c-0.6-0.7-1.3-1.4-1.9-1.9
			C161,43.8,161.1,45.8,162.1,47.4z"/>
		<path class="st421" d="M161.8,42.4C161.8,42.4,161.8,42.4,161.8,42.4C161.8,42.4,161.8,42.4,161.8,42.4
			C161.8,42.4,161.8,42.4,161.8,42.4z"/>
		<path class="st432" d="M162.1,47.4c-1-1.6-1.1-3.5-0.3-4.9c0,0,0,0,0,0c0,0,0,0,0,0C161,43.8,161.1,45.8,162.1,47.4z"/>
		<path class="st432" d="M162.1,47.4c1.3,2,3.6,3,5.4,2.3c0,0,0,0,0-0.1C165.6,50.3,163.4,49.4,162.1,47.4z"/>
		<path class="st422" d="M15.4,40.1c0.9-1.5-1.5-2.7-3.7-3.4c-1.7,0.9-3.2,2.1-3.9,3.7c-0.4,0.9-0.7,2.1-1,3.5
			C8.7,44.1,12.8,44.9,15.4,40.1z"/>
		<path class="st423" d="M59.1,79.1c-0.1,0-0.2,0-0.2,0c0,0,0,0,0,0h62.7c0,0,0,0,0,0c-0.1,0-0.1,0-0.2,0H59.1z"/>
		<g>
			<path class="st400" d="M39.5,61.7c-7.8,0-14.1,6.3-14.1,14.1s6.3,14.1,14.1,14.1s14.1-6.3,14.1-14.1S47.3,61.7,39.5,61.7z
				 M39.5,83.1c-4,0-7.3-3.3-7.3-7.3s3.3-7.3,7.3-7.3c4,0,7.3,3.3,7.3,7.3S43.6,83.1,39.5,83.1z"/>
			<circle class="st424" cx="39.5" cy="75.8" r="7.3"/>
		</g>
		<g>
			<path class="st400" d="M141.3,62.3c-7.8,0-14.1,6.3-14.1,14.1s6.3,14.1,14.1,14.1c7.8,0,14.1-6.3,14.1-14.1S149,62.3,141.3,62.3z
				 M141.3,83.6c-4,0-7.3-3.3-7.3-7.3c0-4,3.3-7.3,7.3-7.3c4,0,7.3,3.3,7.3,7.3C148.6,80.4,145.3,83.6,141.3,83.6z"/>
			<circle class="st425" cx="141.3" cy="76.3" r="7.3"/>
		</g>
		<line class="st426" x1="122.8" y1="34.3" x2="125.1" y2="35.1"/>
		<path class="st414" d="M119.9,31l-0.3,4.8c-0.1,0.9,1,1.4,1.7,0.9c0.8-0.6,1.7-1.6,1.9-3c0.2-1.6-0.7-2.7-1.6-3.4
			C120.9,29.8,119.9,30.2,119.9,31z"/>
		<path class="st412" d="M59.1,73c-0.4,0-0.7,0.1-1,0.3c-0.6,0.4-0.9,1-0.9,1.7v2.1c0,1,0.8,1.8,1.8,2c0.1,0,0.2,0,0.2,0h62.3
			c0.1,0,0.1,0,0.2,0c1-0.1,1.8-0.9,1.8-2V75c0-0.6-0.2-1.1-0.6-1.4c-0.4-0.3-0.8-0.5-1.4-0.5H59.1z"/>
		<path class="st412" d="M3.1,73.5c-0.4,0-0.7,0.1-1.1,0.2c-1.2,0.4-1.5,1.5-1.5,2.8c0,1.7,0.9,3.1,2.6,3.1h15.2
			c1.7,0,2.5-1.4,2.5-3.1c0-1.1-0.1-2.1-1-2.6c-0.5-0.3-1-0.4-1.6-0.4H3.1z"/>
		<path class="st412" d="M174.6,73.7c-0.2-0.2-0.4-0.4-0.7-0.6c-0.4-0.2-0.8-0.3-1.2-0.3h-12.2c-0.4,0-0.7,0.1-1.1,0.3
			c-0.2,0.1-0.3,0.2-0.5,0.3c-0.6,0.5-0.9,1.1-0.9,1.9v1.2c0,1.3,1.1,2.5,2.5,2.5h12.2c1.3,0,2.5-1.1,2.5-2.5v-1.2
			C175.2,74.7,175,74.1,174.6,73.7z"/>
		<path class="st428" d="M76.3,38.8H71c-0.4,0-0.7-0.3-0.7-0.7V38c0-0.4,0.3-0.7,0.7-0.7h5.4c0.4,0,0.7,0.3,0.7,0.7v0.1
			C77,38.5,76.7,38.8,76.3,38.8z"/>
	</g>
</g>
</svg>
