<?xml version="1.0" encoding="utf-8"?>
<!-- Generator: Adobe Illustrator 19.1.0, SVG Export Plug-In . SVG Version: 6.00 Build 0)  -->
<svg version="1.1" class="car2" xmlns="http://www.w3.org/2000/svg" xmlns:xlink="http://www.w3.org/1999/xlink" x="0px" y="0px"
	 viewBox="0 0 173.7 89.9" style="enable-background:new 0 0 173.7 89.9;" xml:space="preserve">

<g id="carsLeftLane">
	<g id="carLighterBlue_1_">
		<path class="st398" d="M28.1,33.1c14.2,0,22.9,0.2,22.9,0.2l10.8,0.3l0.8-24.3c0,0-4.5-1.1-11.6,0.9
			C29.7,16.3,28.1,33.1,28.1,33.1z"/>
		<path class="st391" d="M43.3,13.1C44.9,23.5,51,33.3,51,33.3l10.8,0.3l0.8-24.3c0,0-4.4-0.7-11.6,0.9C47,11.1,43.3,13.1,43.3,13.1
			z"/>
		<path class="st398" d="M115.7,33.3c0,0-13.2-19.1-21.1-23.5c-2.8-1.6-25.1-1.2-25.1-0.3c-0.4,15.6,0,23.6,0,23.6L115.7,33.3z"/>
		<path class="st391" d="M115.2,33.1c0,0-13.2-19.1-21.1-23.5C91.3,8,76.3,8.3,76.5,9.1c4.5,14.3,12.6,24,12.6,24H115.2z"/>
		<path class="st417" d="M94.8,9.9c-3.7-1.8-24.5-0.7-24.5-0.7l-0.4,12.2l-0.4,11.7h15.8h29.9C115.2,33.1,99.9,12.4,94.8,9.9z"/>
		<path class="st417" d="M38.4,16.4c-10,8.7-9.5,16.6-9.5,16.6l33,0.5l0.8-24.3C62.6,9.3,48.4,7.7,38.4,16.4z"/>
		<path class="st418" d="M160,42C160,42,160,41.9,160,42C160,41.9,160,42,160,42C160,42,160,42,160,42z"/>
		<path class="st419" d="M165.6,49C165.6,49,165.6,49,165.6,49C165.6,49.1,165.6,49.1,165.6,49c-1.8,0.8-4.1-0.2-5.4-2.2
			c-1-1.6-1.1-3.6-0.3-4.9c-8.1-7.2-18.6-5.6-29.7-6.2c0,0-23.7-29.2-28.2-31.9C97.8,1.2,51-3.1,37,6.1s-19.3,28-19.3,28
			s-3.3,0.6-6.1,2.2c2.1,0.7,4.4,1.8,3.6,3.4c-1.2,2.4-6.8,3.5-8.5,3.8c-1,5.3-1.2,13.1-1.2,13.1S3,57.1,2.2,58.7
			c-0.5,1-0.4,8.8-0.2,14.2c0.3-0.1,0.7-0.2,1.1-0.2h15c0.6,0,1.1,0.2,1.5,0.4c2.1-6.2,7.3-15.8,19.3-15.8c12.6,0,17,8.9,18.5,15.1
			c0.3-0.2,0.7-0.3,1-0.3H120c0.5,0,1,0.2,1.3,0.5c1.9-6.1,6.5-15,17.8-15.3c12.2-0.3,16.8,8.7,18.5,14.9c0.3-0.2,0.7-0.3,1-0.3h12
			c0.4,0,0.8,0.1,1.2,0.3C172.1,66.8,170.6,57.3,165.6,49z M61.8,33.6l-33-0.5c0,0-0.5-7.9,9.5-16.6c10-8.7,24.3-7.1,24.3-7.1
			L61.8,33.6z M85.3,33.1H69.5l0.4-11.7l0.4-12.2c0,0,20.8-1.1,24.5,0.7c5.1,2.5,20.4,23.1,20.4,23.1H85.3z"/>
		<path class="st420" d="M160.2,46.9c1.2,2,3.5,2.9,5.3,2.2c-1.1-1.8-2.3-3.5-3.7-5.1c-0.6-0.7-1.3-1.3-1.9-1.9
			C159.2,43.3,159.2,45.2,160.2,46.9z"/>
		<path class="st421" d="M159.9,41.9L159.9,41.9C159.9,41.9,159.9,41.9,159.9,41.9C159.9,41.9,159.9,41.9,159.9,41.9z"/>
		<path class="st421" d="M160.2,46.9c-1-1.6-1-3.5-0.3-4.9c0,0,0,0,0,0c0,0,0,0,0,0C159.1,43.3,159.2,45.2,160.2,46.9z"/>
		<path class="st421" d="M160.2,46.9c1.2,2,3.5,2.9,5.4,2.2c0,0,0,0,0-0.1C163.7,49.7,161.5,48.8,160.2,46.9z"/>
		<path class="st422" d="M15.2,39.6c0.8-1.5-1.5-2.7-3.6-3.4c-1.7,0.9-3.2,2.1-3.9,3.6c-0.4,0.9-0.7,2.1-1,3.5
			C8.6,43.6,12.6,44.4,15.2,39.6z"/>
		<path class="st423" d="M58.4,78.2c-0.1,0-0.2,0-0.2,0c0,0,0,0,0,0h62c0,0,0,0,0,0c-0.1,0-0.1,0-0.2,0H58.4z"/>
		<g>
			<path class="st400" d="M39.1,61c-7.7,0-13.9,6.2-13.9,13.9s6.2,13.9,13.9,13.9S53,82.6,53,74.9S46.8,61,39.1,61z M39.1,82.2
				c-4,0-7.2-3.2-7.2-7.2s3.2-7.2,7.2-7.2c4,0,7.2,3.2,7.2,7.2S43.1,82.2,39.1,82.2z"/>
			<circle class="st424" cx="39.1" cy="74.9" r="7.2"/>
		</g>
		<g>
			<path class="st400" d="M139.6,61.6c-7.7,0-13.9,6.2-13.9,13.9s6.2,13.9,13.9,13.9c7.7,0,13.9-6.2,13.9-13.9
				S147.3,61.6,139.6,61.6z M139.6,82.7c-4,0-7.2-3.2-7.2-7.2c0-4,3.2-7.2,7.2-7.2c4,0,7.2,3.2,7.2,7.2
				C146.9,79.5,143.6,82.7,139.6,82.7z"/>
			<circle class="st425" cx="139.6" cy="75.5" r="7.2"/>
		</g>
		<line class="st426" x1="121.4" y1="33.9" x2="123.6" y2="34.7"/>
		<path class="st414" d="M118.5,30.7l-0.3,4.7c-0.1,0.9,1,1.4,1.7,0.9c0.8-0.6,1.6-1.5,1.8-2.9c0.2-1.6-0.7-2.7-1.5-3.4
			C119.5,29.5,118.5,29.9,118.5,30.7z"/>
		<path class="st412" d="M58.4,72.1c-0.4,0-0.7,0.1-1,0.3c-0.6,0.3-0.9,1-0.9,1.7v2.1c0,1,0.8,1.8,1.7,1.9c0.1,0,0.2,0,0.2,0H120
			c0.1,0,0.1,0,0.2,0c1-0.1,1.8-0.9,1.8-2v-2.1c0-0.6-0.2-1.1-0.6-1.4c-0.4-0.3-0.8-0.5-1.3-0.5H58.4z"/>
		<path class="st412" d="M3.1,72.7c-0.4,0-0.7,0.1-1.1,0.2c-1.1,0.4-1.5,1.5-1.5,2.8c0,1.7,0.9,3,2.6,3h15c1.7,0,2.5-1.4,2.5-3
			c0-1.1-0.1-2.1-0.9-2.6c-0.5-0.3-1-0.4-1.5-0.4H3.1z"/>
		<path class="st412" d="M172.6,72.9c-0.2-0.2-0.4-0.4-0.7-0.6c-0.4-0.2-0.8-0.3-1.2-0.3h-12c-0.4,0-0.7,0.1-1,0.3
			c-0.2,0.1-0.3,0.2-0.5,0.3c-0.6,0.4-0.9,1.1-0.9,1.9v1.2c0,1.3,1.1,2.4,2.4,2.4h12c1.3,0,2.4-1.1,2.4-2.4v-1.2
			C173.2,73.8,173,73.3,172.6,72.9z"/>
		<path class="st428" d="M75.4,38.3h-5.3c-0.4,0-0.7-0.3-0.7-0.7v-0.1c0-0.4,0.3-0.7,0.7-0.7h5.3c0.4,0,0.7,0.3,0.7,0.7v0.1
			C76.1,38,75.8,38.3,75.4,38.3z"/>
	</g>
</g>
<g id="carsRightLane">
</g>
</svg>
