<?xml version="1.0" encoding="utf-8"?>
<!-- Generator: Adobe Illustrator 19.1.0, SVG Export Plug-In . SVG Version: 6.00 Build 0)  -->
<svg version="1.1" class="car3" xmlns="http://www.w3.org/2000/svg" xmlns:xlink="http://www.w3.org/1999/xlink" x="0px" y="0px"
	 viewBox="0 0 159.8 82.7" style="enable-background:new 0 0 159.8 82.7;" xml:space="preserve">

<g id="carsLeftLane">
	<g id="carBeige_1_">
		<path class="st398" d="M26,30.6C39,30.6,47,30.8,47,30.8l10,0.3l0.7-22.3c0,0-4.2-1-10.7,0.8C27.5,15.3,26,30.6,26,30.6z"/>
		<path class="st398" d="M106.5,30.9c0,0-12.1-17.6-19.4-21.6C84.6,7.8,64.1,8.2,64,9c-0.4,14.4,0,21.7,0,21.7L106.5,30.9z"/>
		<path class="st391" d="M39.9,12.1c1.5,9.6,7.1,18.6,7.1,18.6l10,0.3l0.7-22.3c0,0-4.1-0.7-10.7,0.8C43.3,10.3,39.9,12.1,39.9,12.1
			z"/>
		<path class="st391" d="M106,30.5c0,0-12.1-17.6-19.4-21.6C84,7.4,70.2,7.6,70.4,8.4C74.5,21.5,82,30.5,82,30.5H106z"/>
		<path class="st429" d="M87.2,9.2c-3.4-1.7-22.5-0.7-22.5-0.7l-0.4,11.2L64,30.5h14.5H106C106,30.5,91.9,11.4,87.2,9.2z"/>
		<path class="st429" d="M35.3,15.2c-9.2,8-8.7,15.3-8.7,15.3l30.3,0.5l0.7-22.3C57.7,8.6,44.5,7.1,35.3,15.2z"/>
		<path class="st418" d="M147.2,38.6C147.2,38.6,147.1,38.6,147.2,38.6C147.1,38.6,147.2,38.6,147.2,38.6L147.2,38.6z"/>
		<path class="st430" d="M152.4,45.1C152.3,45.1,152.3,45.1,152.4,45.1C152.3,45.2,152.3,45.2,152.4,45.1c-1.7,0.7-3.8-0.2-4.9-2
			c-0.9-1.5-1-3.3-0.3-4.5c-7.5-6.6-17.1-5.2-27.3-5.7c0,0-21.8-26.8-26-29.4C90,1.1,47-2.8,34.1,5.7S16.4,31.4,16.4,31.4
			s-3,0.6-5.7,2c2,0.6,4,1.6,3.3,3.1C13,38.7,7.8,39.7,6.3,40c-0.9,4.9-1.1,12.1-1.1,12.1S2.8,52.5,2.1,54
			c-0.5,0.9-0.3,8.1-0.2,13.1c0.3-0.1,0.6-0.2,1-0.2h13.8c0.5,0,1,0.2,1.4,0.4c1.9-5.7,6.7-14.5,17.7-14.5c11.6,0,15.6,8.2,17,13.9
			c0.3-0.2,0.6-0.3,1-0.3h56.7c0.5,0,0.9,0.2,1.2,0.5c1.7-5.6,6-13.8,16.4-14.1c11.3-0.3,15.4,8,17,13.7c0.3-0.1,0.6-0.2,1-0.2h11.1
			c0.4,0,0.8,0.1,1.1,0.3C158.3,61.5,156.9,52.7,152.4,45.1z M56.9,30.9l-30.3-0.5c0,0-0.5-7.3,8.7-15.3c9.2-8,22.3-6.6,22.3-6.6
			L56.9,30.9z M78.5,30.5H64l0.4-10.7l0.4-11.2c0,0,19.1-1,22.5,0.7c4.7,2.3,18.7,21.3,18.7,21.3H78.5z"/>
		<path class="st431" d="M147.4,43.1c1.1,1.8,3.2,2.6,4.9,2c-1-1.6-2.1-3.3-3.4-4.7c-0.6-0.6-1.2-1.2-1.8-1.8
			C146.5,39.9,146.5,41.6,147.4,43.1z"/>
		<path class="st421" d="M147.1,38.6L147.1,38.6C147.1,38.6,147.1,38.6,147.1,38.6C147.1,38.6,147.1,38.6,147.1,38.6z"/>
		<path class="st432" d="M147.4,43.1c-0.9-1.5-1-3.2-0.2-4.5c0,0,0,0,0,0c0,0,0,0,0,0C146.4,39.9,146.5,41.6,147.4,43.1z"/>
		<path class="st432" d="M147.4,43.1c1.1,1.8,3.2,2.7,4.9,2.1c0,0,0,0,0,0C150.6,45.8,148.5,45,147.4,43.1z"/>
		<path class="st422" d="M14.1,36.5c0.8-1.4-1.4-2.5-3.3-3.1c-1.5,0.8-2.9,1.9-3.6,3.3c-0.4,0.8-0.6,1.9-0.9,3.2
			C8,40.2,11.7,40.9,14.1,36.5z"/>
		<path class="st423" d="M53.7,71.9c-0.1,0-0.1,0-0.2,0c0,0,0,0,0,0h57c0,0,0,0,0,0c0,0-0.1,0-0.1,0H53.7z"/>
		<g>
			<path class="st400" d="M36,56.2c-7.1,0-12.8,5.7-12.8,12.8S28.9,81.8,36,81.8S48.8,76,48.8,69S43,56.2,36,56.2z M36,75.6
				c-3.7,0-6.6-3-6.6-6.6c0-3.7,3-6.6,6.6-6.6c3.7,0,6.6,3,6.6,6.6C42.6,72.6,39.7,75.6,36,75.6z"/>
			<circle class="st424" cx="36" cy="69" r="6.6"/>
		</g>
		<g>
			<path class="st400" d="M128.5,56.7c-7.1,0-12.8,5.7-12.8,12.8s5.7,12.8,12.8,12.8c7.1,0,12.8-5.7,12.8-12.8
				S135.5,56.7,128.5,56.7z M128.5,76.1c-3.7,0-6.6-3-6.6-6.6c0-3.7,3-6.6,6.6-6.6c3.7,0,6.6,3,6.6,6.6
				C135.1,73.1,132.1,76.1,128.5,76.1z"/>
			<circle class="st425" cx="128.5" cy="69.5" r="6.6"/>
		</g>
		<line class="st426" x1="111.7" y1="31.2" x2="113.8" y2="32"/>
		<path class="st414" d="M109,28.3l-0.3,4.3c-0.1,0.8,0.9,1.3,1.5,0.8c0.8-0.6,1.5-1.4,1.7-2.7c0.2-1.5-0.6-2.5-1.4-3.1
			C109.9,27.1,109.1,27.5,109,28.3z"/>
		<path class="st412" d="M53.7,66.4c-0.3,0-0.7,0.1-1,0.3c-0.5,0.3-0.9,0.9-0.9,1.5v1.9c0,0.9,0.7,1.7,1.6,1.8c0.1,0,0.1,0,0.2,0
			h56.7c0.1,0,0.1,0,0.1,0c0.9-0.1,1.7-0.9,1.7-1.8v-1.9c0-0.5-0.2-1-0.6-1.3c-0.3-0.3-0.8-0.5-1.2-0.5H53.7z"/>
		<path class="st412" d="M2.9,66.9c-0.3,0-0.7,0.1-1,0.2c-1,0.4-1.4,1.4-1.4,2.6c0,1.5,0.8,2.8,2.4,2.8h13.8c1.5,0,2.3-1.3,2.3-2.8
			c0-1-0.1-1.9-0.9-2.4c-0.4-0.2-0.9-0.4-1.4-0.4H2.9z"/>
		<path class="st412" d="M158.8,67.1c-0.2-0.2-0.4-0.4-0.6-0.5c-0.3-0.2-0.7-0.3-1.1-0.3H146c-0.3,0-0.7,0.1-1,0.2
			c-0.1,0.1-0.3,0.2-0.4,0.3c-0.5,0.4-0.8,1-0.8,1.7v1.1c0,1.2,1,2.2,2.2,2.2h11.1c1.2,0,2.2-1,2.2-2.2v-1.1
			C159.3,67.9,159.1,67.4,158.8,67.1z"/>
		<path class="st428" d="M69.4,35.3h-4.8c-0.4,0-0.7-0.3-0.7-0.7v0c0-0.4,0.3-0.7,0.7-0.7h4.8c0.4,0,0.7,0.3,0.7,0.7v0
			C70,35,69.7,35.3,69.4,35.3z"/>
	</g>
</g>
<g id="carsRightLane">
</g>
</svg>
