<?xml version="1.0" encoding="utf-8"?>
<!-- Generator: Adobe Illustrator 19.1.0, SVG Export Plug-In . SVG Version: 6.00 Build 0)  -->
<svg version="1.1" class="car4" xmlns="http://www.w3.org/2000/svg" xmlns:xlink="http://www.w3.org/1999/xlink" x="0px" y="0px"
	 viewBox="0 0 179.6 92.9" style="enable-background:new 0 0 179.6 92.9;" xml:space="preserve">
<g id="carsRightLane">
	<g id="carGray_2_">
		<path class="st398" d="M29.1,34.2c14.7,0,23.7,0.2,23.7,0.2L64,34.7l0.8-25.1c0,0-4.7-1.2-12,0.9C30.8,16.9,29.1,34.2,29.1,34.2z"
			/>
		<path class="st391" d="M44.8,13.5c1.7,10.8,8,20.9,8,20.9L64,34.7l0.8-25.1c0,0-4.6-0.8-12,0.9C48.6,11.5,44.8,13.5,44.8,13.5z"/>
		<path class="st398" d="M119.7,34.4c0,0-13.6-19.7-21.8-24.3c-2.9-1.6-26-1.2-26-0.3c-0.4,16.2,0,24.4,0,24.4L119.7,34.4z"/>
		<path class="st391" d="M119.1,34.2c0,0-13.6-19.7-21.8-24.3c-2.9-1.6-18.4-1.4-18.2-0.5c4.6,14.8,13.1,24.8,13.1,24.8H119.1z"/>
		<path class="st417" d="M98,10.3c-3.8-1.9-25.3-0.8-25.3-0.8l-0.4,12.6l-0.4,12.1h16.3h30.9C119.1,34.2,103.3,12.8,98,10.3z"/>
		<path class="st417" d="M39.7,17c-10.4,9-9.8,17.2-9.8,17.2L64,34.7l0.8-25.1C64.8,9.6,50,8,39.7,17z"/>
		<path class="st418" d="M165.5,43.4C165.4,43.4,165.4,43.4,165.5,43.4C165.4,43.4,165.4,43.4,165.5,43.4
			C165.5,43.4,165.5,43.4,165.5,43.4z"/>
		<path class="st435" d="M171.3,50.7C171.3,50.7,171.3,50.7,171.3,50.7C171.3,50.7,171.3,50.7,171.3,50.7c-1.9,0.8-4.3-0.2-5.6-2.2
			c-1-1.7-1.1-3.7-0.3-5.1c-8.4-7.5-19.2-5.8-30.7-6.4c0,0-24.5-30.2-29.2-33c-4.3-2.7-52.7-7.1-67.2,2.5S18.4,35.3,18.4,35.3
			S15,35.9,12,37.5c2.2,0.7,4.5,1.8,3.7,3.5c-1.2,2.5-7.1,3.6-8.7,3.9c-1,5.5-1.2,13.6-1.2,13.6S3.1,59,2.3,60.7
			c-0.5,1.1-0.4,9.1-0.2,14.7c0.3-0.1,0.7-0.2,1.1-0.2h15.5c0.6,0,1.1,0.2,1.6,0.5c2.2-6.4,7.5-16.3,20-16.3
			c13,0,17.5,9.2,19.1,15.6c0.3-0.2,0.7-0.3,1.1-0.3h63.7c0.5,0,1,0.2,1.4,0.6c1.9-6.3,6.7-15.5,18.4-15.9
			c12.7-0.4,17.4,9,19.1,15.4c0.3-0.2,0.7-0.3,1.1-0.3h12.5c0.5,0,0.9,0.1,1.2,0.4C178,69.1,176.4,59.3,171.3,50.7z M64,34.7
			l-34.1-0.5c0,0-0.5-8.2,9.8-17.2C50,8,64.8,9.6,64.8,9.6L64,34.7z M88.2,34.2H71.9l0.4-12.1l0.4-12.6c0,0,21.5-1.1,25.3,0.8
			c5.2,2.5,21.1,23.9,21.1,23.9H88.2z"/>
		<path class="st420" d="M165.7,48.4c1.3,2.1,3.6,3,5.5,2.3c-1.1-1.8-2.4-3.7-3.8-5.3c-0.6-0.7-1.3-1.4-2-2
			C164.6,44.8,164.7,46.8,165.7,48.4z"/>
		<path class="st421" d="M165.4,43.3L165.4,43.3C165.4,43.3,165.4,43.3,165.4,43.3C165.4,43.4,165.4,43.3,165.4,43.3z"/>
		<path class="st421" d="M165.7,48.4c-1-1.7-1.1-3.6-0.3-5.1c0,0,0,0,0,0c0,0,0,0,0,0C164.6,44.8,164.7,46.8,165.7,48.4z"/>
		<path class="st421" d="M165.7,48.4c1.3,2.1,3.6,3,5.6,2.3c0,0,0,0,0-0.1C169.3,51.4,167,50.5,165.7,48.4z"/>
		<path class="st422" d="M15.8,41c0.9-1.6-1.5-2.8-3.7-3.5c-1.7,0.9-3.3,2.2-4,3.8c-0.4,0.9-0.7,2.2-1,3.6C8.9,45.1,13,45.9,15.8,41
			z"/>
		<path class="st423" d="M60.4,80.9c-0.1,0-0.2,0-0.2,0c0,0,0,0,0,0h64.2c0,0,0,0,0,0c-0.1,0-0.1,0-0.2,0H60.4z"/>
		<g>
			<path class="st400" d="M40.4,63.1c-7.9,0-14.4,6.4-14.4,14.4s6.4,14.4,14.4,14.4s14.4-6.4,14.4-14.4S48.4,63.1,40.4,63.1z
				 M40.4,85c-4.1,0-7.5-3.3-7.5-7.5s3.3-7.5,7.5-7.5c4.1,0,7.5,3.3,7.5,7.5S44.5,85,40.4,85z"/>
			<circle class="st424" cx="40.4" cy="77.5" r="7.5"/>
		</g>
		<g>
			<path class="st400" d="M144.4,63.7c-7.9,0-14.4,6.4-14.4,14.4s6.4,14.4,14.4,14.4c7.9,0,14.4-6.4,14.4-14.4
				S152.4,63.7,144.4,63.7z M144.4,85.5c-4.1,0-7.5-3.3-7.5-7.5c0-4.1,3.3-7.5,7.5-7.5c4.1,0,7.5,3.3,7.5,7.5
				C151.9,82.2,148.5,85.5,144.4,85.5z"/>
			<circle class="st425" cx="144.4" cy="78" r="7.5"/>
		</g>
		<line class="st426" x1="125.6" y1="35.1" x2="127.9" y2="35.9"/>
		<path class="st414" d="M122.5,31.7l-0.3,4.9c-0.1,0.9,1,1.4,1.7,0.9c0.8-0.6,1.7-1.6,1.9-3c0.2-1.7-0.7-2.8-1.6-3.5
			C123.6,30.5,122.6,30.9,122.5,31.7z"/>
		<path class="st412" d="M60.4,74.6c-0.4,0-0.8,0.1-1.1,0.3c-0.6,0.4-1,1-1,1.7v2.2c0,1,0.8,1.9,1.8,2c0.1,0,0.2,0,0.2,0h63.7
			c0.1,0,0.1,0,0.2,0c1-0.1,1.9-1,1.9-2v-2.2c0-0.6-0.3-1.1-0.6-1.5c-0.4-0.3-0.9-0.6-1.4-0.6H60.4z"/>
		<path class="st412" d="M3.2,75.2c-0.4,0-0.8,0.1-1.1,0.2c-1.2,0.4-1.6,1.6-1.6,2.9c0,1.7,0.9,3.1,2.7,3.1h15.5
			c1.7,0,2.6-1.4,2.6-3.1c0-1.1-0.1-2.1-1-2.7c-0.5-0.3-1-0.5-1.6-0.5H3.2z"/>
		<path class="st412" d="M178.5,75.3c-0.2-0.2-0.4-0.4-0.7-0.6c-0.4-0.2-0.8-0.4-1.2-0.4h-12.5c-0.4,0-0.8,0.1-1.1,0.3
			c-0.2,0.1-0.3,0.2-0.5,0.3c-0.6,0.5-1,1.2-1,1.9v1.2c0,1.4,1.1,2.5,2.5,2.5h12.5c1.4,0,2.5-1.1,2.5-2.5v-1.2
			C179.1,76.3,178.9,75.8,178.5,75.3z"/>
		<path class="st428" d="M78,39.6h-5.5c-0.4,0-0.7-0.3-0.7-0.7v-0.1c0-0.4,0.3-0.7,0.7-0.7H78c0.4,0,0.7,0.3,0.7,0.7v0.1
			C78.7,39.3,78.4,39.6,78,39.6z"/>
	</g>
</g>
</svg>
