<?xml version="1.0" encoding="utf-8"?>
<!-- Generator: Adobe Illustrator 19.1.0, SVG Export Plug-In . SVG Version: 6.00 Build 0)  -->
<svg version="1.1" class="cloud5" xmlns="http://www.w3.org/2000/svg" xmlns:xlink="http://www.w3.org/1999/xlink" x="0px" y="0px"
	 viewBox="0 0 505.6 174.4" style="enable-background:new 0 0 505.6 174.4;" xml:space="preserve">
<g id="sky">
	<path id="cloud01_1_" class="st53" d="M12.1,138.4h16.5c-2-5.1-3.1-10.6-3.1-16.4c0-25,20.8-45.3,46.4-45.3
		c19.4,0,36,11.7,42.9,28.2c5.8-12.8,17.3-21.6,30.6-21.6c3,0,6,0.5,8.8,1.3c0.6-33.2,23.1-66,57.2-79.1
		c41.2-15.8,83.5,3.3,94.6,42.7c0.7,2.3,1.2,4.7,1.6,7c8.1-2.9,17.3-3.7,26.8-1.7c13.8,2.8,25.4,10.7,33,21.2
		c7.8-5.7,17.6-9.1,28.3-9.1c24.9,0,45.2,18.4,45.2,41.2c0,5.9-1.4,11.6-3.9,16.7h22.2c6.6,0,12.1,6.4,12.1,14.1v3.5h22.3
		c6.6,0,12.1,6.4,12.1,14.1s-5.4,14.1-12.1,14.1H324.8c-5,0-9.3-3.6-11.1-8.6h-77.2c-0.1,7.6-5.5,13.8-12.1,13.8H12.1
		C5.4,174.4,0,168,0,160.3l0-7.7C0,144.8,5.4,138.4,12.1,138.4z"/>
</g>
</svg>
