<?xml version="1.0" encoding="utf-8"?>
<!-- Generator: Adobe Illustrator 19.1.0, SVG Export Plug-In . SVG Version: 6.00 Build 0)  -->
<svg version="1.1" class="cloud7" xmlns="http://www.w3.org/2000/svg" xmlns:xlink="http://www.w3.org/1999/xlink" x="0px" y="0px"
	 viewBox="0 0 188.2 62.3" style="enable-background:new 0 0 188.2 62.3;" xml:space="preserve">
<g id="sky">
	<path id="cloud04_2_" class="st53" d="M181.9,46.2h-3.5c0.9-2,1.3-4.2,1.3-6.5c0-9-7.3-16.2-16.2-16.2c-1.3,0-2.6,0.2-3.9,0.5
		c-4.5-5.9-12.5-9.8-21.7-9.8c-2.5,0-5,0.3-7.3,0.9C125.6,6.2,114.5,0,101.6,0C90.1,0,80.1,4.9,74.4,12.3c-1.6-0.4-3.2-0.6-4.9-0.6
		c-11.3,0-20.4,9.1-20.4,20.4c0,0.6,0,1.2,0.1,1.8c0,0-0.1,0-0.1,0c-2.8,0-5.5,1-7.6,2.6c-3.2-2.8-7.8-4.6-12.9-4.6
		c-9.7,0-17.5,6.4-17.5,14.3c0,1.2,0.2,2.4,0.5,3.5H6.3C2.8,49.7,0,52.6,0,56c0,3.5,2.8,6.3,6.3,6.3h112.9c2.4,0,4.6-1.4,5.6-3.5
		h57.1c3.5,0,6.3-2.8,6.3-6.3l0,0C188.2,49.1,185.4,46.2,181.9,46.2z"/>
</g>
</svg>
