<?xml version="1.0" encoding="utf-8"?>
<!-- Generator: Adobe Illustrator 19.1.0, SVG Export Plug-In . SVG Version: 6.00 Build 0)  -->
<svg version="1.1" class="cloud4" xmlns="http://www.w3.org/2000/svg" xmlns:xlink="http://www.w3.org/1999/xlink" x="0px" y="0px"
	 viewBox="0 0 280.8 102.3" style="enable-background:new 0 0 280.8 102.3;" xml:space="preserve">

<g id="sky">
	<path id="cloud03_2_" class="st53" d="M274.1,81.2h-9.2c1.1-3,1.7-6.2,1.7-9.6c0-14.7-11.5-26.6-25.8-26.6
		c-10.8,0-20,6.8-23.8,16.5c-3.2-7.5-9.6-12.7-17-12.7c-1.7,0-3.3,0.3-4.9,0.8c-0.3-19.5-12.9-38.7-31.7-46.4
		c-22.9-9.3-46.4,1.9-52.5,25c-0.4,1.4-0.6,2.7-0.9,4.1c-4.5-1.7-9.6-2.1-14.9-1c-7.6,1.6-14.1,6.3-18.4,12.4
		c-4.3-3.3-9.8-5.3-15.7-5.3C47.2,38.4,36,49.3,36,62.6c0,3.5,0.8,6.8,2.1,9.8H25.8c-3.7,0-6.7,3.7-6.7,8.3v2H6.7
		C3,82.7,0,86.4,0,91s3,8.3,6.7,8.3h93.7c2.8,0,5.1-2.1,6.2-5.1h42.9c0.1,4.5,3.1,8.1,6.7,8.1h117.9c3.7,0,6.7-3.7,6.7-8.3v-4.5
		C280.8,84.9,277.8,81.2,274.1,81.2z"/>
</g>
<g id="carsLeftLane">
</g>
<g id="carsRightLane">
</g>
</svg>
