<?xml version="1.0" encoding="utf-8"?>
<!-- Generator: Adobe Illustrator 19.1.0, SVG Export Plug-In . SVG Version: 6.00 Build 0)  -->
<svg version="1.1" class="cloud6" xmlns="http://www.w3.org/2000/svg" xmlns:xlink="http://www.w3.org/1999/xlink" x="0px" y="0px"
	 viewBox="0 0 354.6 117.4" style="enable-background:new 0 0 354.6 117.4;" xml:space="preserve">

<g id="sky">
	<path id="cloud02_2_" class="st53" d="M345.2,93.6h-12.7c0.6-2.1,1-4.3,1-6.5c0-14.9-14.8-26.9-32.9-26.9
		c-9.6,0-18.2,3.3-24.2,8.7c-3.9-3.1-8.9-4.9-14.2-4.9c-0.1,0-0.1,0-0.2,0c0.1-1.1,0.2-2.3,0.2-3.4c0-21.2-17.2-38.4-38.4-38.4
		c-3.2,0-6.3,0.4-9.2,1.1C203.7,9.3,184.8,0,163.2,0c-24.2,0-45.1,11.7-54.8,28.5c-4.4-1.1-9-1.6-13.7-1.6
		c-17.2,0-32.3,7.4-40.8,18.4c-2.4-0.6-4.8-0.9-7.3-0.9c-16.9,0-30.6,13.7-30.6,30.6c0,4.3,0.9,8.4,2.5,12.2H9.3
		c-5.1,0-9.3,4.2-9.3,9.3v5.1c0,5.1,4.2,9.3,9.3,9.3h109.3c1.2,3.8,4.7,6.5,8.9,6.5h217.7c5.1,0,9.3-4.2,9.3-9.3V103
		C354.6,97.8,350.4,93.6,345.2,93.6z"/>
</g>
<g id="carsLeftLane">
</g>
<g id="carsRightLane">
</g>
</svg>
