<?xml version="1.0" encoding="utf-8"?>
<!-- Generator: Adobe Illustrator 19.1.0, SVG Export Plug-In . SVG Version: 6.00 Build 0)  -->
<svg version="1.1" class="duckboat" xmlns="http://www.w3.org/2000/svg" xmlns:xlink="http://www.w3.org/1999/xlink" x="0px" y="0px"
	 viewBox="0 0 434.1 147.4" style="enable-background:new 0 0 434.1 147.4;" xml:space="preserve">

<g id="carsRightLane">
	<g id="duckBoat_2_">
		<polyline class="st437" points="403,111.7 422.7,112.3 422.7,115.3 414.6,115.3 414.6,100.3 		"/>
		<path class="st438" d="M126.6,11c0,0-0.1,12,7.5,12.8c7.6,0.9,164.8,4.1,164.8,4.1l0.1-12L126.6,11z"/>
		<g id="wheel_2_">
			<path class="st439" d="M348,103.9c-11.9,0-21.5,9.6-21.5,21.5s9.6,21.5,21.5,21.5s21.5-9.6,21.5-21.5S359.9,103.9,348,103.9z
				 M348,136.6c-6.2,0-11.1-5-11.1-11.1c0-6.2,5-11.1,11.1-11.1c6.2,0,11.1,5,11.1,11.1C359.1,131.6,354.2,136.6,348,136.6z"/>
			<circle class="st440" cx="348" cy="125.4" r="11.1"/>
		</g>
		<g id="wheel2_2_">
			<path class="st439" d="M176.1,102.8c-11.9,0-21.5,9.6-21.5,21.5s9.6,21.5,21.5,21.5c11.9,0,21.5-9.6,21.5-21.5
				S188,102.8,176.1,102.8z M176.1,135.5c-6.2,0-11.1-5-11.1-11.1c0-6.2,5-11.1,11.1-11.1c6.2,0,11.1,5,11.1,11.1
				C187.2,130.5,182.2,135.5,176.1,135.5z"/>
			<circle class="st441" cx="176.1" cy="124.3" r="11.1"/>
		</g>
		<g id="wheel3_2_">
			<path class="st439" d="M129.1,102.8c-11.9,0-21.5,9.6-21.5,21.5s9.6,21.5,21.5,21.5c11.9,0,21.5-9.6,21.5-21.5
				S140.9,102.8,129.1,102.8z M129.1,135.5c-6.2,0-11.1-5-11.1-11.1s5-11.1,11.1-11.1c6.2,0,11.1,5,11.1,11.1
				S135.2,135.5,129.1,135.5z"/>
			<circle class="st441" cx="129.1" cy="124.3" r="11.1"/>
		</g>
		<path class="st442" d="M337.9,34.8l0,0.6l0.9,12.3l5.2,0.6c0,0,1.5-14.8-3.4-14.8L337.9,34.8z"/>
		<line class="st443" x1="342.2" y1="48.1" x2="341.6" y2="55.7"/>
		<line class="st444" x1="15.5" y1="48.1" x2="5.1" y2="7.9"/>
		<line class="st445" x1="19.4" y1="48.4" x2="21.4" y2="8.6"/>
		<line class="st445" x1="54.7" y1="9.3" x2="52.5" y2="53.8"/>
		<line class="st445" x1="109.1" y1="10.8" x2="107.6" y2="55.2"/>
		<line class="st445" x1="170.6" y1="12.5" x2="169" y2="57.8"/>
		<line class="st446" x1="413.2" y1="43.2" x2="413.8" y2="60.8"/>
		<line class="st445" x1="232.7" y1="14" x2="231.1" y2="59.9"/>
		<path class="st447" d="M405.9,60.3v-3.5L345,56.2l-47-3.5v9.6L19.8,52.7v-4.3h-6.8l5.6,43.8C38,119,73.4,126,88.9,123.6
			c11.7-1.9,22.8-22.8,22.8-22.8h82c7.4,9.3,7.9,21.6,7.9,21.6h116.7V110l8-8l42.6-0.6l6.2,6.2l0.6,14.8h10.5
			c30.8-14.8,47.5-47.5,47.5-47.5V62.2L405.9,60.3z"/>
		<ellipse class="st446" cx="412.3" cy="45.7" rx="1" ry="4.8"/>
		<g>
			<line class="st448" x1="14.4" y1="58.7" x2="408.5" y2="71.4"/>
			<line class="st448" x1="16.1" y1="72" x2="428.7" y2="82.1"/>
			<line class="st448" x1="18" y1="87.3" x2="420.8" y2="93.1"/>
			<line class="st448" x1="28.2" y1="102.8" x2="109.9" y2="102.8"/>
			<line class="st448" x1="195.4" y1="102.3" x2="324.9" y2="102.8"/>
			<line class="st448" x1="370.9" y1="102.8" x2="412.3" y2="103"/>
			<line class="st448" x1="47.9" y1="115.3" x2="101.1" y2="115.3"/>
			<line class="st448" x1="200.3" y1="113.2" x2="317.4" y2="113.2"/>
			<line class="st448" x1="375.7" y1="112.3" x2="401.3" y2="112.3"/>
		</g>
		<line class="st444" x1="299.4" y1="16.2" x2="298.3" y2="52.7"/>
		<line class="st443" x1="334" y1="22.6" x2="335.3" y2="55.5"/>
		<g>
			<path class="st5" d="M336.8,23.7L299,16.7L1,8.3C0.7,8.3,0.5,8,0.5,7.8L0.7,1c0-0.1,0.1-0.3,0.2-0.3c0.1-0.1,0.2-0.1,0.3-0.1
				c0,0,298.4,8.4,298.4,8.4c0.1,0,0.3,0.1,0.4,0.2s0.1,0.2,0.1,0.4l-0.1,1.2L337,22.8c0.3,0.1,0.4,0.3,0.3,0.6
				C337.3,23.6,337.1,23.7,336.8,23.7C336.8,23.7,336.8,23.7,336.8,23.7z"/>
			<path class="st428" d="M1.2,1l298.4,8.4l-0.2,1.6l37.5,12.2l-37.7-7.1L1,7.8L1.2,1 M1.2,0C0.9,0,0.7,0.1,0.5,0.3
				C0.3,0.5,0.2,0.7,0.2,1L0,7.8c0,0.6,0.4,1,1,1L299,17.2l37.6,7.1c0.1,0,0.1,0,0.2,0c0.4,0,0.9-0.3,1-0.8c0.1-0.5-0.2-1-0.7-1.2
				l-36.7-12l0.1-0.8c0-0.3-0.1-0.6-0.2-0.8s-0.4-0.3-0.7-0.3L1.2,0C1.2,0,1.2,0,1.2,0L1.2,0z"/>
		</g>
		<line class="st448" x1="299" y1="55.2" x2="431.7" y2="64.2"/>
		<g>
			<line class="st449" x1="14.4" y1="57.7" x2="408.5" y2="70.4"/>
			<line class="st449" x1="16.1" y1="71" x2="428.7" y2="81.1"/>
			<line class="st449" x1="18" y1="86.3" x2="420.8" y2="92.1"/>
			<line class="st449" x1="28.2" y1="101.8" x2="109.9" y2="101.8"/>
			<line class="st449" x1="195.4" y1="101.3" x2="324.9" y2="101.8"/>
			<line class="st449" x1="370.9" y1="101.8" x2="412.3" y2="102"/>
			<line class="st449" x1="47.9" y1="114.3" x2="101.1" y2="114.3"/>
			<line class="st449" x1="200.3" y1="112.2" x2="317.4" y2="112.2"/>
			<line class="st449" x1="375.7" y1="111.3" x2="401.3" y2="111.3"/>
		</g>
		<line class="st449" x1="299" y1="54.2" x2="431.7" y2="63.2"/>
	</g>
</g>
</svg>
