<?xml version="1.0" encoding="utf-8"?>
<!-- Generator: Adobe Illustrator 19.1.0, SVG Export Plug-In . SVG Version: 6.00 Build 0)  -->
<svg version="1.1" class="truck2" xmlns="http://www.w3.org/2000/svg" xmlns:xlink="http://www.w3.org/1999/xlink" x="0px" y="0px"
	 viewBox="0 0 685.4 193.8" style="enable-background:new 0 0 685.4 193.8;" xml:space="preserve">

<g id="carsRightLane">
	<g id="truckBlue_2_">
		<polyline class="st398" points="487.6,64.8 471.6,25.6 433.6,25.6 434.5,65.9 		"/>
		<polyline class="st391" points="487.5,64.8 471.6,25.6 433.5,25.6 461.1,65.2 		"/>
		<g>
			<path class="st419" d="M478.1,11.7h-61.3v94.2c5.1-2.4,10.7-3.8,16.7-3.8c8.1,0,15.5,2.5,21.8,6.6h46.9V73L478.1,11.7z
				 M434.5,65.9l-0.9-40.4h38l16,39.3L434.5,65.9z"/>
		</g>
		<g>
			<path class="st400" d="M163.7,116.8c-14.9,0-27,12.1-27,27c0,14.9,12.1,27,27,27c14.9,0,27-12.1,27-27
				C190.7,128.9,178.6,116.8,163.7,116.8z M163.7,157.8c-7.7,0-14-6.3-14-14c0-7.7,6.3-14,14-14c7.7,0,14,6.3,14,14
				C177.7,151.6,171.5,157.8,163.7,157.8z"/>
			<circle class="st401" cx="163.7" cy="143.8" r="14"/>
		</g>
		<g>
			<path class="st400" d="M433.6,116.8c-14.9,0-27,12.1-27,27c0,14.9,12.1,27,27,27s27-12.1,27-27
				C460.6,128.9,448.5,116.8,433.6,116.8z M433.6,157.8c-7.7,0-14-6.3-14-14c0-7.7,6.3-14,14-14s14,6.3,14,14
				C447.6,151.6,441.3,157.8,433.6,157.8z"/>
			<circle class="st401" cx="433.6" cy="143.8" r="14"/>
		</g>
		<path class="st450" d="M26.5,108.8h116c6.2-4.2,13.7-6.6,21.7-6.6c8.1,0,15.5,2.5,21.8,6.6h224.3V0H0.5v111.7h22.6l0.1-0.1
			C23.4,110,24.8,108.8,26.5,108.8z"/>
		<path class="st403" d="M503.5,108.8h-1.3h-46.9c-6.2-4.2-13.7-6.6-21.8-6.6c-6,0-11.6,1.4-16.7,3.8c-1.8,0.8-3.4,1.8-5,2.9h-1.5
			H186c-6.2-4.2-13.7-6.6-21.8-6.6c-8.1,0-15.5,2.5-21.7,6.6h-116c-1.7,0-3.1,1.3-3.3,2.9c0,0.2-0.1,0.3-0.1,0.5v18.1
			c0,1.9,1.5,3.4,3.4,3.4h99.4c-0.4,1.9-0.7,3.7-0.8,5.7h-2.4c-0.8,0-1.5,0.7-1.5,1.5v0.5c0,0.8,0.7,1.5,1.5,1.5h9
			c0.8,0,1.5-0.7,1.5-1.5v-0.4c0-2.5,0.4-4.9,1-7.3c2.7-10.4,10.6-18.7,20.8-21.9c2.9-0.9,6-1.4,9.2-1.4c3.2,0,6.3,0.5,9.2,1.4
			c10.2,3.2,18.2,11.5,20.8,21.9c0.6,2.5,1,5.1,1,7.7h0.1v0.1c0,0.8,0.7,1.5,1.5,1.5h9c0.8,0,1.5-0.7,1.5-1.5v-0.5
			c0-0.8-0.7-1.5-1.5-1.5h-2.5c-0.1-2-0.4-3.9-0.8-5.8h192.7c-0.4,1.9-0.7,3.7-0.8,5.7H392c-0.8,0-1.5,0.7-1.5,1.5v0.5
			c0,0.8,0.7,1.5,1.5,1.5h9c0.8,0,1.5-0.7,1.5-1.5v-0.4c0-2.5,0.4-4.9,1-7.3c2-7.7,6.8-14.2,13.3-18.4c4.8-3.1,10.5-4.9,16.7-4.9
			c7.2,0,13.8,2.4,19,6.5c5.3,4.2,9.3,10,11,16.8c0.6,2.5,1,5.1,1,7.7h0.1v0.1c0,0.8,0.7,1.5,1.5,1.5h9c0.8,0,1.5-0.7,1.5-1.5v-0.5
			c0-0.8-0.7-1.5-1.5-1.5h-2.5c-0.1-2-0.4-3.9-0.8-5.8h31.7c1.9,0,3.4-1.5,3.4-3.4v-18.1C506.9,110.3,505.4,108.8,503.5,108.8z"/>
		<path class="st404" d="M442.9,72.5h-7.3c-0.6,0-1-0.4-1-1v-0.4c0-0.6,0.4-1,1-1h7.3c0.5,0,1,0.4,1,1v0.4
			C443.9,72,443.4,72.5,442.9,72.5z"/>
		<rect x="494" y="99.1" class="st405" width="8.2" height="3.6"/>
		<rect x="494" y="92.7" class="st5" width="8.2" height="6.4"/>
	</g>
</g>
</svg>
