<?xml version="1.0" encoding="utf-8"?>
<!-- Generator: Adobe Illustrator 19.1.0, SVG Export Plug-In . SVG Version: 6.00 Build 0)  -->
<svg version="1.1" class="truck1" xmlns="http://www.w3.org/2000/svg" xmlns:xlink="http://www.w3.org/1999/xlink" x="0px" y="0px"
	 viewBox="0 0 288.6 156.3" style="enable-background:new 0 0 288.6 156.3;" xml:space="preserve">

<g id="carsLeftLane">
	<g id="truckGreen_1_">
		<polyline class="st398" points="270.6,59.4 256.1,23.7 221.5,23.7 222.3,60.4 		"/>
		<polyline class="st391" points="270.5,59.4 256,23.7 221.4,23.7 246.5,59.7 		"/>
		<g>
			<path class="st399" d="M262,11.1h-55.7v85.7c4.6-2.2,9.7-3.4,15.2-3.4c7.3,0,14.1,2.2,19.8,6h42.7V66.9L262,11.1z M222.3,60.4
				l-0.8-36.7H256l14.5,35.7L222.3,60.4z"/>
		</g>
		<g>
			<path class="st400" d="M76.2,106.7c-13.6,0-24.6,11-24.6,24.6c0,13.6,11,24.6,24.6,24.6c13.6,0,24.6-11,24.6-24.6
				C100.7,117.7,89.7,106.7,76.2,106.7z M76.2,144c-7,0-12.7-5.7-12.7-12.7c0-7,5.7-12.7,12.7-12.7c7,0,12.7,5.7,12.7,12.7
				C88.9,138.3,83.2,144,76.2,144z"/>
			<circle class="st401" cx="76.2" cy="131.2" r="12.7"/>
		</g>
		<g>
			<path class="st400" d="M221.5,106.7c-13.6,0-24.6,11-24.6,24.6s11,24.6,24.6,24.6c13.6,0,24.6-11,24.6-24.6
				S235,106.7,221.5,106.7z M221.5,144c-7,0-12.7-5.7-12.7-12.7c0-7,5.7-12.7,12.7-12.7c7,0,12.7,5.7,12.7,12.7
				C234.2,138.3,228.5,144,221.5,144z"/>
			<circle class="st401" cx="221.5" cy="131.2" r="12.7"/>
		</g>
		<path class="st402" d="M24.1,99.4h32.7c5.7-3.8,12.4-6,19.8-6c7.3,0,14.1,2.2,19.8,6h103.9V0.5H0.5V102h20.6l0-0.1
			C21.3,100.5,22.6,99.4,24.1,99.4z"/>
		<path class="st403" d="M285.1,99.4h-1.2h-42.7c-5.7-3.8-12.4-6-19.8-6c-5.4,0-10.6,1.2-15.2,3.4c-1.6,0.8-3.1,1.6-4.6,2.6h-1.4
			H96.4c-5.7-3.8-12.4-6-19.8-6c-7.3,0-14.1,2.2-19.8,6H24.1c-1.5,0-2.8,1.1-3,2.6c0,0.2,0,0.3,0,0.5v16.4c0,1.7,1.4,3.1,3.1,3.1
			h17.6c-0.3,1.7-0.6,3.4-0.7,5.2h-2.2c-0.7,0-1.3,0.6-1.3,1.3v0.5c0,0.7,0.6,1.3,1.3,1.3h8.2c0.7,0,1.3-0.6,1.3-1.3v-0.4
			c0-2.3,0.4-4.5,0.9-6.6c2.4-9.5,9.7-17,18.9-19.9c2.6-0.8,5.4-1.3,8.4-1.3c2.9,0,5.7,0.5,8.4,1.3c9.3,2.9,16.5,10.4,18.9,19.9
			c0.6,2.2,0.9,4.6,0.9,7h0.1v0.1c0,0.7,0.6,1.3,1.3,1.3h8.2c0.7,0,1.3-0.6,1.3-1.3v-0.5c0-0.7-0.6-1.3-1.3-1.3h-2.3
			c-0.1-1.8-0.3-3.6-0.7-5.3h75.2c-0.3,1.7-0.6,3.4-0.7,5.2h-2.2c-0.7,0-1.3,0.6-1.3,1.3v0.5c0,0.7,0.6,1.3,1.3,1.3h8.2
			c0.7,0,1.3-0.6,1.3-1.3v-0.4c0-2.3,0.4-4.5,0.9-6.6c1.8-7,6.2-12.9,12.1-16.7c4.4-2.8,9.6-4.5,15.2-4.5c6.5,0,12.5,2.2,17.3,5.9
			c4.9,3.8,8.4,9.1,10,15.3c0.6,2.2,0.9,4.6,0.9,7h0.1v0.1c0,0.7,0.6,1.3,1.3,1.3h8.2c0.7,0,1.3-0.6,1.3-1.3v-0.5
			c0-0.7-0.6-1.3-1.3-1.3H257c-0.1-1.8-0.3-3.6-0.7-5.3h28.8c1.7,0,3.1-1.4,3.1-3.1v-16.4C288.1,100.8,286.8,99.4,285.1,99.4z"/>
		<path class="st404" d="M229.8,66.4h-6.4c-0.5,0-1-0.4-1-1v-0.2c0-0.6,0.5-1,1-1h6.4c0.5,0,1,0.4,1,1v0.2
			C230.8,66,230.4,66.4,229.8,66.4z"/>
		<rect x="276.4" y="90.6" class="st405" width="7.4" height="3.3"/>
		<rect x="276.4" y="84.8" class="st5" width="7.4" height="5.8"/>
	</g>
</g>
</svg>
