<svg version="1.1" id="bg2" xmlns="http://www.w3.org/2000/svg" xmlns:xlink="http://www.w3.org/1999/xlink" x="0px" y="0px"
	 viewBox="0 0 7146.2 1633.2" style="enable-background:new 0 0 7146.2 1633.2;" xml:space="preserve">

<g id="bg_buildings">
	<path id="bgBuildings01" 
		data-0="fill:rgba(180,204,209,.95);"
  		data-600="fill:rgba(149,189,217,.95);"
  		data-2500="fill:rgba(149,189,217,.95);"
  		data-3500="fill:rgba(90,100,145,.95);"
  		data-6000="fill:rgba(90,75,112,.95);"
  		data-8000="fill:rgba(48,66,106,.95);"
  		data-9000="fill:rgba(22,58,92,.95);"

	 d="M7146.2,1633.2V166.9h-179.6v-55.8h-198.2v31.8h-140.3v83.8h-85V39.8h-17.7v20.1H6505
		h-107.5h-20.4V39.8h-17.7v163.7H6329l-89,27.4v-36.7h-106.7v-59.3h-38.1v26.3h-21.9c-24.4-21.8-58.6-35.4-96.4-35.4
		s-72,13.6-96.4,35.4h-21.9v-26.3h-38.1v68.6h-172.1v26.2l-129.9-36.2l-141.3,40v57.5h-48.3v-76.3l-38.1,59.7v16.6h-75.1v-49.1
		h-88.2v-63.9h-38.1v63.9h-35.3v-27.2l-38.1,22.3v4.9h-73.6v-47.1h-69v-51.8h-183.9v83.8h-73.3v-83.8h-205.5v61.7h-187v98.4h-62.4
		v-69.6l-48.1-40l-36.3,30.7V0h-100.5v172.1l-48.6-19.5l-109.1,44.6v202.7h-33.7v-96.8h-61.9v25.3c-18-9.9-42.1-15.9-68.6-15.9
		c-18.3,0-35.5,2.9-50.4,7.9v-36.9l-50-33.4v-52.9l-110.9-44.6l-109.1,44.6v52.9l-0.4-0.3l-49.6,33.7v33.4l-69.7,25.2V125.8h-60.5
		V22.9H2970v175.7H2876v202.1l-98.6-75.2v-92.1l-18.1-5.1v-16.9h-40v5.8l-85.5-23.8l-141.3,40v47.2h-62.3v-83.1h-164.1v53.2
		c0,0-0.1,0-0.1,0c-30.8,0-58,8.2-74.1,20.7v-45.2h-164.1v41.5h-61.6v27.8h-110.3v-50.1l-34-17.9v68H1805v-41.3h-34v41.3h-48.7V345
		h-39.3v-31.3l-64.4-27.9V345h-40.5v-46.1l-126.1-22.1l-115.9,20v-21.9h-153.5v-55h-34v21.1h-8.8c-21.8-23.2-57-38.4-96.8-38.4
		c-39.8,0-75.1,15.1-96.8,38.4h-8.8v-21.1h-34v47.6h-95.2v29.4l-79.4-22h-27.1V170.2H694v-10.5H550.6v10.5H538v123.3h-75.9v-67.2
		H337v-25.5H160.2v44.8H0v1387.7H7146.2z"/>
</g>
</svg>
