<svg version="1.1" id="bg1" xmlns="http://www.w3.org/2000/svg" xmlns:xlink="http://www.w3.org/1999/xlink" x="0px" y="0px"
	 viewBox="0 0 7139.8 2073.9" style="enable-background:new 0 0 7139.8 2073.9;" xml:space="preserve">

<g id="bg_buildings">
	<path id="bgBuildings02" 
		data-0="fill:rgba(195,214,218,.7);"
  		data-600="fill:rgba(158,200,229,.5);"
  		data-2500="fill:rgba(158,200,229,.5);"
  		data-3500="fill:rgba(90,103,159,.5);"
  		data-6000="fill:rgba(89,68,104,.5);,"
  		data-8000="fill:rgba(38,54,94,1);"
  		data-9000="fill:rgba(07,54,85,1);"
  		 d="M7139.8,2073.9V498.3l-133.1-49.6V289.3H6852v174.6l-96.5,34.4v46.5h-47.1V433.2h-168.3
		v48.8h-101.3v84.5H6180V506l-188-69l-117.7,41.4V384h-249.8V261h-159.4v62.8H5344v83h-247.2v61.6h-42.9v-70.8h-52.4l-174,65.9
		v185.3h-38v-87.1h-205.7v-97.3h-74.1v51.7h-37.1c-41.8-45.9-112.8-76.1-193.4-76.1s-151.5,30.2-193.4,76.1h-37.1v-51.7h-62v-24.4
		h-238.3V302h-159.4v59.5H3493v57.1h-244.6V106.5L3095.2,0H3049v433.2h-79.7v43.7l-130.5-48.6l-75.7,27v-31.5h-212.2v-61.2h-46.2
		l-132.1,59.5V233.6h-323.2v116.2h-129.1v-90.5h-148.8v-68.5h-195.9V325h-306.9v102.9L1124,382.7L935.7,444v-70.8H539.6v58.6h-89.2
		v-53.3H243.6v121.7H0v1573.6H7139.8z"/>
</g>

</svg>


