<svg version="1.1" id="starField" data-4500="transform: translate3d(0%,0%,0);opacity:0" data-6000="transform: translate3d(1.25%,1.25%,0);opacity:.5" data-9000="transform: translate3d(2.25%,2.25%,0);opacity:.65" xmlns="http://www.w3.org/2000/svg" xmlns:xlink="http://www.w3.org/1999/xlink" x="0px" y="0px"
	 viewBox="0 0 965.8 549.6" style="enable-background:new 0 0 965.8 549.6;" xml:space="preserve">
<filter  id="AI_GaussianBlur_4">
	<feGaussianBlur  stdDeviation="2"></feGaussianBlur>
</filter>
<g class="fieldBlur">
	<path class="fieldFill" d="M289.5,363.7c-0.3-1.3,0.5-1.5,1.7-1.5c1.2,0,1.8,0.5,2.2,1.4c-1.1,0.5-0.2,2.7-2,2.6
		C290.1,366.2,289.4,365.2,289.5,363.7z"/>
	<path class="fieldFill" d="M830.7,508.3c1.3,0.1,1.1,1.1,1,1.7c-0.1,1.2-0.8,2.2-2.1,2.4c-1,0.2-1.1-0.6-1.1-1.5
		C828.6,509.4,829.5,508.7,830.7,508.3z"/>
	<path class="fieldFill" d="M217.4,387.2c1.2,0.1,2.2,0,2.1,1.2c-0.1,1.1-0.8,2.1-1.7,2.3c-1,0.2-1.5-1.1-2.1-1.9
		C216.4,388.3,216.5,386.9,217.4,387.2z"/>
	<path class="fieldFill" d="M160.5,308.3c0.1,1.1-0.9,1.8-1.6,1.8c-0.7,0.1-1.6-0.8-1.5-1.8c0.1-1.1,0.8-1.9,1.9-1.9
		C160.6,306.3,160.5,307.4,160.5,308.3z"/>
	<path class="fieldFill" d="M672.5,122.6c-0.2-1.4,0.9-1.2,1.8-1.3c1.5-0.1,1.3,0.9,1.3,1.8c0.1,1.4-0.9,1.2-1.8,1.3
		C672.3,124.5,672.5,123.5,672.5,122.6z"/>
	<path class="fieldFill" d="M715.5,161c0.1-0.7-0.1-1.8,1.2-1.7c1.1,0.1,1.8,0.8,1.9,2c0.1,1.1-1.1,1.9-1.4,1.9
		C716.2,163,715.3,162.3,715.5,161z"/>
	<path class="fieldFill" d="M641.9,175.3c-1.4,0.3-1.6-0.6-1.5-1.6c0.1-0.6-0.1-1.6,1.1-1.4c1.1,0.1,1.8,0.8,2,1.9
		C643.7,175.6,642.6,175.2,641.9,175.3z"/>
	<path class="fieldFill" d="M759.8,144.3c-1.1,0.2-1.4-0.5-1.3-1.6c0.1-0.6-0.4-1.7,1-1.4c1,0.2,1.9,0.8,2,1.9
		C761.7,144.5,760.7,144.3,759.8,144.3z"/>
	<path class="fieldFill" d="M598.6,406.7c-0.1,0.8,0,1.6-1.1,1.7c-1.2,0.1-1.7-1.1-1.7-1.5c0-0.7,0.6-1.5,1.7-1.5
		C598.7,405.2,598.5,406.1,598.6,406.7z"/>
	<path class="fieldFill" d="M733.2,381.8c-0.7,0.3-0.3,1.5-1.3,1.5c-1.1,0-1.3-0.7-1.4-1.6c0-0.8-0.1-1.4,1.1-1.4
		C732.8,380.2,732.5,381.4,733.2,381.8z"/>
	<path class="fieldFill" d="M507.6,376.8c-0.2,0.6,0.2,1.5-1,1.5c-1.1,0-1.9-0.9-1.9-1.5c0-0.7,0.8-1.5,2-1.5
		C507.9,375.3,507.4,376.2,507.6,376.8z"/>
	<path class="fieldFill" d="M810,177.2c1.2,0.2,1.5,0.9,1.5,1.8c0,0.7-0.1,1.3-1.1,1.3c-1.1,0-1.6-0.9-1.8-1.5
		C808.5,178.1,809.4,177.5,810,177.2z"/>
	<path class="fieldFill" d="M499.6,284.4c1,0,1.7,0.9,1.7,1.5c0,0.7-0.8,1.5-1.8,1.5c-1,0-1.1-0.5-1-1.2
		C498.6,285.4,498.3,284.3,499.6,284.4z"/>
	<path class="fieldFill" d="M449.5,201.6c0,1.7-0.7,1.7-1.5,1.7c-0.9,0-1.5-0.5-1.4-1.3c0-0.9,0.9-1.5,1.5-1.5
		C448.8,200.5,449.4,201.3,449.5,201.6z"/>
	<path class="fieldFill" d="M204.9,239.3c-1.6-0.1-1.5-0.9-1.5-1.5c0-0.6,0.1-1.4,1.1-1.3c1.1,0,1.1,0.8,1.1,1.6
		C205.6,238.7,205.2,239.3,204.9,239.3z"/>
	<path class="fieldFill" d="M238.5,261.3c0,1.3-1.1,1.2-1.5,1.9c-0.5-0.5-1-0.9-1.5-1.4c0.6-0.5,0.7-1.6,1.8-1.5
		C238.3,260.3,238.6,260.8,238.5,261.3z"/>
	<path class="fieldFill" d="M142.9,222.2c0.2,0,0.6,0.1,0.6,0.9c0.1,1.2-0.8,1.7-1.5,2c-0.7,0.4-1.4-1-1.4-1.2
		C141,223.2,141.4,222.4,142.9,222.2z"/>
	<path class="fieldFill" d="M520.5,265.3c0,1.3-0.9,1.1-1.6,1.1c-0.7,0-1.4,0-1.4-1.1c0-1.2,0.8-1.1,1.5-1.1
		C519.6,264.3,520.6,264.2,520.5,265.3z"/>
	<path class="fieldFill" d="M294.2,310.2c0.6,0.1,1.4-0.1,1.4,1c0,1.1-0.7,1.2-1.5,1.2c-0.8,0-1.5-0.1-1.5-1.2
		C292.6,309.9,293.7,310.4,294.2,310.2z"/>
	<path class="fieldFill" d="M257.4,314.9c-0.4,0.3-0.9,0.8-1.5,1.3c-0.3-0.6-1.5-0.9-1.2-1.5c0.2-0.5,0.5-1.6,1.6-1.4
		C257.1,313.4,257.5,313.9,257.4,314.9z"/>
	<path class="fieldFill" d="M484.6,324.8c-0.8,0.5-0.9,1.7-1.7,1.5c-0.5-0.1-1.5-0.7-1.4-1.7c0-0.7,0.5-1.2,1.3-1.3
		C483.8,323.2,483.9,324.2,484.6,324.8z"/>
	<path class="fieldFill" d="M557.4,336.8c0,1.2-0.5,1.5-1.2,1.6c-0.8,0-1.5-0.2-1.5-1.2c-0.1-1,0.8-1,1.4-1
		C556.5,336.2,557.3,336.2,557.4,336.8z"/>
	<path class="fieldFill" d="M114.5,360.2c-1,0-1-0.7-1-1.3c0-0.7,0.1-1.4,1-1.4c1.1-0.1,1.1,0.7,1.1,1.5
		C115.6,359.6,115.3,360.3,114.5,360.2z"/>
	<path class="fieldFill" d="M421,92.5c-0.5-0.2-1.5,0.3-1.5-0.8c0.1-1,0.8-1.4,1.7-1.4c0.7,0,1.2,0.3,1.3,1.2
		C422.6,92.7,421.6,92.3,421,92.5z"/>
	<path class="fieldFill" d="M483.5,416.9c-0.2,0.5-0.8,1.3-1.4,1.3c-0.8,0.1-1.6-0.7-1.5-1.5c0.1-0.6,0.7-1.4,1.7-1.4
		C483.1,415.3,483.5,415.8,483.5,416.9z"/>
	<path class="fieldFill" d="M304.8,425.5c-0.7-0.1-1.4-0.2-1.3-1.2c0.1-1.1,0.9-1.1,1.6-1.1c0.6,0,1.4,0.2,1.3,1.1
		C306.3,425.4,305.5,425.4,304.8,425.5z"/>
	<path class="fieldFill" d="M293.5,425.5c0.2,1.3,0,1.9-1.1,1.8c-1.2,0-1-0.9-1-1.5c0-0.6-0.3-1.5,1-1.5
		C293.8,424.3,293.5,425.3,293.5,425.5z"/>
	<path class="fieldFill" d="M261.5,485.2c0,0.3,0.3,1.1-0.9,1.1c-1.3,0.1-1.2-0.8-1.2-1.6c0-0.7-0.2-1.5,1-1.5
		C261.7,483.2,261.6,484,261.5,485.2z"/>
	<path class="fieldFill" d="M280.6,18.9c-1.1,0.2-0.9,1.6-2.1,1.5c-0.9-0.1-1.1-0.3-1.1-1.2c0-1.2,1.3-1,1.7-1.7
		C279.5,17.9,280,18.3,280.6,18.9z"/>
	<path class="fieldFill" d="M493.8,272.7c-0.4,0.6,0.1,1.6-1,1.5c-0.8,0-1.2-0.5-1.3-1.3c0-1,0.8-1.4,1.5-1.5
		C493.9,271.4,493.3,272.4,493.8,272.7z"/>
	<path class="fieldFill" d="M562.5,521.7c-0.1,0.8-0.9,1-1.5,1.1c-0.5,0.1-0.5-0.7-0.5-1.2c0-0.6,0.1-1.4,1.1-1.3
		C562.3,520.5,562.4,521,562.5,521.7z"/>
	<path class="fieldFill" d="M311.5,134.7c-0.6,0.5-1.1,1.2-1.5,1.1c-0.5,0-1.4-0.3-1.4-1c0-0.8,0.8-1.3,1.3-1.4
		C310.8,133.2,310.6,134.5,311.5,134.7z"/>
	<path class="fieldFill" d="M693.6,133.3c-1.2,0.4-1.4-0.9-1.6-1.4c-0.3-0.7,0.7-0.8,1.3-0.8c0.8-0.1,1.5,0.1,1.3,1.2
		C694.5,133.1,694.3,133.5,693.6,133.3z"/>
	<path class="fieldFill" d="M129.8,113.7c0.8,0,0.7,0.6,0.7,1c0,0.6,0.3,1.4-0.6,1.6c-0.7,0.1-1.2-0.2-1.4-1
		C128.4,114.1,129.6,114.4,129.8,113.7z"/>
	<path class="fieldFill" d="M511,77.2c0.5,0.6,1.2,1,1.4,1.6c0.1,0.7-0.8,1.4-1.3,1.4c-0.7,0.1-1.5-0.7-1.5-1.4
		C509.6,78.3,510.5,77.8,511,77.2z"/>
	<path class="fieldFill" d="M718.6,88.2c0.1-1,0.9-1,1.3-1.5c0.5,0.4,1.3,0.8,1.3,1.2c0,0.5-0.6,1.3-1.1,1.4
		C719.2,89.5,719.5,88,718.6,88.2z"/>
	<path class="fieldFill" d="M337.7,325.1c-0.1,0.5,0,1.2-0.9,1.2c-0.8,0-1.2-0.5-1.2-1.3c0-0.7,0.6-0.7,1-0.7
		C337.2,324.2,337.8,324.2,337.7,325.1z"/>
	<path class="fieldFill" d="M509.4,336.2c-0.3,0.3-0.8,0.9-1.3,1.1c-1,0.2-0.9-1-1.3-1.5c-0.3-0.4,0.7-0.7,1.3-0.7
		C508.6,335.2,509.4,335.1,509.4,336.2z"/>
	<path class="fieldFill" d="M95.6,337.3c-0.1,0.4,0.2,1.2-0.7,1.2c-0.6,0-1.3,0-1.3-1.1c0.1-0.7,0.3-1,1-1.1
		C95.4,336.1,95.6,336.5,95.6,337.3z"/>
	<path class="fieldFill" d="M330.2,338.3c-0.7,0.1-0.7-0.5-0.8-1c-0.1-0.7,0.1-1.2,0.9-1.1c0.6,0.1,1.2,0.1,1.1,1
		C331.3,338,330.8,338.2,330.2,338.3z"/>
	<path class="fieldFill" d="M307.4,352.2c0.1,0.7-0.4,1-1,1.1c-0.6,0-0.9-0.2-0.9-0.8c0-0.6,0-1.2,0.8-1.2
		C306.9,351.3,307.5,351.5,307.4,352.2z"/>
	<path class="fieldFill" d="M635.7,385.3c-0.7,0.1-1.1-0.1-1.1-0.9c0-0.7,0.2-1.1,1-1.1c0.6,0,1,0.1,1,0.8
		C636.5,384.7,636.6,385.3,635.7,385.3z"/>
	<path class="fieldFill" d="M531.5,386.3c0.7,0,1,0.4,0.9,1.1c0,0.8-0.7,0.9-1.2,0.9c-0.7,0-0.8-0.5-0.7-1
		C530.5,386.7,530.7,386.2,531.5,386.3z"/>
	<path class="fieldFill" d="M253.4,113.2c-0.2-1.1,0.7-1.2,1.3-1.5c0.7-0.3,0.7,0.4,0.8,0.9c0.3,1.1-0.8,1.3-1.4,1.6
		C253.5,114.4,253.5,113.6,253.4,113.2z"/>
	<path class="fieldFill" d="M186.8,394.2c-0.4-0.4-1.1-0.8-1-1.5c0.1-0.5,0.8-1.2,1.1-1.1c0.8,0.1,0.7,1,0.6,1.6
		C187.6,393.6,187.7,394.2,186.8,394.2z"/>
	<path class="fieldFill" d="M168.4,398.3c-0.8,0-0.9-0.5-0.9-1.2c0-0.8,0.6-0.9,1.2-0.8c0.6,0.1,0.8,0.5,0.8,1
		C169.5,398.1,169.1,398.4,168.4,398.3z"/>
	<path class="fieldFill" d="M328.4,399.3c0,0.7-0.5,1-1.1,1c-0.8,0-0.8-0.6-0.8-1.2c0-0.6,0.3-0.9,0.9-0.8
		C328,398.3,328.5,398.5,328.4,399.3z"/>
	<path class="fieldFill" d="M655.3,95.2c0.8,0,1.4-0.1,1.3,0.8c0,0.6,0.1,1.3-0.9,1.3c-0.8,0-1.2-0.2-1.2-1.1
		C654.5,95.5,654.7,95.1,655.3,95.2z"/>
	<path class="fieldFill" d="M163.6,57.5c0.1,1-1.1,1.1-1.7,1.6c-0.2,0.2-0.4-0.6-0.4-1c0.1-1,0.9-1.4,1.6-1.7
		C163.7,56.2,163.6,56.9,163.6,57.5z"/>
	<path class="fieldFill" d="M132.6,442.3c-1,0.2-1-0.4-1.1-1c-0.1-0.9,0.3-1.1,1.1-1.2c0.8,0,0.9,0.4,0.9,1
		C133.5,441.9,133.4,442.5,132.6,442.3z"/>
	<path class="fieldFill" d="M489.5,442.4c-0.8,0.1-1-0.3-1-1c0-0.8,0.4-1.1,1.2-1.1c0.9,0,0.7,0.7,0.8,1.2
		C490.7,442.4,490.1,442.4,489.5,442.4z"/>
	<path class="fieldFill" d="M409.4,450.3c-1,0.1-1-0.5-1-1c0-0.6,0.1-1.2,0.9-1c0.5,0.1,1.1,0,1.1,0.9C410.5,450,410.1,450.3,409.4,450.3z
		"/>
	<path class="fieldFill" d="M770.5,461.4c0.7,0,1,0.4,1,1.1c0,0.8-0.6,0.9-1.1,0.9c-0.6,0-0.9-0.3-0.8-0.9
		C769.6,461.9,769.7,461.3,770.5,461.4z"/>
	<path class="fieldFill" d="M816.6,469.2c0,0.6,0,1.2-0.9,1.1c-0.7-0.1-1-0.3-1.1-1c-0.1-0.8,0.4-0.9,1-1
		C816.4,468.2,816.7,468.5,816.6,469.2z"/>
	<path class="fieldFill" d="M501.5,54.4c0.2,0.8-0.3,1-1,1c-0.6,0-1.2,0-1.1-0.9c0.1-0.5-0.1-1.2,0.9-1.2
		C501.1,53.3,501.6,53.5,501.5,54.4z"/>
	<path class="fieldFill" d="M541.1,487.1c-0.7-0.3-0.8-0.9-0.7-1.4c0.1-0.5-0.1-1.4,0.8-1.1c0.5,0.2,1.4,0.5,1.2,1.3
		C542.3,486.3,541.6,486.7,541.1,487.1z"/>
	<path class="fieldFill" d="M663.6,496.6c0,0.9-0.5,1-1.1,0.8c-0.5-0.1-1-0.1-1-0.8c0.1-0.8,0.4-1.2,1.2-1.2
		C663.7,495.4,663.4,496.2,663.6,496.6z"/>
	<path class="fieldFill" d="M568.4,504.7c0.3-0.5-0.1-1.5,0.7-1.3c0.5,0.1,1.3,0.9,1.3,1.4c0,0.5-0.8,1.3-1.3,1.4
		C568.1,506.3,568.6,505.2,568.4,504.7z"/>
	<path class="fieldFill" d="M488.6,46.2c0.7-0.1,1.2,0.1,1,0.9c-0.1,0.5,0.1,1.2-0.8,1.2c-0.8,0-1.2-0.3-1.3-1.1
		C487.5,46.3,488,46.3,488.6,46.2z"/>
	<path class="fieldFill" d="M643.7,25.2c0.1,0.8-0.1,1.2-0.7,1.1c-0.7-0.1-1.2-0.4-1.3-1.2c-0.1-0.7,0.3-0.8,0.9-0.9
		C643.4,24.2,643.7,24.6,643.7,25.2z"/>
	<path class="fieldFill" d="M340.5,523.4c-0.8,0.1-1-0.3-1-1c0-0.9,0.4-1.1,1.2-1.1c0.9-0.1,0.9,0.4,0.9,1
		C341.6,523.1,341.4,523.5,340.5,523.4z"/>
	<path class="fieldFill" d="M772.9,13.2c0.4,0,0.9,0.1,0.8,0.9c-0.1,0.5,0,1.2-0.9,1.1c-0.8-0.1-1.2-0.5-1.3-1.2
		C771.4,13.2,772,13.2,772.9,13.2z"/>
	<path class="fieldFill" d="M255.2,264.3c-0.9,0-0.7-0.7-0.8-1.2c-0.1-0.8,0.3-1,1-0.9c0.5,0.1,1.1,0.1,1.1,1
		C256.4,264,255.9,264.3,255.2,264.3z"/>
	<path class="fieldFill" d="M339.3,263.3c0.7,0,1.2,0.1,1.2,1c0,0.8-0.4,0.9-1,1c-0.9,0.1-1.2-0.2-1.2-1
		C338.4,263.6,338.5,263.2,339.3,263.3z"/>
	<path class="fieldFill" d="M488.5,156.2c-0.8,0.1-0.9-0.5-1.1-1c-0.2-0.8,0.2-1.1,0.9-1c0.5,0.1,1.2,0,1.2,0.9
		C489.5,155.6,489.3,156.2,488.5,156.2z"/>
	<path class="fieldFill" d="M327.5,153.1c-0.1,0.6-0.4,1-1.1,1c-1,0-1-0.8-0.9-1.4c0-0.9,0.8-0.6,1.3-0.6
		C327.4,152.2,327.6,152.6,327.5,153.1z"/>
	<path class="fieldFill" d="M612.5,169.4c0.1,1-0.6,0.9-1.3,0.9c-0.7,0-0.7-0.4-0.7-0.9c0-0.8,0.4-1.1,1.2-1.1
		C612.5,168.3,612.6,168.8,612.5,169.4z"/>
	<path class="fieldFill" d="M566.3,233.4c-0.9,0-0.9-0.5-0.8-1.1c0.1-0.6,0.2-0.9,0.9-0.9c0.7,0.1,1,0.4,1.1,1.1
		C567.5,233.3,566.9,233.3,566.3,233.4z"/>
	<path class="fieldFill" d="M671.5,277.3c0.1,0.9-0.4,1-1.1,1c-0.6,0-0.9-0.3-0.9-0.9c0-0.7,0.2-1.1,1-1.1
		C671.2,276.3,671.5,276.7,671.5,277.3z"/>
	<path class="fieldFill" d="M237.3,283.3c-0.8,0-0.9-0.5-0.8-1.1c0-0.6,0.3-0.9,0.9-0.8c0.6,0,1.1,0.3,1,1
		C238.4,283.1,237.9,283.3,237.3,283.3z"/>
	<path class="fieldFill" d="M456.6,228.3c-0.6,0-1.1-0.1-1-0.9c0.1-0.8,0.6-1.1,1.3-1.1c0.9,0,0.7,0.7,0.7,1.2
		C457.7,228.3,457.2,228.4,456.6,228.3z"/>
	<path class="fieldFill" d="M711.6,143.4c0.1,0.6-0.1,1-0.7,1c-0.5,0-1.3,0.1-1.3-0.7c0-0.6,0.1-1.1,0.9-1.2
		C711.2,142.4,711.5,142.8,711.6,143.4z"/>
	<path class="fieldFill" d="M827.6,289.3c0,0.6,0,1.1-0.9,1c-0.8-0.1-1.1-0.5-1.2-1.3c-0.1-0.9,0.6-0.8,1.2-0.8
		C827.5,288.1,827.6,288.6,827.6,289.3z"/>
	<path class="fieldFill" d="M421.6,185.4c-0.1-0.8,0.1-1.2,0.9-1.1c0.6,0,1.1,0,1.1,0.8c0,0.7-0.1,1.3-1.1,1.2
		C421.8,186.3,421.4,186.1,421.6,185.4z"/>
	<path class="fieldFill" d="M265.5,221.8c0,1-0.2,1.4-1,1.4c-0.7,0-1-0.4-1-1.1c0-0.8,0.6-0.9,1.1-0.9
		C265.3,221.2,265.5,221.6,265.5,221.8z"/>
	<path class="fieldFill" d="M433.6,205.8c-0.1,0.9-0.2,1.5-1.1,1.4c-0.8-0.1-1-0.5-1-1.1c-0.1-0.9,0.6-0.8,1.1-0.9
		C433.4,205,433.7,205.5,433.6,205.8z"/>
	<path class="fieldFill" d="M368.5,203.3c0.7,0,1,0.4,1,1.1c0,0.8-0.4,1-1.1,0.9c-0.8-0.1-0.9-0.6-0.9-1.2
		C367.5,203.5,368,203.3,368.5,203.3z"/>
	<path class="fieldFill" d="M117.5,294.9c0.1,1.1-0.1,1.5-0.9,1.4c-0.6,0-1.2,0-1.1-0.9c0.1-0.8,0.6-1.2,1.3-1.2
		C117.7,294.3,117.5,294.9,117.5,294.9z"/>
	<path class="fieldFill" d="M467.5,203.3c0,0.7-0.3,1-1.1,1c-0.8,0-0.9-0.5-1-1.2c-0.1-0.8,0.5-0.9,1.1-0.9
		C467.4,202.2,467.7,202.6,467.5,203.3z"/>
	<path class="fieldFill" d="M605.7,306.3c-1,0.1-1.1-0.3-1.2-1.1c0-1,0.6-1,1.3-1c0.8-0.1,0.9,0.4,1,1
		C606.7,306.1,606.5,306.5,605.7,306.3z"/>
	<path class="fieldFill" d="M609.3,186.3c0.6,0.1,1.2,0.1,1.1,1c0,0.7-0.5,1-1.1,1.1c-0.7,0.1-0.8-0.3-0.9-0.9
		C608.4,186.8,608.4,186.2,609.3,186.3z"/>
	<path class="fieldFill" d="M694.5,199.3c0.1,0.7-0.2,1-1,1c-1,0.1-1-0.5-1.1-1.2c0-0.9,0.5-0.9,1.1-0.9
		C694.4,198.2,694.6,198.6,694.5,199.3z"/>
	<path class="fieldFill" d="M495.7,138.2c0,0.6,0,1.2-0.9,1.1c-0.6-0.1-1.2-0.1-1.2-0.9c0-0.7,0.3-1,1-1.1
		C495.3,137.2,495.7,137.4,495.7,138.2z"/>
	<path class="fieldFill" d="M192.6,316.2c-0.1,0.5,0,1.2-0.8,1.2c-0.6,0-1.2,0-1.2-0.8c0-0.8,0.4-1.2,1.2-1.2
		C192.4,315.3,192.6,315.6,192.6,316.2z"/>
	<path class="fieldFill" d="M587,203.1c-0.9-1-0.7-1.8,0-2.8C587.8,201.3,588,202.1,587,203.1z"/>
	<path class="fieldFill" d="M402.5,190c-0.4,0.4-0.8,1-1.3,1.1c-0.7,0.2-0.6-0.6-0.7-1c-0.1-0.7,0.1-1.2,0.9-1
		C401.8,189.3,402.4,189.2,402.5,190z"/>
	<path class="fieldFill" d="M391.5,264.1c-0.4,0.3-0.8,0.9-1.3,1.1c-0.9,0.2-0.7-0.7-0.8-1.2c-0.1-0.8,0.4-1,1.1-0.9
		C390.9,263.3,391.5,263.1,391.5,264.1z"/>
	<path class="fieldFill" d="M824.8,271.2c-0.4-0.4-1-0.8-1.1-1.3c-0.2-0.7,0.6-0.6,1.1-0.6c0.9-0.1,0.9,0.5,0.8,1.1
		C825.5,270.8,825.5,271.2,824.8,271.2z"/>
	<path class="fieldFill" d="M382.7,149.1c-0.2,0.4-0.1,1.2-0.7,1.1c-0.6-0.1-1.2-0.6-1.3-1.2c-0.1-0.7,0.6-0.6,1-0.7
		C382.2,148.1,382.8,148.3,382.7,149.1z"/>
	<path class="fieldFill" d="M404.8,281.5c0.8,0,0.7,0.6,0.8,1c0.2,0.8-0.3,1.1-1,1c-0.5-0.1-1.1,0-1.1-0.7
		C403.6,282.1,404.4,281.9,404.8,281.5z"/>
	<path class="fieldFill" d="M745.7,121c-0.2,0.4,0,1.2-0.7,1c-0.5-0.1-0.9-0.7-1.1-1.2c-0.1-0.4,0.5-0.5,0.9-0.6
		C745.3,120.1,745.7,120.4,745.7,121z"/>
	<path class="fieldFill" d="M696.7,373.1c-0.2,0.4,0.1,1.1-0.6,1.2c-0.8,0-0.7-1-1.2-1.4c-0.2-0.2,0.5-0.5,0.9-0.6
		C696.4,372.1,696.7,372.4,696.7,373.1z"/>
	<path class="fieldFill" d="M771.5,128.2c-0.1,0.3-0.2,1-0.6,0.7c-0.4-0.3-1.3-0.4-1.2-1.3c0.1-0.6,0.6-0.5,0.9-0.5
		C771.3,127.2,771.7,127.5,771.5,128.2z"/>
	<path class="fieldFill" d="M511.8,294.4c-0.3-0.2-1-0.1-1-0.5c0.1-0.6,0.6-1.2,1.2-1.3c0.5-0.1,0.5,0.5,0.5,0.9
		C512.7,294,512.5,294.4,511.8,294.4z"/>
	<path class="fieldFill" d="M513.6,350.6c0.1,0.7-0.3,0.9-0.9,0.8c-0.4-0.1-1.2,0.1-1-0.7c0.1-0.4,0.7-0.9,1.2-1
		C513.4,349.6,513.4,350.3,513.6,350.6z"/>
	<path class="fieldFill" d="M898,376.8c0.2,0.6-0.2,1.5,1,1.5c1.1,0,1.9-0.9,1.9-1.5c0-0.7-0.8-1.5-2-1.5
		C897.7,375.3,898.2,376.2,898,376.8z"/>
	<path class="fieldFill" d="M906,284.4c-1,0-1.7,0.9-1.7,1.5c0,0.7,0.8,1.5,1.8,1.5c1,0,1.1-0.5,1-1.2C907.1,285.4,907.4,284.3,906,284.4z
		"/>
	<path class="fieldFill" d="M957.6,200.5c-0.8,0-1.3,0.9-1.5,1.2c0,1.7,0.7,1.7,1.5,1.7"/>
	<path class="fieldFill" d="M885.2,265.3c0,1.3,0.9,1.1,1.6,1.1c0.7,0,1.4,0,1.4-1.1c0-1.2-0.8-1.1-1.5-1.1
		C886,264.3,885.1,264.2,885.2,265.3z"/>
	<path class="fieldFill" d="M921,324.8c0.8,0.5,0.9,1.7,1.7,1.5c0.5-0.1,1.5-0.7,1.4-1.7c0-0.7-0.5-1.2-1.3-1.3
		C921.8,323.2,921.8,324.2,921,324.8z"/>
	<path class="fieldFill" d="M848.3,336.8c0,1.2,0.5,1.5,1.2,1.6c0.8,0,1.5-0.2,1.5-1.2c0.1-1-0.8-1-1.4-1
		C849.1,336.2,848.3,336.2,848.3,336.8z"/>
	<path class="fieldFill" d="M922.1,416.9c0.2,0.5,0.8,1.3,1.4,1.3c0.8,0.1,1.6-0.7,1.5-1.5c-0.1-0.6-0.7-1.4-1.7-1.4
		C922.6,415.3,922.2,415.8,922.1,416.9z"/>
	<path class="fieldFill" d="M911.9,272.7c0.4,0.6-0.1,1.6,1,1.5c0.8,0,1.2-0.5,1.3-1.3c0-1-0.8-1.4-1.5-1.5
		C911.8,271.4,912.4,272.4,911.9,272.7z"/>
	<path class="fieldFill" d="M843.2,521.7c0.1,0.8,0.9,1,1.5,1.1c0.5,0.1,0.5-0.7,0.5-1.2c0-0.6-0.1-1.4-1.1-1.3
		C843.4,520.5,843.2,521,843.2,521.7z"/>
	<path class="fieldFill" d="M894.6,77.2c-0.5,0.6-1.2,1-1.4,1.6c-0.1,0.7,0.8,1.4,1.3,1.4c0.7,0.1,1.5-0.7,1.5-1.4
		C896,78.3,895.2,77.8,894.6,77.2z"/>
	<path class="fieldFill" d="M896.2,336.2c0.3,0.3,0.8,0.9,1.3,1.1c1,0.2,0.9-1,1.3-1.5c0.3-0.4-0.7-0.7-1.3-0.7
		C897,335.2,896.3,335.1,896.2,336.2z"/>
	<path class="fieldFill" d="M874.1,386.3c-0.7,0-1,0.4-0.9,1.1c0,0.8,0.7,0.9,1.2,0.9c0.7,0,0.8-0.5,0.7-1
		C875.1,386.7,874.9,386.2,874.1,386.3z"/>
	<path class="fieldFill" d="M916.2,442.4c0.8,0.1,1-0.3,1-1c0-0.8-0.4-1.1-1.2-1.1c-0.9,0-0.7,0.7-0.8,1.2
		C915,442.4,915.6,442.4,916.2,442.4z"/>
	<path class="fieldFill" d="M904.1,54.4c-0.2,0.8,0.3,1,1,1c0.6,0,1.2,0,1.1-0.9c-0.1-0.5,0.1-1.2-0.9-1.2C904.6,53.3,904,53.5,904.1,54.4
		z"/>
	<path class="fieldFill" d="M864.5,487.1c0.7-0.3,0.8-0.9,0.7-1.4c-0.1-0.5,0.1-1.4-0.8-1.1c-0.5,0.2-1.4,0.5-1.2,1.3
		C863.4,486.3,864.1,486.7,864.5,487.1z"/>
	<path class="fieldFill" d="M837.3,504.7c-0.3-0.5,0.1-1.5-0.7-1.3c-0.5,0.1-1.3,0.9-1.3,1.4c0,0.5,0.8,1.3,1.3,1.4
		C837.5,506.3,837,505.2,837.3,504.7z"/>
	<path class="fieldFill" d="M917.1,46.2c-0.7-0.1-1.2,0.1-1,0.9c0.1,0.5-0.1,1.2,0.8,1.2c0.8,0,1.2-0.3,1.3-1.1
		C918.2,46.3,917.6,46.3,917.1,46.2z"/>
	<path class="fieldFill" d="M917.2,156.2c0.8,0.1,0.9-0.5,1.1-1c0.2-0.8-0.2-1.1-0.9-1c-0.5,0.1-1.2,0-1.2,0.9
		C916.2,155.6,916.4,156.2,917.2,156.2z"/>
	<path class="fieldFill" d="M839.3,233.4c0.9,0,0.9-0.5,0.8-1.1c-0.1-0.6-0.2-0.9-0.9-0.9c-0.7,0.1-1,0.4-1.1,1.1
		C838.1,233.3,838.8,233.3,839.3,233.4z"/>
	<path class="fieldFill" d="M949.1,228.3c0.6,0,1.1-0.1,1-0.9c-0.1-0.8-0.6-1.1-1.3-1.1c-0.9,0-0.7,0.7-0.7,1.2
		C948,228.3,948.4,228.4,949.1,228.3z"/>
	<path class="fieldFill" d="M938.1,203.3c0,0.7,0.3,1,1.1,1c0.8,0,0.9-0.5,1-1.2c0.1-0.8-0.5-0.9-1.1-0.9
		C938.3,202.2,938,202.6,938.1,203.3z"/>
	<path class="fieldFill" d="M910,138.2c0,0.6,0,1.2,0.9,1.1c0.6-0.1,1.2-0.1,1.2-0.9c0-0.7-0.3-1-1-1.1C910.4,137.2,910,137.4,910,138.2z"
		/>
	<path class="fieldFill" d="M818.6,203.1c0.9-1,0.7-1.8,0-2.8C817.9,201.3,817.7,202.1,818.6,203.1z"/>
	<path class="fieldFill" d="M19,508.3c-1.3,0.1-1.1,1.1-1,1.7c0.1,1.2,0.8,2.2,2.1,2.4c1,0.2,1.1-0.6,1.1-1.5
		C21.1,509.4,20.2,508.7,19,508.3z"/>
	<path class="fieldFill" d="M89.9,144.3c1.1,0.2,1.4-0.5,1.3-1.6c-0.1-0.6,0.4-1.7-1-1.4c-1,0.2-1.9,0.8-2,1.9
		C87.9,144.5,89,144.3,89.9,144.3z"/>
	<path class="fieldFill" d="M116.5,381.8c0.7,0.3,0.3,1.5,1.3,1.5c1.1,0,1.3-0.7,1.4-1.6c0-0.8,0.1-1.4-1.1-1.4
		C116.8,380.2,117.2,381.4,116.5,381.8z"/>
	<path class="fieldFill" d="M39.6,177.2c-1.2,0.2-1.5,0.9-1.5,1.8c0,0.7,0.1,1.3,1.1,1.3c1.1,0,1.6-0.9,1.8-1.5
		C41.1,178.1,40.3,177.5,39.6,177.2z"/>
	<path class="fieldFill" d="M131.1,88.2c-0.1-1-0.9-1-1.3-1.5c-0.5,0.4-1.3,0.8-1.3,1.2c0,0.5,0.6,1.3,1.1,1.4
		C130.4,89.5,130.1,88,131.1,88.2"/>
	<path class="fieldFill" d="M79.2,461.4c-0.7,0-1,0.4-1,1.1c0,0.8,0.6,0.9,1.1,0.9c0.6,0,0.9-0.3,0.8-0.9C80.1,461.9,80,461.3,79.2,461.4z
		"/>
	<path class="fieldFill" d="M33.1,469.2c0,0.6,0,1.2,0.9,1.1c0.7-0.1,1-0.3,1.1-1c0.1-0.8-0.4-0.9-1-1C33.3,468.2,33,468.5,33.1,469.2z"/>
	<path class="fieldFill" d="M76.8,13.2c-0.4,0-0.9,0.1-0.8,0.9c0.1,0.5,0,1.2,0.9,1.1c0.8-0.1,1.2-0.5,1.3-1.2
		C78.3,13.2,77.6,13.2,76.8,13.2z"/>
	<path class="fieldFill" d="M22.1,289.3c0,0.6,0,1.1,0.9,1c0.8-0.1,1.1-0.5,1.2-1.3c0.1-0.9-0.6-0.8-1.2-0.8
		C22.1,288.1,22,288.6,22.1,289.3z"/>
	<path class="fieldFill" d="M24.9,271.2c0.4-0.4,1-0.8,1.1-1.3c0.2-0.7-0.6-0.6-1.1-0.6c-0.9-0.1-0.9,0.5-0.8,1.1
		C24.2,270.8,24.1,271.2,24.9,271.2z"/>
	<path class="fieldFill" d="M104,121c0.2,0.4,0,1.2,0.7,1c0.5-0.1,0.9-0.7,1.1-1.2c0.1-0.4-0.5-0.5-0.9-0.6C104.3,120.1,104,120.4,104,121
		z"/>
	<path class="fieldFill" d="M78.1,128.2c0.1,0.3,0.2,1,0.6,0.7c0.4-0.3,1.3-0.4,1.2-1.3c-0.1-0.6-0.6-0.5-0.9-0.5
		C78.4,127.2,78,127.5,78.1,128.2z"/>
	<path class="fieldFill" d="M1.4,336.8c0,1.2-0.5,1.5-1.2,1.6c-0.8,0-1.5-0.2-1.5-1.2c-0.1-1,0.8-1,1.4-1C0.6,336.2,1.3,336.2,1.4,336.8z"
		/>
	<path class="fieldFill" d="M6.5,521.7c-0.1,0.8-0.9,1-1.5,1.1c-0.5,0.1-0.5-0.7-0.5-1.2c0-0.6,0.1-1.4,1.1-1.3
		C6.3,520.5,6.4,521,6.5,521.7z"/>
	<path class="fieldFill" d="M12.4,504.7c0.3-0.5-0.1-1.5,0.7-1.3c0.5,0.1,1.3,0.9,1.3,1.4c0,0.5-0.8,1.3-1.3,1.4
		C12.1,506.3,12.7,505.2,12.4,504.7z"/>
	<path class="fieldFill" d="M10.3,233.4c-0.9,0-0.9-0.5-0.8-1.1c0.1-0.6,0.2-0.9,0.9-0.9c0.7,0.1,1,0.4,1.1,1.1
		C11.5,233.3,10.9,233.3,10.3,233.4z"/>
	<path class="fieldFill" d="M31,203.1c-0.9-1-0.7-1.8,0-2.8C31.8,201.3,32,202.1,31,203.1z"/>
	<path class="fieldFill" d="M893.8,294.4c0.3-0.2,1-0.1,1-0.5c-0.1-0.6-0.6-1.2-1.2-1.3c-0.5-0.1-0.5,0.5-0.5,0.9
		C893,294,893.1,294.4,893.8,294.4z"/>
	<path class="fieldFill" d="M892.1,350.6c-0.1,0.7,0.3,0.9,0.9,0.8c0.4-0.1,1.2,0.1,1-0.7c-0.1-0.4-0.7-0.9-1.2-1
		C892.3,349.6,892.2,350.3,892.1,350.6z"/>
	<path class="fieldFill" d="M645.8,300.4c-0.4-0.2-1.2,0-1-0.7c0.1-0.4,0.8-0.7,1.2-1.1c0.2,0.3,0.5,0.6,0.6,0.9
		C646.8,300.2,646.5,300.4,645.8,300.4z"/>
	<path class="fieldFill" d="M706.9,143.8c-0.3-1.3-0.9-2,0.1-2.4c0.2-0.1,0.8,0,0.9,0.2C708.4,142.4,707.4,142.6,706.9,143.8z"/>
	<path class="fieldFill" d="M407.4,141.5c0.1,0.9-0.5,0.8-0.9,0.9c-0.6,0.1-1.2,0-1.1-0.8c0.1-0.5-0.1-1.4,0.7-1.2
		C406.6,140.5,407,141.2,407.4,141.5z"/>
	<path class="fieldFill" d="M165.7,138.5c0.5-0.3,0.6-1.1,1.4-1.1c0.7,0,0.5,0.7,0.5,1.2c0.1,0.9-0.7,0.7-1.2,0.7
		C165.9,139.3,165.5,139.2,165.7,138.5z"/>
</g>
<g data-5000="opacity:.7" data-7000="opacity:1">
	<path class="fieldFill" d="M289.4,363.9c-0.3-1.3,0.5-1.5,1.7-1.5c1.2,0,1.8,0.5,2.2,1.4c-1.1,0.5-0.2,2.7-2,2.6
		C290,366.3,289.3,365.4,289.4,363.9z"/>
	<path class="fieldFill" d="M830.6,508.4c1.3,0.1,1.1,1.1,1,1.7c-0.1,1.2-0.8,2.2-2.1,2.4c-1,0.2-1.1-0.6-1.1-1.5
		C828.4,509.6,829.4,508.9,830.6,508.4z"/>
	<path class="fieldFill" d="M217.3,387.3c1.2,0.1,2.2,0,2.1,1.2c-0.1,1.1-0.8,2.1-1.7,2.3c-1,0.2-1.5-1.1-2.1-1.9
		C216.3,388.4,216.4,387,217.3,387.3z"/>
	<path class="fieldFill" d="M160.4,308.5c0.1,1.1-0.9,1.8-1.6,1.8c-0.7,0.1-1.6-0.8-1.5-1.8c0.1-1.1,0.8-1.9,1.9-1.9
		C160.5,306.4,160.4,307.5,160.4,308.5z"/>
	<path class="fieldFill" d="M672.4,122.7c-0.2-1.4,0.9-1.2,1.8-1.3c1.5-0.1,1.3,0.9,1.3,1.8c0.1,1.4-0.9,1.2-1.8,1.3
		C672.2,124.6,672.4,123.6,672.4,122.7z"/>
	<path class="fieldFill" d="M715.3,161.1c0.1-0.7-0.1-1.8,1.2-1.7c1.1,0.1,1.8,0.8,1.9,2c0.1,1.1-1.1,1.9-1.4,1.9
		C716.1,163.1,715.2,162.4,715.3,161.1z"/>
	<path class="fieldFill" d="M641.8,175.4c-1.4,0.3-1.6-0.6-1.5-1.6c0.1-0.6-0.1-1.6,1.1-1.4c1.1,0.1,1.8,0.8,2,1.9
		C643.6,175.7,642.5,175.3,641.8,175.4z"/>
	<path class="fieldFill" d="M759.7,144.5c-1.1,0.2-1.4-0.5-1.3-1.6c0.1-0.6-0.4-1.7,1-1.4c1,0.2,1.9,0.8,2,1.9
		C761.6,144.7,760.6,144.4,759.7,144.5z"/>
	<path class="fieldFill" d="M598.5,406.8c-0.1,0.8,0,1.6-1.1,1.7c-1.2,0.1-1.7-1.1-1.7-1.5c0-0.7,0.6-1.5,1.7-1.5
		C598.6,405.4,598.4,406.2,598.5,406.8z"/>
	<path class="fieldFill" d="M733.1,381.9c-0.7,0.3-0.3,1.5-1.3,1.5c-1.1,0-1.3-0.7-1.4-1.6c0-0.8-0.1-1.4,1.1-1.4
		C732.7,380.3,732.3,381.5,733.1,381.9z"/>
	<path class="fieldFill" d="M507.5,376.9c-0.2,0.6,0.2,1.5-1,1.5c-1.1,0-1.9-0.9-1.9-1.5c0-0.7,0.8-1.5,2-1.5
		C507.8,375.4,507.3,376.3,507.5,376.9z"/>
	<path class="fieldFill" d="M809.9,177.4c1.2,0.2,1.5,0.9,1.5,1.8c0,0.7-0.1,1.3-1.1,1.3c-1.1,0-1.6-0.9-1.8-1.5
		C808.4,178.2,809.3,177.6,809.9,177.4z"/>
	<path class="fieldFill" d="M499.5,284.5c1,0,1.7,0.9,1.7,1.5c0,0.7-0.8,1.5-1.8,1.5c-1,0-1.1-0.5-1-1.2
		C498.5,285.5,498.2,284.5,499.5,284.5z"/>
	<path class="fieldFill" d="M449.4,201.7c0,1.7-0.7,1.7-1.5,1.7c-0.9,0-1.5-0.5-1.4-1.3c0-0.9,0.9-1.5,1.5-1.5
		C448.7,200.6,449.3,201.4,449.4,201.7z"/>
	<path class="fieldFill" d="M204.8,239.4c-1.6-0.1-1.5-0.9-1.5-1.5c0-0.6,0.1-1.4,1.1-1.3c1.1,0,1.1,0.8,1.1,1.6
		C205.4,238.8,205.1,239.4,204.8,239.4z"/>
	<path class="fieldFill" d="M238.4,261.4c0,1.3-1.1,1.2-1.5,1.9c-0.5-0.5-1-0.9-1.5-1.4c0.6-0.5,0.7-1.6,1.8-1.5
		C238.2,260.4,238.5,260.9,238.4,261.4z"/>
	<path class="fieldFill" d="M142.8,222.3c0.2,0,0.6,0.1,0.6,0.9c0.1,1.2-0.8,1.7-1.5,2c-0.7,0.4-1.4-1-1.4-1.2
		C140.9,223.3,141.3,222.5,142.8,222.3z"/>
	<path class="fieldFill" d="M520.3,265.4c0,1.3-0.9,1.1-1.6,1.1c-0.7,0-1.4,0-1.4-1.1c0-1.2,0.8-1.1,1.5-1.1
		C519.5,264.4,520.4,264.3,520.3,265.4z"/>
	<path class="fieldFill" d="M294.1,310.3c0.6,0.1,1.4-0.1,1.4,1c0,1.1-0.7,1.2-1.5,1.2c-0.8,0-1.5-0.1-1.5-1.2
		C292.5,310,293.5,310.5,294.1,310.3z"/>
	<path class="fieldFill" d="M257.3,315c-0.4,0.3-0.9,0.8-1.5,1.3c-0.3-0.6-1.5-0.9-1.2-1.5c0.2-0.5,0.5-1.6,1.6-1.4
		C256.9,313.5,257.4,314,257.3,315z"/>
	<path class="fieldFill" d="M484.5,324.9c-0.8,0.5-0.9,1.7-1.7,1.5c-0.5-0.1-1.5-0.7-1.4-1.7c0-0.7,0.5-1.2,1.3-1.3
		C483.7,323.3,483.8,324.3,484.5,324.9z"/>
	<path class="fieldFill" d="M557.3,336.9c0,1.2-0.5,1.5-1.2,1.6c-0.8,0-1.5-0.2-1.5-1.2c-0.1-1,0.8-1,1.4-1
		C556.4,336.3,557.2,336.3,557.3,336.9z"/>
	<path class="fieldFill" d="M114.3,360.3c-1,0-1-0.7-1-1.3c0-0.7,0.1-1.4,1-1.4c1.1-0.1,1.1,0.7,1.1,1.5
		C115.4,359.7,115.2,360.4,114.3,360.3z"/>
	<path class="fieldFill" d="M420.9,92.6c-0.5-0.2-1.5,0.3-1.5-0.8c0.1-1,0.8-1.4,1.7-1.4c0.7,0,1.2,0.3,1.3,1.2
		C422.5,92.8,421.5,92.4,420.9,92.6z"/>
	<path class="fieldFill" d="M483.4,417c-0.2,0.5-0.8,1.3-1.4,1.3c-0.8,0.1-1.6-0.7-1.5-1.5c0.1-0.6,0.7-1.4,1.7-1.4
		C483,415.5,483.4,415.9,483.4,417z"/>
	<path class="fieldFill" d="M304.7,425.6c-0.7-0.1-1.4-0.2-1.3-1.2c0.1-1.1,0.9-1.1,1.6-1.1c0.6,0,1.4,0.2,1.3,1.1
		C306.1,425.5,305.3,425.5,304.7,425.6z"/>
	<path class="fieldFill" d="M293.4,425.6c0.2,1.3,0,1.9-1.1,1.8c-1.2,0-1-0.9-1-1.5c0-0.6-0.3-1.5,1-1.5
		C293.7,424.4,293.4,425.4,293.4,425.6z"/>
	<path class="fieldFill" d="M261.4,485.3c0,0.3,0.3,1.1-0.9,1.1c-1.3,0.1-1.2-0.8-1.2-1.6c0-0.7-0.2-1.5,1-1.5
		C261.5,483.3,261.5,484.1,261.4,485.3z"/>
	<path class="fieldFill" d="M280.5,19c-1.1,0.2-0.9,1.6-2.1,1.5c-0.9-0.1-1.1-0.3-1.1-1.2c0-1.2,1.3-1,1.7-1.7
		C279.4,18,279.9,18.5,280.5,19z"/>
	<path class="fieldFill" d="M493.7,272.8c-0.4,0.6,0.1,1.6-1,1.5c-0.8,0-1.2-0.5-1.3-1.3c0-1,0.8-1.4,1.5-1.5
		C493.8,271.5,493.2,272.5,493.7,272.8z"/>
	<path class="fieldFill" d="M562.4,521.8c-0.1,0.8-0.9,1-1.5,1.1c-0.5,0.1-0.5-0.7-0.5-1.2c0-0.6,0.1-1.4,1.1-1.3
		C562.2,520.6,562.3,521.1,562.4,521.8z"/>
	<path class="fieldFill" d="M311.4,134.8c-0.6,0.5-1.1,1.2-1.5,1.1c-0.5,0-1.4-0.3-1.4-1c0-0.8,0.8-1.3,1.3-1.4
		C310.7,133.3,310.5,134.6,311.4,134.8z"/>
	<path class="fieldFill" d="M693.4,133.4c-1.2,0.4-1.4-0.9-1.6-1.4c-0.3-0.7,0.7-0.8,1.3-0.8c0.8-0.1,1.5,0.1,1.3,1.2
		C694.4,133.2,694.2,133.6,693.4,133.4z"/>
	<path class="fieldFill" d="M129.7,113.8c0.8,0,0.7,0.6,0.7,1c0,0.6,0.3,1.4-0.6,1.6c-0.7,0.1-1.2-0.2-1.4-1
		C128.3,114.3,129.5,114.5,129.7,113.8z"/>
	<path class="fieldFill" d="M510.9,77.3c0.5,0.6,1.2,1,1.4,1.6c0.1,0.7-0.8,1.4-1.3,1.4c-0.7,0.1-1.5-0.7-1.5-1.4
		C509.5,78.4,510.4,77.9,510.9,77.3z"/>
	<path class="fieldFill" d="M718.5,88.3c0.1-1,0.9-1,1.3-1.5c0.5,0.4,1.3,0.8,1.3,1.2c0,0.5-0.6,1.3-1.1,1.4
		C719.1,89.7,719.4,88.1,718.5,88.3z"/>
	<path class="fieldFill" d="M337.6,325.2c-0.1,0.5,0,1.2-0.9,1.2c-0.8,0-1.2-0.5-1.2-1.3c0-0.7,0.6-0.7,1-0.7
		C337.1,324.3,337.6,324.3,337.6,325.2z"/>
	<path class="fieldFill" d="M509.3,336.3c-0.3,0.3-0.8,0.9-1.3,1.1c-1,0.2-0.9-1-1.3-1.5c-0.3-0.4,0.7-0.7,1.3-0.7
		C508.5,335.3,509.2,335.2,509.3,336.3z"/>
	<path class="fieldFill" d="M95.4,337.4c-0.1,0.4,0.2,1.2-0.7,1.2c-0.6,0-1.3,0-1.3-1.1c0.1-0.7,0.3-1,1-1.1
		C95.3,336.2,95.5,336.6,95.4,337.4z"/>
	<path class="fieldFill" d="M330.1,338.4c-0.7,0.1-0.7-0.5-0.8-1c-0.1-0.7,0.1-1.2,0.9-1.1c0.6,0.1,1.2,0.1,1.1,1
		C331.2,338.1,330.7,338.3,330.1,338.4z"/>
	<path class="fieldFill" d="M307.3,352.4c0.1,0.7-0.4,1-1,1.1c-0.6,0-0.9-0.2-0.9-0.8c0-0.6,0-1.2,0.8-1.2
		C306.8,351.4,307.3,351.6,307.3,352.4z"/>
	<path class="fieldFill" d="M635.5,385.4c-0.7,0.1-1.1-0.1-1.1-0.9c0-0.7,0.2-1.1,1-1.1c0.6,0,1,0.1,1,0.8
		C636.4,384.8,636.4,385.4,635.5,385.4z"/>
	<path class="fieldFill" d="M531.4,386.4c0.7,0,1,0.4,0.9,1.1c0,0.8-0.7,0.9-1.2,0.9c-0.7,0-0.8-0.5-0.7-1
		C530.4,386.8,530.6,386.3,531.4,386.4z"/>
	<path class="fieldFill" d="M253.3,113.3c-0.2-1.1,0.7-1.2,1.3-1.5c0.7-0.3,0.7,0.4,0.8,0.9c0.3,1.1-0.8,1.3-1.4,1.6
		C253.4,114.6,253.4,113.7,253.3,113.3z"/>
	<path class="fieldFill" d="M186.7,394.3c-0.4-0.4-1.1-0.8-1-1.5c0.1-0.5,0.8-1.2,1.1-1.1c0.8,0.1,0.7,1,0.6,1.6
		C187.5,393.7,187.5,394.3,186.7,394.3z"/>
	<path class="fieldFill" d="M168.3,398.4c-0.8,0-0.9-0.5-0.9-1.2c0-0.8,0.6-0.9,1.2-0.8c0.6,0.1,0.8,0.5,0.8,1
		C169.4,398.2,169,398.5,168.3,398.4z"/>
	<path class="fieldFill" d="M328.3,399.4c0,0.7-0.5,1-1.1,1c-0.8,0-0.8-0.6-0.8-1.2c0-0.6,0.3-0.9,0.9-0.8
		C327.9,398.4,328.4,398.6,328.3,399.4z"/>
	<path class="fieldFill" d="M655.2,95.3c0.8,0,1.4-0.1,1.3,0.8c0,0.6,0.1,1.3-0.9,1.3c-0.8,0-1.2-0.2-1.2-1.1
		C654.4,95.6,654.6,95.2,655.2,95.3z"/>
	<path class="fieldFill" d="M163.5,57.6c0.1,1-1.1,1.1-1.7,1.6c-0.2,0.2-0.4-0.6-0.4-1c0.1-1,0.9-1.4,1.6-1.7
		C163.5,56.3,163.5,57,163.5,57.6z"/>
	<path class="fieldFill" d="M132.5,442.4c-1,0.2-1-0.4-1.1-1c-0.1-0.9,0.3-1.1,1.1-1.2c0.8,0,0.9,0.4,0.9,1
		C133.4,442,133.3,442.6,132.5,442.4z"/>
	<path class="fieldFill" d="M489.4,442.5c-0.8,0.1-1-0.3-1-1c0-0.8,0.4-1.1,1.2-1.1c0.9,0,0.7,0.7,0.8,1.2
		C490.5,442.5,490,442.6,489.4,442.5z"/>
	<path class="fieldFill" d="M409.3,450.4c-1,0.1-1-0.5-1-1c0-0.6,0.1-1.2,0.9-1c0.5,0.1,1.1,0,1.1,0.9
		C410.4,450.1,409.9,450.4,409.3,450.4z"/>
	<path class="fieldFill" d="M770.4,461.5c0.7,0,1,0.4,1,1.1c0,0.8-0.6,0.9-1.1,0.9c-0.6,0-0.9-0.3-0.8-0.9
		C769.4,462,769.6,461.4,770.4,461.5z"/>
	<path class="fieldFill" d="M816.5,469.3c0,0.6,0,1.2-0.9,1.1c-0.7-0.1-1-0.3-1.1-1c-0.1-0.8,0.4-0.9,1-1
		C816.2,468.3,816.5,468.6,816.5,469.3z"/>
	<path class="fieldFill" d="M501.4,54.5c0.2,0.8-0.3,1-1,1c-0.6,0-1.2,0-1.1-0.9c0.1-0.5-0.1-1.2,0.9-1.2C501,53.4,501.5,53.6,501.4,54.5z
		"/>
	<path class="fieldFill" d="M541,487.2c-0.7-0.3-0.8-0.9-0.7-1.4c0.1-0.5-0.1-1.4,0.8-1.1c0.5,0.2,1.4,0.5,1.2,1.3
		C542.2,486.5,541.5,486.8,541,487.2z"/>
	<path class="fieldFill" d="M663.5,496.7c0,0.9-0.5,1-1.1,0.8c-0.5-0.1-1-0.1-1-0.8c0.1-0.8,0.4-1.2,1.2-1.2
		C663.6,495.5,663.3,496.3,663.5,496.7z"/>
	<path class="fieldFill" d="M568.3,504.8c0.3-0.5-0.1-1.5,0.7-1.3c0.5,0.1,1.3,0.9,1.3,1.4c0,0.5-0.8,1.3-1.3,1.4
		C568,506.4,568.5,505.3,568.3,504.8z"/>
	<path class="fieldFill" d="M488.5,46.3c0.7-0.1,1.2,0.1,1,0.9c-0.1,0.5,0.1,1.2-0.8,1.2c-0.8,0-1.2-0.3-1.3-1.1
		C487.3,46.4,487.9,46.4,488.5,46.3z"/>
	<path class="fieldFill" d="M643.6,25.3c0.1,0.8-0.1,1.2-0.7,1.1c-0.7-0.1-1.2-0.4-1.3-1.2c-0.1-0.7,0.3-0.8,0.9-0.9
		C643.2,24.3,643.6,24.7,643.6,25.3z"/>
	<path class="fieldFill" d="M340.4,523.5c-0.8,0.1-1-0.3-1-1c0-0.9,0.4-1.1,1.2-1.1c0.9-0.1,0.9,0.4,0.9,1
		C341.5,523.2,341.2,523.6,340.4,523.5z"/>
	<path class="fieldFill" d="M772.8,13.3c0.4,0,0.9,0.1,0.8,0.9c-0.1,0.5,0,1.2-0.9,1.1c-0.8-0.1-1.2-0.5-1.3-1.2
		C771.3,13.3,771.9,13.3,772.8,13.3z"/>
	<path class="fieldFill" d="M255.1,264.4c-0.9,0-0.7-0.7-0.8-1.2c-0.1-0.8,0.3-1,1-0.9c0.5,0.1,1.1,0.1,1.1,1
		C256.3,264.1,255.8,264.4,255.1,264.4z"/>
	<path class="fieldFill" d="M339.2,263.4c0.7,0,1.2,0.1,1.2,1c0,0.8-0.4,0.9-1,1c-0.9,0.1-1.2-0.2-1.2-1
		C338.3,263.7,338.4,263.3,339.2,263.4z"/>
	<path class="fieldFill" d="M488.4,156.3c-0.8,0.1-0.9-0.5-1.1-1c-0.2-0.8,0.2-1.1,0.9-1c0.5,0.1,1.2,0,1.2,0.9
		C489.3,155.8,489.1,156.3,488.4,156.3z"/>
	<path class="fieldFill" d="M327.4,153.3c-0.1,0.6-0.4,1-1.1,1c-1,0-1-0.8-0.9-1.4c0-0.9,0.8-0.6,1.3-0.6
		C327.3,152.3,327.5,152.7,327.4,153.3z"/>
	<path class="fieldFill" d="M612.4,169.5c0.1,1-0.6,0.9-1.3,0.9c-0.7,0-0.7-0.4-0.7-0.9c0-0.8,0.4-1.1,1.2-1.1
		C612.4,168.4,612.5,168.9,612.4,169.5z"/>
	<path class="fieldFill" d="M566.2,233.5c-0.9,0-0.9-0.5-0.8-1.1c0.1-0.6,0.2-0.9,0.9-0.9c0.7,0.1,1,0.4,1.1,1.1
		C567.4,233.4,566.8,233.4,566.2,233.5z"/>
	<path class="fieldFill" d="M671.4,277.4c0.1,0.9-0.4,1-1.1,1c-0.6,0-0.9-0.3-0.9-0.9c0-0.7,0.2-1.1,1-1.1
		C671.1,276.5,671.4,276.8,671.4,277.4z"/>
	<path class="fieldFill" d="M237.2,283.4c-0.8,0-0.9-0.5-0.8-1.1c0-0.6,0.3-0.9,0.9-0.8c0.6,0,1.1,0.3,1,1
		C238.3,283.2,237.8,283.4,237.2,283.4z"/>
	<path class="fieldFill" d="M456.4,228.4c-0.6,0-1.1-0.1-1-0.9c0.1-0.8,0.6-1.1,1.3-1.1c0.9,0,0.7,0.7,0.7,1.2
		C457.6,228.4,457.1,228.5,456.4,228.4z"/>
	<path class="fieldFill" d="M711.4,143.5c0.1,0.6-0.1,1-0.7,1c-0.5,0-1.3,0.1-1.3-0.7c0-0.6,0.1-1.1,0.9-1.2
		C711.1,142.5,711.3,142.9,711.4,143.5z"/>
	<path class="fieldFill" d="M827.5,289.4c0,0.6,0,1.1-0.9,1c-0.8-0.1-1.1-0.5-1.2-1.3c-0.1-0.9,0.6-0.8,1.2-0.8
		C827.4,288.2,827.5,288.8,827.5,289.4z"/>
	<path class="fieldFill" d="M421.4,185.5c-0.1-0.8,0.1-1.2,0.9-1.1c0.6,0,1.1,0,1.1,0.8c0,0.7-0.1,1.3-1.1,1.2
		C421.7,186.4,421.3,186.2,421.4,185.5z"/>
	<path class="fieldFill" d="M265.4,221.9c0,1-0.2,1.4-1,1.4c-0.7,0-1-0.4-1-1.1c0-0.8,0.6-0.9,1.1-0.9
		C265.2,221.4,265.4,221.7,265.4,221.9z"/>
	<path class="fieldFill" d="M433.5,205.9c-0.1,0.9-0.2,1.5-1.1,1.4c-0.8-0.1-1-0.5-1-1.1c-0.1-0.9,0.6-0.8,1.1-0.9
		C433.3,205.1,433.5,205.6,433.5,205.9z"/>
	<path class="fieldFill" d="M368.4,203.4c0.7,0,1,0.4,1,1.1c0,0.8-0.4,1-1.1,0.9c-0.8-0.1-0.9-0.6-0.9-1.2
		C367.4,203.6,367.8,203.4,368.4,203.4z"/>
	<path class="fieldFill" d="M117.4,295.1c0.1,1.1-0.1,1.5-0.9,1.4c-0.6,0-1.2,0-1.1-0.9c0.1-0.8,0.6-1.2,1.3-1.2
		C117.6,294.4,117.4,295,117.4,295.1z"/>
	<path class="fieldFill" d="M467.4,203.4c0,0.7-0.3,1-1.1,1c-0.8,0-0.9-0.5-1-1.2c-0.1-0.8,0.5-0.9,1.1-0.9
		C467.3,202.3,467.5,202.7,467.4,203.4z"/>
	<path class="fieldFill" d="M605.5,306.4c-1,0.1-1.1-0.3-1.2-1.1c0-1,0.6-1,1.3-1c0.8-0.1,0.9,0.4,1,1
		C606.6,306.2,606.4,306.6,605.5,306.4z"/>
	<path class="fieldFill" d="M609.2,186.4c0.6,0.1,1.2,0.1,1.1,1c0,0.7-0.5,1-1.1,1.1c-0.7,0.1-0.8-0.3-0.9-0.9
		C608.3,187,608.3,186.4,609.2,186.4z"/>
	<path class="fieldFill" d="M694.4,199.4c0.1,0.7-0.2,1-1,1c-1,0.1-1-0.5-1.1-1.2c0-0.9,0.5-0.9,1.1-0.9
		C694.3,198.3,694.5,198.7,694.4,199.4z"/>
	<path class="fieldFill" d="M495.5,138.3c0,0.6,0,1.2-0.9,1.1c-0.6-0.1-1.2-0.1-1.2-0.9c0-0.7,0.3-1,1-1.1
		C495.2,137.3,495.6,137.5,495.5,138.3z"/>
	<path class="fieldFill" d="M192.5,316.3c-0.1,0.5,0,1.2-0.8,1.2c-0.6,0-1.2,0-1.2-0.8c0-0.8,0.4-1.2,1.2-1.2
		C192.3,315.4,192.5,315.7,192.5,316.3z"/>
	<path class="fieldFill" d="M586.9,203.2c-0.9-1-0.7-1.8,0-2.8C587.7,201.4,587.9,202.2,586.9,203.2z"/>
	<path class="fieldFill" d="M402.4,190.1c-0.4,0.4-0.8,1-1.3,1.1c-0.7,0.2-0.6-0.6-0.7-1c-0.1-0.7,0.1-1.2,0.9-1
		C401.7,189.4,402.3,189.3,402.4,190.1z"/>
	<path class="fieldFill" d="M391.4,264.2c-0.4,0.3-0.8,0.9-1.3,1.1c-0.9,0.2-0.7-0.7-0.8-1.2c-0.1-0.8,0.4-1,1.1-0.9
		C390.7,263.4,391.4,263.2,391.4,264.2z"/>
	<path class="fieldFill" d="M824.7,271.3c-0.4-0.4-1-0.8-1.1-1.3c-0.2-0.7,0.6-0.6,1.1-0.6c0.9-0.1,0.9,0.5,0.8,1.1
		C825.4,270.9,825.4,271.4,824.7,271.3z"/>
	<path class="fieldFill" d="M382.6,149.2c-0.2,0.4-0.1,1.2-0.7,1.1c-0.6-0.1-1.2-0.6-1.3-1.2c-0.1-0.7,0.6-0.6,1-0.7
		C382.1,148.2,382.6,148.4,382.6,149.2z"/>
	<path class="fieldFill" d="M404.7,281.6c0.8,0,0.7,0.6,0.8,1c0.2,0.8-0.3,1.1-1,1c-0.5-0.1-1.1,0-1.1-0.7
		C403.5,282.2,404.3,282,404.7,281.6z"/>
	<path class="fieldFill" d="M745.5,121.2c-0.2,0.4,0,1.2-0.7,1c-0.5-0.1-0.9-0.7-1.1-1.2c-0.1-0.4,0.5-0.5,0.9-0.6
		C745.2,120.2,745.6,120.5,745.5,121.2z"/>
	<path class="fieldFill" d="M696.6,373.2c-0.2,0.4,0.1,1.1-0.6,1.2c-0.8,0-0.7-1-1.2-1.4c-0.2-0.2,0.5-0.5,0.9-0.6
		C696.3,372.2,696.6,372.5,696.6,373.2z"/>
	<path class="fieldFill" d="M771.4,128.3c-0.1,0.3-0.2,1-0.6,0.7c-0.4-0.3-1.3-0.4-1.2-1.3c0.1-0.6,0.6-0.5,0.9-0.5
		C771.2,127.3,771.6,127.6,771.4,128.3z"/>
	<path class="fieldFill" d="M511.7,294.5c-0.3-0.2-1-0.1-1-0.5c0.1-0.6,0.6-1.2,1.2-1.3c0.5-0.1,0.5,0.5,0.5,0.9
		C512.6,294.1,512.4,294.5,511.7,294.5z"/>
	<path class="fieldFill" d="M513.5,350.7c0.1,0.7-0.3,0.9-0.9,0.8c-0.4-0.1-1.2,0.1-1-0.7c0.1-0.4,0.7-0.9,1.2-1
		C513.2,349.7,513.3,350.4,513.5,350.7z"/>
	<path class="fieldFill" d="M897.9,376.9c0.2,0.6-0.2,1.5,1,1.5c1.1,0,1.9-0.9,1.9-1.5c0-0.7-0.8-1.5-2-1.5
		C897.6,375.4,898.1,376.3,897.9,376.9z"/>
	<path class="fieldFill" d="M905.9,284.5c-1,0-1.7,0.9-1.7,1.5c0,0.7,0.8,1.5,1.8,1.5c1,0,1.1-0.5,1-1.2
		C906.9,285.5,907.3,284.5,905.9,284.5z"/>
	<path class="fieldFill" d="M957.5,200.6c-0.8,0-1.3,0.9-1.5,1.2c0,1.7,0.7,1.7,1.5,1.7"/>
	<path class="fieldFill" d="M885.1,265.4c0,1.3,0.9,1.1,1.6,1.1c0.7,0,1.4,0,1.4-1.1c0-1.2-0.8-1.1-1.5-1.1
		C885.9,264.4,885,264.3,885.1,265.4z"/>
	<path class="fieldFill" d="M920.9,324.9c0.8,0.5,0.9,1.7,1.7,1.5c0.5-0.1,1.5-0.7,1.4-1.7c0-0.7-0.5-1.2-1.3-1.3
		C921.7,323.3,921.7,324.3,920.9,324.9z"/>
	<path class="fieldFill" d="M848.2,336.9c0,1.2,0.5,1.5,1.2,1.6c0.8,0,1.5-0.2,1.5-1.2c0.1-1-0.8-1-1.4-1
		C849,336.3,848.2,336.3,848.2,336.9z"/>
	<path class="fieldFill" d="M922,417c0.2,0.5,0.8,1.3,1.4,1.3c0.8,0.1,1.6-0.7,1.5-1.5c-0.1-0.6-0.7-1.4-1.7-1.4
		C922.5,415.5,922,415.9,922,417z"/>
	<path class="fieldFill" d="M911.8,272.8c0.4,0.6-0.1,1.6,1,1.5c0.8,0,1.2-0.5,1.3-1.3c0-1-0.8-1.4-1.5-1.5
		C911.7,271.5,912.2,272.5,911.8,272.8z"/>
	<path class="fieldFill" d="M843.1,521.8c0.1,0.8,0.9,1,1.5,1.1c0.5,0.1,0.5-0.7,0.5-1.2c0-0.6-0.1-1.4-1.1-1.3
		C843.2,520.6,843.1,521.1,843.1,521.8z"/>
	<path class="fieldFill" d="M894.5,77.3c-0.5,0.6-1.2,1-1.4,1.6c-0.1,0.7,0.8,1.4,1.3,1.4c0.7,0.1,1.5-0.7,1.5-1.4
		C895.9,78.4,895.1,77.9,894.5,77.3z"/>
	<path class="fieldFill" d="M896.1,336.3c0.3,0.3,0.8,0.9,1.3,1.1c1,0.2,0.9-1,1.3-1.5c0.3-0.4-0.7-0.7-1.3-0.7
		C896.9,335.3,896.2,335.2,896.1,336.3z"/>
	<path class="fieldFill" d="M874,386.4c-0.7,0-1,0.4-0.9,1.1c0,0.8,0.7,0.9,1.2,0.9c0.7,0,0.8-0.5,0.7-1C875,386.8,874.8,386.3,874,386.4z
		"/>
	<path class="fieldFill" d="M916.1,442.5c0.8,0.1,1-0.3,1-1c0-0.8-0.4-1.1-1.2-1.1c-0.9,0-0.7,0.7-0.8,1.2
		C914.9,442.5,915.5,442.6,916.1,442.5z"/>
	<path class="fieldFill" d="M904,54.5c-0.2,0.8,0.3,1,1,1c0.6,0,1.2,0,1.1-0.9c-0.1-0.5,0.1-1.2-0.9-1.2C904.4,53.4,903.9,53.6,904,54.5z"
		/>
	<path class="fieldFill" d="M864.4,487.2c0.7-0.3,0.8-0.9,0.7-1.4c-0.1-0.5,0.1-1.4-0.8-1.1c-0.5,0.2-1.4,0.5-1.2,1.3
		C863.2,486.5,863.9,486.8,864.4,487.2z"/>
	<path class="fieldFill" d="M837.2,504.8c-0.3-0.5,0.1-1.5-0.7-1.3c-0.5,0.1-1.3,0.9-1.3,1.4c0,0.5,0.8,1.3,1.3,1.4
		C837.4,506.4,836.9,505.3,837.2,504.8z"/>
	<path class="fieldFill" d="M917,46.3c-0.7-0.1-1.2,0.1-1,0.9c0.1,0.5-0.1,1.2,0.8,1.2c0.8,0,1.2-0.3,1.3-1.1
		C918.1,46.4,917.5,46.4,917,46.3z"/>
	<path class="fieldFill" d="M917,156.3c0.8,0.1,0.9-0.5,1.1-1c0.2-0.8-0.2-1.1-0.9-1c-0.5,0.1-1.2,0-1.2,0.9
		C916.1,155.8,916.3,156.3,917,156.3z"/>
	<path class="fieldFill" d="M839.2,233.5c0.9,0,0.9-0.5,0.8-1.1c-0.1-0.6-0.2-0.9-0.9-0.9c-0.7,0.1-1,0.4-1.1,1.1
		C838,233.4,838.7,233.4,839.2,233.5z"/>
	<path class="fieldFill" d="M949,228.4c0.6,0,1.1-0.1,1-0.9c-0.1-0.8-0.6-1.1-1.3-1.1c-0.9,0-0.7,0.7-0.7,1.2
		C947.9,228.4,948.3,228.5,949,228.4z"/>
	<path class="fieldFill" d="M938,203.4c0,0.7,0.3,1,1.1,1c0.8,0,0.9-0.5,1-1.2c0.1-0.8-0.5-0.9-1.1-0.9C938.2,202.3,937.9,202.7,938,203.4
		z"/>
	<path class="fieldFill" d="M909.9,138.3c0,0.6,0,1.2,0.9,1.1c0.6-0.1,1.2-0.1,1.2-0.9c0-0.7-0.3-1-1-1.1
		C910.2,137.3,909.8,137.5,909.9,138.3z"/>
	<path class="fieldFill" d="M818.5,203.2c0.9-1,0.7-1.8,0-2.8C817.7,201.4,817.6,202.2,818.5,203.2z"/>
	<path class="fieldFill" d="M18.9,508.4c-1.3,0.1-1.1,1.1-1,1.7c0.1,1.2,0.8,2.2,2.1,2.4c1,0.2,1.1-0.6,1.1-1.5
		C21,509.6,20,508.9,18.9,508.4z"/>
	<path class="fieldFill" d="M89.8,144.5c1.1,0.2,1.4-0.5,1.3-1.6c-0.1-0.6,0.4-1.7-1-1.4c-1,0.2-1.9,0.8-2,1.9
		C87.8,144.7,88.8,144.4,89.8,144.5z"/>
	<path class="fieldFill" d="M116.4,381.9c0.7,0.3,0.3,1.5,1.3,1.5c1.1,0,1.3-0.7,1.4-1.6c0-0.8,0.1-1.4-1.1-1.4
		C116.7,380.3,117.1,381.5,116.4,381.9z"/>
	<path class="fieldFill" d="M39.5,177.4c-1.2,0.2-1.5,0.9-1.5,1.8c0,0.7,0.1,1.3,1.1,1.3c1.1,0,1.6-0.9,1.8-1.5
		C41,178.2,40.2,177.6,39.5,177.4z"/>
	<path class="fieldFill" d="M130.9,88.3c-0.1-1-0.9-1-1.3-1.5c-0.5,0.4-1.3,0.8-1.3,1.2c0,0.5,0.6,1.3,1.1,1.4
		C130.3,89.7,130,88.1,130.9,88.3"/>
	<path class="fieldFill" d="M79.1,461.5c-0.7,0-1,0.4-1,1.1c0,0.8,0.6,0.9,1.1,0.9c0.6,0,0.9-0.3,0.8-0.9C80,462,79.9,461.4,79.1,461.5z"
		/>
	<path class="fieldFill" d="M33,469.3c0,0.6,0,1.2,0.9,1.1c0.7-0.1,1-0.3,1.1-1c0.1-0.8-0.4-0.9-1-1C33.2,468.3,32.9,468.6,33,469.3z"/>
	<path class="fieldFill" d="M76.7,13.3c-0.4,0-0.9,0.1-0.8,0.9c0.1,0.5,0,1.2,0.9,1.1c0.8-0.1,1.2-0.5,1.3-1.2
		C78.1,13.3,77.5,13.3,76.7,13.3z"/>
	<path class="fieldFill" d="M22,289.4c0,0.6,0,1.1,0.9,1c0.8-0.1,1.1-0.5,1.2-1.3c0.1-0.9-0.6-0.8-1.2-0.8C22,288.2,21.9,288.8,22,289.4z"
		/>
	<path class="fieldFill" d="M24.8,271.3c0.4-0.4,1-0.8,1.1-1.3c0.2-0.7-0.6-0.6-1.1-0.6c-0.9-0.1-0.9,0.5-0.8,1.1
		C24.1,270.9,24,271.4,24.8,271.3z"/>
	<path class="fieldFill" d="M103.9,121.2c0.2,0.4,0,1.2,0.7,1c0.5-0.1,0.9-0.7,1.1-1.2c0.1-0.4-0.5-0.5-0.9-0.6
		C104.2,120.2,103.9,120.5,103.9,121.2z"/>
	<path class="fieldFill" d="M78,128.3c0.1,0.3,0.2,1,0.6,0.7c0.4-0.3,1.3-0.4,1.2-1.3c-0.1-0.6-0.6-0.5-0.9-0.5
		C78.3,127.3,77.8,127.6,78,128.3z"/>
	<path class="fieldFill" d="M1.3,336.9c0,1.2-0.5,1.5-1.2,1.6c-0.8,0-1.5-0.2-1.5-1.2c-0.1-1,0.8-1,1.4-1C0.4,336.3,1.2,336.3,1.3,336.9z"
		/>
	<path class="fieldFill" d="M6.4,521.8c-0.1,0.8-0.9,1-1.5,1.1c-0.5,0.1-0.5-0.7-0.5-1.2c0-0.6,0.1-1.4,1.1-1.3
		C6.2,520.6,6.3,521.1,6.4,521.8z"/>
	<path class="fieldFill" d="M12.3,504.8c0.3-0.5-0.1-1.5,0.7-1.3c0.5,0.1,1.3,0.9,1.3,1.4c0,0.5-0.8,1.3-1.3,1.4
		C12,506.4,12.5,505.3,12.3,504.8z"/>
	<path class="fieldFill" d="M10.2,233.5c-0.9,0-0.9-0.5-0.8-1.1c0.1-0.6,0.2-0.9,0.9-0.9c0.7,0.1,1,0.4,1.1,1.1
		C11.4,233.4,10.8,233.4,10.2,233.5z"/>
	<path class="fieldFill" d="M30.9,203.2c-0.9-1-0.7-1.8,0-2.8C31.7,201.4,31.9,202.2,30.9,203.2z"/>
	<path class="fieldFill" d="M893.7,294.5c0.3-0.2,1-0.1,1-0.5c-0.1-0.6-0.6-1.2-1.2-1.3c-0.5-0.1-0.5,0.5-0.5,0.9
		C892.9,294.1,893,294.5,893.7,294.5z"/>
	<path class="fieldFill" d="M892,350.7c-0.1,0.7,0.3,0.9,0.9,0.8c0.4-0.1,1.2,0.1,1-0.7c-0.1-0.4-0.7-0.9-1.2-1
		C892.2,349.7,892.1,350.4,892,350.7z"/>
	<path class="fieldFill" d="M645.7,300.5c-0.4-0.2-1.2,0-1-0.7c0.1-0.4,0.8-0.7,1.2-1.1c0.2,0.3,0.5,0.6,0.6,0.9
		C646.7,300.3,646.3,300.5,645.7,300.5z"/>
	<path class="fieldFill" d="M706.8,143.9c-0.3-1.3-0.9-2,0.1-2.4c0.2-0.1,0.8,0,0.9,0.2C708.3,142.6,707.3,142.7,706.8,143.9z"/>
	<path class="fieldFill" d="M407.3,141.6c0.1,0.9-0.5,0.8-0.9,0.9c-0.6,0.1-1.2,0-1.1-0.8c0.1-0.5-0.1-1.4,0.7-1.2
		C406.5,140.6,406.9,141.3,407.3,141.6z"/>
	<path class="fieldFill" d="M165.6,138.6c0.5-0.3,0.6-1.1,1.4-1.1c0.7,0,0.5,0.7,0.5,1.2c0.1,0.9-0.7,0.7-1.2,0.7
		C165.8,139.4,165.4,139.3,165.6,138.6z"/>
</g>
</svg>
